<svg id="svg" version="1.1" width="400" height="400" viewBox="0 0 400 400" xmlns="http://www.w3.org/2000/svg" xmlns:xlink="http://www.w3.org/1999/xlink" ><g id="svgg"><path id="path0" d="M116.732 67.982 C 105.587 70.026,93.902 78.106,84.087 90.554 C 81.184 94.236,81.168 94.314,83.035 95.523 C 84.830 96.686,84.632 96.795,87.610 93.000 C 104.207 71.848,123.377 66.351,139.154 78.219 C 142.596 80.809,142.414 80.781,143.826 78.931 L 144.946 77.462 143.373 76.096 C 135.958 69.660,125.292 66.412,116.732 67.982 M265.400 68.993 C 259.484 70.095,253.674 73.771,248.900 79.435 C 246.810 81.914,246.808 82.034,248.840 83.379 L 250.480 84.464 251.129 83.532 C 262.086 67.794,280.964 69.604,300.395 88.254 L 304.365 92.064 305.358 91.332 C 307.680 89.620,307.595 89.069,304.564 86.185 C 290.033 72.363,277.307 66.777,265.400 68.993 M264.018 127.637 C 252.064 129.980,244.407 146.139,246.974 163.600 C 251.670 195.529,282.499 204.820,291.828 177.118 C 299.849 153.298,283.303 123.857,264.018 127.637 M115.738 128.017 C 99.058 131.317,87.806 157.352,94.436 177.307 C 102.555 201.745,128.318 198.853,137.390 172.485 C 145.404 149.193,133.392 124.524,115.738 128.017 M186.400 204.244 C 143.839 209.468,126.068 276.943,157.335 314.600 C 184.260 347.027,228.631 330.622,238.446 284.611 C 247.551 241.929,220.440 200.066,186.400 204.244 " stroke="none" fill="#000000" fill-rule="evenodd"></path><path id="path1" d="M115.648 67.791 C 114.244 68.110,112.984 68.493,112.848 68.642 C 112.712 68.791,113.140 68.781,113.800 68.621 C 119.223 67.305,123.142 67.289,129.800 68.559 C 130.463 68.685,130.194 68.507,129.200 68.160 C 126.634 67.266,118.890 67.055,115.648 67.791 M269.507 68.290 C 270.226 68.379,271.306 68.377,271.907 68.286 C 272.508 68.195,271.920 68.122,270.600 68.124 C 269.280 68.126,268.788 68.201,269.507 68.290 M266.100 68.676 C 266.485 68.776,267.115 68.776,267.500 68.676 C 267.885 68.575,267.570 68.493,266.800 68.493 C 266.030 68.493,265.715 68.575,266.100 68.676 M273.700 68.676 C 274.085 68.776,274.715 68.776,275.100 68.676 C 275.485 68.575,275.170 68.493,274.400 68.493 C 273.630 68.493,273.315 68.575,273.700 68.676 M132.433 69.353 C 132.918 69.799,138.443 72.394,138.254 72.087 C 138.012 71.696,133.110 69.200,132.584 69.200 C 132.410 69.200,132.342 69.269,132.433 69.353 M106.900 70.783 C 105.525 71.434,104.400 72.052,104.400 72.158 C 104.400 72.339,109.611 70.091,109.967 69.757 C 110.469 69.285,109.098 69.744,106.900 70.783 M259.700 70.412 C 258.765 70.827,258.000 71.258,258.000 71.369 C 258.000 71.570,261.623 70.111,261.958 69.775 C 262.327 69.406,261.332 69.687,259.700 70.412 M279.633 69.765 C 279.955 70.083,284.154 71.579,284.304 71.430 C 284.387 71.346,283.446 70.901,282.213 70.439 C 280.027 69.621,279.294 69.430,279.633 69.765 M255.763 72.702 C 253.766 74.042,252.001 75.554,251.202 76.610 C 250.874 77.044,251.435 76.653,252.449 75.741 C 253.463 74.829,255.037 73.590,255.946 72.988 C 257.377 72.041,257.877 71.595,257.500 71.602 C 257.445 71.603,256.663 72.098,255.763 72.702 M102.500 73.196 C 101.160 74.013,100.653 74.729,101.900 74.043 C 102.829 73.533,104.252 72.428,104.000 72.414 C 103.890 72.408,103.215 72.760,102.500 73.196 M114.800 72.657 C 114.470 72.764,113.424 73.129,112.476 73.468 C 109.619 74.490,110.814 74.438,114.017 73.401 C 115.658 72.870,116.640 72.442,116.200 72.449 C 115.760 72.457,115.130 72.551,114.800 72.657 M138.800 72.581 C 138.800 72.696,139.475 73.222,140.300 73.750 C 141.125 74.278,142.508 75.329,143.373 76.086 L 144.946 77.462 143.826 78.931 C 142.625 80.505,141.974 80.733,141.231 79.838 C 140.492 78.947,134.772 75.094,134.538 75.329 C 134.421 75.446,134.868 75.821,135.531 76.164 C 136.193 76.507,137.913 77.690,139.353 78.794 C 140.793 79.897,142.137 80.800,142.339 80.800 C 142.964 80.800,145.695 77.533,145.337 77.213 C 142.766 74.917,138.800 72.106,138.800 72.581 M286.400 72.592 C 286.400 72.697,287.120 73.151,288.000 73.600 C 289.949 74.594,290.100 74.374,288.253 73.233 C 286.911 72.404,286.400 72.227,286.400 72.592 M130.176 73.609 C 131.263 74.033,132.216 74.318,132.293 74.240 C 132.484 74.050,129.307 72.795,128.692 72.819 C 128.421 72.829,129.089 73.185,130.176 73.609 M266.600 72.986 C 266.380 73.080,265.417 73.358,264.460 73.605 C 261.843 74.278,262.648 74.424,265.403 73.776 C 268.431 73.064,272.650 73.067,275.996 73.785 C 278.915 74.410,279.673 74.301,277.338 73.591 C 275.820 73.130,267.376 72.653,266.600 72.986 M97.940 76.296 C 93.132 79.885,86.269 86.954,81.852 92.866 L 80.757 94.332 82.551 95.566 C 84.901 97.183,84.688 97.264,87.505 93.700 C 90.340 90.114,95.148 85.051,98.600 82.017 C 99.920 80.857,100.370 80.332,99.600 80.851 C 97.435 82.309,90.394 89.441,87.606 93.000 C 84.633 96.795,84.830 96.686,83.035 95.523 C 81.168 94.314,81.184 94.236,84.087 90.554 C 88.645 84.773,93.451 80.124,99.833 75.322 C 100.475 74.839,100.883 74.434,100.740 74.422 C 100.596 74.410,99.336 75.253,97.940 76.296 M107.400 75.726 C 104.134 77.506,101.727 79.070,101.372 79.645 C 101.209 79.908,101.959 79.512,103.038 78.766 C 104.117 78.019,106.260 76.736,107.800 75.915 C 109.340 75.093,110.420 74.420,110.200 74.420 C 109.980 74.419,108.720 75.007,107.400 75.726 M280.400 74.913 C 280.706 75.239,285.200 77.180,285.200 76.986 C 285.200 76.893,284.525 76.476,283.700 76.059 C 282.131 75.268,280.056 74.547,280.400 74.913 M257.560 77.142 C 255.065 79.034,252.450 81.634,251.118 83.548 L 250.458 84.496 249.129 83.611 L 247.800 82.727 248.944 83.782 C 250.354 85.082,250.251 85.126,252.707 82.161 C 254.439 80.070,257.485 77.469,260.246 75.724 C 260.661 75.461,260.802 75.236,260.560 75.224 C 260.317 75.211,258.967 76.074,257.560 77.142 M293.200 76.504 C 293.200 76.614,294.235 77.485,295.500 78.439 C 296.765 79.393,299.150 81.335,300.800 82.754 C 302.450 84.173,303.260 84.750,302.600 84.035 C 300.879 82.172,293.200 76.020,293.200 76.504 M248.434 79.500 C 246.778 81.432,246.487 82.159,247.195 82.597 C 247.424 82.739,247.488 82.573,247.346 82.205 C 247.191 81.799,247.709 80.847,248.775 79.584 C 249.695 78.493,250.361 77.600,250.255 77.600 C 250.149 77.600,249.329 78.455,248.434 79.500 M286.400 77.715 C 286.400 77.806,287.333 78.460,288.473 79.169 C 289.613 79.878,290.343 80.213,290.096 79.915 C 289.624 79.347,286.400 77.427,286.400 77.715 M290.800 80.559 C 290.800 80.661,291.385 81.156,292.100 81.657 C 293.022 82.304,293.235 82.364,292.833 81.863 C 292.260 81.150,290.800 80.213,290.800 80.559 M295.600 84.247 C 296.810 85.307,299.345 87.668,301.232 89.493 C 304.521 92.673,304.693 92.782,305.332 92.075 C 306.263 91.046,306.170 90.522,305.211 91.390 C 304.441 92.087,304.316 92.004,300.190 88.065 C 297.863 85.843,295.383 83.641,294.679 83.172 C 293.976 82.703,294.390 83.187,295.600 84.247 M304.400 85.868 C 304.400 86.379,305.935 87.798,306.201 87.532 C 306.309 87.425,305.948 86.914,305.398 86.399 C 304.849 85.883,304.400 85.644,304.400 85.868 M307.049 88.584 C 307.181 88.929,307.044 89.523,306.745 89.905 C 306.252 90.534,306.267 90.548,306.900 90.051 C 307.673 89.444,307.816 88.581,307.205 88.203 C 306.977 88.062,306.911 88.224,307.049 88.584 M264.800 127.202 C 264.200 127.395,264.840 127.437,266.400 127.306 C 267.830 127.186,269.075 127.023,269.167 126.944 C 269.489 126.665,265.788 126.884,264.800 127.202 M111.800 128.974 C 109.182 130.235,109.580 130.252,112.600 129.008 C 113.920 128.464,114.730 128.017,114.400 128.015 C 114.070 128.012,112.900 128.444,111.800 128.974 M124.038 128.551 C 124.828 128.861,126.063 129.419,126.782 129.790 C 127.500 130.162,127.981 130.293,127.850 130.082 C 127.524 129.553,125.253 128.512,123.800 128.225 C 122.738 128.015,122.765 128.053,124.038 128.551 M274.422 128.713 C 276.187 129.634,277.200 130.029,277.200 129.798 C 277.200 129.539,275.161 128.544,274.000 128.236 C 273.323 128.057,273.459 128.211,274.422 128.713 M258.900 129.196 C 258.185 129.632,257.600 130.096,257.600 130.227 C 257.600 130.415,260.006 129.126,260.767 128.531 C 261.394 128.039,259.957 128.551,258.900 129.196 M106.944 131.726 C 104.308 133.667,100.565 137.649,99.483 139.665 C 98.793 140.949,98.793 140.962,99.483 140.006 C 101.469 137.254,104.974 133.545,106.871 132.186 C 109.349 130.411,109.848 130.000,109.524 130.000 C 109.394 130.000,108.233 130.777,106.944 131.726 M128.600 130.681 C 128.820 130.890,130.080 132.030,131.400 133.216 L 133.800 135.373 131.800 133.256 C 130.700 132.092,129.440 130.951,129.000 130.721 C 128.560 130.491,128.380 130.473,128.600 130.681 M255.552 131.706 C 253.988 133.105,251.590 136.051,250.839 137.500 C 250.084 138.954,250.655 138.531,251.649 136.900 C 252.151 136.075,253.634 134.275,254.945 132.900 C 257.561 130.154,257.789 129.707,255.552 131.706 M281.023 132.912 C 282.356 134.131,284.237 136.179,285.202 137.464 C 287.475 140.489,287.888 140.909,286.957 139.254 C 285.984 137.522,281.503 132.656,279.864 131.550 C 279.169 131.081,279.690 131.694,281.023 132.912 M134.585 137.100 C 135.202 138.035,135.777 138.800,135.863 138.800 C 136.196 138.800,134.818 136.513,134.158 135.971 C 133.766 135.648,133.951 136.139,134.585 137.100 M249.071 140.892 C 248.027 143.392,247.988 144.242,249.019 142.048 C 249.575 140.865,249.944 139.810,249.838 139.705 C 249.733 139.600,249.388 140.134,249.071 140.892 M136.442 140.200 C 136.446 140.420,136.886 141.500,137.420 142.600 C 137.954 143.700,138.280 144.150,138.145 143.600 C 137.862 142.454,136.432 139.597,136.442 140.200 M97.724 142.500 C 96.594 144.609,95.576 146.910,95.712 147.045 C 95.782 147.115,96.503 145.828,97.316 144.186 C 98.772 141.244,99.081 139.967,97.724 142.500 M288.400 142.136 C 288.400 142.574,289.984 145.600,290.213 145.600 C 290.484 145.600,289.250 142.691,288.779 142.220 C 288.571 142.011,288.400 141.973,288.400 142.136 M290.808 147.300 C 290.848 147.829,292.743 153.285,292.767 152.942 C 292.811 152.330,291.218 147.200,290.984 147.200 C 290.883 147.200,290.803 147.245,290.808 147.300 M94.428 150.203 C 93.973 151.678,93.615 153.090,93.633 153.342 C 93.650 153.594,94.091 152.456,94.613 150.813 C 95.134 149.171,95.492 147.758,95.408 147.675 C 95.324 147.591,94.883 148.729,94.428 150.203 M246.530 149.463 C 246.065 152.195,246.234 163.559,246.761 165.000 C 247.183 166.153,247.192 166.138,246.990 164.600 C 246.429 160.323,246.334 154.703,246.768 151.454 C 247.270 147.699,247.089 146.184,246.530 149.463 M139.530 150.600 C 139.678 152.140,139.800 155.200,139.800 157.400 C 139.800 159.600,139.678 162.660,139.530 164.200 C 139.291 166.674,139.311 166.813,139.705 165.400 C 140.283 163.325,140.283 151.475,139.705 149.400 C 139.311 147.987,139.291 148.126,139.530 150.600 M293.709 159.600 C 293.709 160.590,293.787 160.995,293.882 160.500 C 293.978 160.005,293.978 159.195,293.882 158.700 C 293.787 158.205,293.709 158.610,293.709 159.600 M92.509 160.000 C 92.509 160.990,92.587 161.395,92.682 160.900 C 92.778 160.405,92.778 159.595,92.682 159.100 C 92.587 158.605,92.509 159.010,92.509 160.000 M294.076 163.441 C 294.034 164.564,293.917 166.634,293.815 168.041 L 293.630 170.600 294.023 168.200 C 294.239 166.880,294.356 164.810,294.283 163.600 L 294.151 161.400 294.076 163.441 M92.134 164.800 C 92.134 166.450,92.205 167.125,92.291 166.300 C 92.378 165.475,92.378 164.125,92.291 163.300 C 92.205 162.475,92.134 163.150,92.134 164.800 M92.501 169.400 C 92.505 170.280,92.587 170.593,92.683 170.095 C 92.779 169.598,92.775 168.878,92.675 168.495 C 92.575 168.113,92.496 168.520,92.501 169.400 M137.239 172.869 C 136.297 175.661,136.380 176.580,137.336 173.924 C 138.182 171.572,138.490 170.400,138.264 170.400 C 138.159 170.400,137.698 171.511,137.239 172.869 M248.462 171.600 C 248.461 171.930,248.806 172.920,249.229 173.800 C 249.652 174.680,249.886 174.950,249.750 174.400 C 249.375 172.895,248.466 170.916,248.462 171.600 M292.023 176.509 C 290.776 180.388,290.683 180.812,291.384 179.400 C 292.128 177.903,293.330 173.996,293.113 173.779 C 293.024 173.691,292.534 174.919,292.023 176.509 M93.600 175.918 C 93.600 176.526,95.243 180.890,95.409 180.724 C 95.549 180.584,94.039 175.915,93.763 175.633 C 93.673 175.542,93.600 175.670,93.600 175.918 M250.800 177.429 C 250.800 177.763,252.846 181.200,253.045 181.200 C 253.138 181.200,252.757 180.300,252.200 179.200 C 251.289 177.402,250.800 176.783,250.800 177.429 M134.240 179.598 C 133.640 180.699,133.234 181.600,133.337 181.600 C 133.633 181.600,135.689 177.956,135.500 177.767 C 135.406 177.673,134.839 178.497,134.240 179.598 M254.055 182.800 C 256.275 186.236,263.569 192.401,265.400 192.390 C 265.620 192.389,264.710 191.770,263.379 191.015 C 260.966 189.647,256.956 186.042,254.462 183.000 C 253.259 181.533,253.225 181.516,254.055 182.800 M288.493 184.100 C 287.583 185.475,286.335 187.220,285.719 187.978 C 285.104 188.736,284.821 189.223,285.090 189.060 C 286.162 188.415,290.906 181.600,290.284 181.600 C 290.208 181.600,289.403 182.725,288.493 184.100 M97.075 184.089 C 98.293 186.351,102.386 190.772,104.000 191.570 C 104.686 191.909,104.560 191.716,103.600 190.954 C 101.266 189.101,98.798 186.317,97.528 184.100 C 95.967 181.378,95.610 181.369,97.075 184.089 M131.454 183.927 C 129.770 186.221,126.803 189.057,124.479 190.595 C 122.520 191.891,122.233 192.374,124.046 191.323 C 126.601 189.842,134.182 182.000,133.059 182.000 C 132.954 182.000,132.232 182.867,131.454 183.927 M282.614 190.446 C 280.513 192.026,280.316 192.287,281.927 191.362 C 283.062 190.710,284.847 189.145,284.362 189.227 C 284.273 189.242,283.486 189.791,282.614 190.446 M121.106 192.429 C 120.724 192.651,119.104 193.176,117.506 193.595 C 115.908 194.013,114.960 194.364,115.400 194.373 C 116.570 194.398,120.035 193.420,121.410 192.676 C 122.064 192.322,122.420 192.030,122.200 192.028 C 121.980 192.026,121.488 192.206,121.106 192.429 M278.200 192.689 C 275.138 193.829,270.685 193.802,266.599 192.620 C 266.160 192.492,266.430 192.699,267.200 193.078 C 269.393 194.159,276.408 194.066,278.800 192.926 C 280.867 191.940,280.549 191.814,278.200 192.689 M106.198 192.797 C 106.506 193.296,111.395 194.503,112.235 194.288 C 112.801 194.144,112.724 194.081,111.936 194.046 C 111.350 194.021,109.777 193.659,108.439 193.243 C 107.100 192.826,106.092 192.626,106.198 192.797 M185.600 203.953 C 184.830 204.089,187.159 204.201,190.776 204.203 C 194.502 204.204,196.669 204.084,195.776 203.926 C 193.885 203.590,187.558 203.607,185.600 203.953 M177.600 205.889 C 177.270 206.013,176.570 206.274,176.045 206.469 C 175.519 206.663,175.178 206.911,175.286 207.020 C 175.395 207.128,176.275 206.866,177.242 206.437 C 178.823 205.735,179.089 205.328,177.600 205.889 M204.202 206.341 C 205.083 206.750,206.253 207.198,206.802 207.337 C 207.351 207.476,207.080 207.252,206.200 206.839 C 205.320 206.426,204.150 205.978,203.600 205.844 C 203.050 205.709,203.321 205.933,204.202 206.341 M171.800 208.516 C 168.933 210.067,165.758 212.221,165.339 212.899 C 165.172 213.168,165.928 212.734,167.018 211.934 C 168.108 211.134,170.350 209.745,172.000 208.846 C 173.650 207.947,174.820 207.213,174.600 207.215 C 174.380 207.217,173.120 207.802,171.800 208.516 M208.200 207.892 C 208.420 208.100,209.680 208.847,211.000 209.552 C 212.320 210.258,213.040 210.542,212.600 210.185 C 211.696 209.452,207.581 207.307,208.200 207.892 M213.600 210.959 C 213.600 211.061,214.185 211.556,214.900 212.057 C 215.822 212.704,216.035 212.764,215.633 212.263 C 215.060 211.550,213.600 210.613,213.600 210.959 M219.400 215.679 C 221.160 217.331,223.680 220.079,225.000 221.785 C 227.940 225.585,228.955 226.787,228.560 226.000 C 227.361 223.612,220.676 216.082,217.834 213.919 C 216.935 213.235,217.640 214.028,219.400 215.679 M163.643 214.023 C 163.117 214.461,162.771 214.905,162.875 215.008 C 162.979 215.112,163.486 214.748,164.001 214.198 C 165.124 213.004,164.962 212.925,163.643 214.023 M159.009 218.479 C 156.717 220.955,152.848 226.069,151.806 228.000 C 151.199 229.125,152.225 227.852,154.214 225.012 C 155.288 223.478,157.492 220.733,159.113 218.912 C 162.735 214.841,162.661 214.535,159.009 218.479 M229.841 228.600 C 230.441 229.700,231.102 230.780,231.310 231.000 C 231.903 231.627,230.141 228.295,229.406 227.400 C 229.045 226.960,229.241 227.500,229.841 228.600 M150.400 230.400 C 149.951 231.280,149.674 232.000,149.784 232.000 C 149.894 232.000,150.351 231.280,150.800 230.400 C 151.249 229.520,151.526 228.800,151.416 228.800 C 151.306 228.800,150.849 229.520,150.400 230.400 M232.676 233.900 C 233.765 236.326,234.738 237.763,234.040 235.914 C 233.476 234.420,232.021 231.600,231.814 231.600 C 231.721 231.600,232.109 232.635,232.676 233.900 M147.444 236.444 C 146.857 237.800,146.441 238.975,146.522 239.055 C 146.602 239.136,147.148 238.091,147.733 236.733 C 148.319 235.376,148.734 234.201,148.656 234.122 C 148.577 234.044,148.032 235.089,147.444 236.444 M235.057 239.200 C 235.475 240.886,236.863 243.981,236.582 242.600 C 236.448 241.940,235.995 240.680,235.574 239.800 C 235.154 238.920,234.921 238.650,235.057 239.200 M145.041 242.676 C 144.469 244.396,144.014 245.982,144.030 246.201 C 144.047 246.421,144.585 245.083,145.226 243.229 C 145.868 241.376,146.323 239.789,146.237 239.704 C 146.152 239.619,145.614 240.956,145.041 242.676 M237.783 247.600 C 237.896 248.150,238.286 250.089,238.651 251.910 C 239.015 253.730,239.397 255.137,239.498 255.035 C 239.736 254.798,238.503 248.692,237.977 247.504 C 237.589 246.625,237.583 246.628,237.783 247.600 M142.493 252.400 C 142.240 253.830,141.940 255.990,141.827 257.200 C 141.714 258.410,141.976 257.510,142.410 255.200 C 142.843 252.890,143.143 250.730,143.075 250.400 C 143.008 250.070,142.746 250.970,142.493 252.400 M240.114 261.800 C 240.117 262.900,240.195 263.303,240.287 262.695 C 240.379 262.086,240.377 261.186,240.282 260.695 C 240.187 260.203,240.111 260.700,240.114 261.800 M141.314 262.600 C 141.317 263.700,141.395 264.103,141.487 263.495 C 141.579 262.886,141.577 261.986,141.482 261.495 C 141.387 261.003,141.311 261.500,141.314 262.600 M141.314 273.000 C 141.317 274.100,141.395 274.503,141.487 273.895 C 141.579 273.286,141.577 272.386,141.482 271.895 C 141.387 271.403,141.311 271.900,141.314 273.000 M240.114 273.800 C 240.117 274.900,240.195 275.303,240.287 274.695 C 240.379 274.086,240.377 273.186,240.282 272.695 C 240.187 272.203,240.111 272.700,240.114 273.800 M141.640 277.000 C 141.592 278.042,142.686 284.653,143.162 286.200 C 143.773 288.185,143.626 286.876,142.626 281.400 C 142.104 278.540,141.660 276.560,141.640 277.000 M238.684 283.457 C 238.305 285.406,237.902 287.450,237.787 288.000 C 237.584 288.971,237.589 288.974,237.977 288.096 C 238.520 286.870,239.707 280.921,239.521 280.363 C 239.439 280.116,239.062 281.509,238.684 283.457 M144.430 290.622 C 144.388 291.221,146.057 296.077,146.241 295.892 C 146.326 295.808,145.959 294.493,145.427 292.970 C 144.895 291.446,144.446 290.390,144.430 290.622 M235.685 294.432 C 235.192 295.801,234.864 296.997,234.955 297.089 C 235.189 297.323,236.858 292.773,236.705 292.316 C 236.637 292.110,236.177 293.062,235.685 294.432 M146.430 296.474 C 146.382 296.910,148.497 301.636,148.664 301.469 C 148.748 301.386,148.285 300.166,147.637 298.759 C 146.989 297.351,146.446 296.323,146.430 296.474 M233.336 300.300 C 232.993 301.125,232.546 302.115,232.342 302.500 C 232.139 302.885,232.064 303.200,232.176 303.200 C 232.408 303.200,233.433 301.290,233.999 299.803 C 234.606 298.206,234.025 298.642,233.336 300.300 M150.200 304.800 C 150.541 305.460,150.911 306.000,151.021 306.000 C 151.131 306.000,150.941 305.460,150.600 304.800 C 150.259 304.140,149.889 303.600,149.779 303.600 C 149.669 303.600,149.859 304.140,150.200 304.800 M230.552 305.700 C 230.185 306.415,229.166 308.060,228.289 309.357 C 227.411 310.653,226.899 311.586,227.151 311.430 C 227.955 310.934,231.922 304.400,231.421 304.400 C 231.311 304.400,230.920 304.985,230.552 305.700 M151.724 307.431 C 152.760 309.471,156.950 314.917,159.579 317.641 C 160.937 319.049,161.851 319.795,161.610 319.300 C 161.369 318.805,161.026 318.400,160.848 318.400 C 160.375 318.400,155.633 312.647,153.430 309.400 C 151.223 306.149,150.858 305.727,151.724 307.431 M224.961 313.900 C 224.116 314.945,222.430 316.896,221.213 318.236 C 219.883 319.699,220.221 319.428,222.059 317.556 C 224.875 314.687,227.107 312.000,226.675 312.000 C 226.577 312.000,225.805 312.855,224.961 313.900 M165.673 323.026 C 166.321 323.771,168.800 325.408,168.800 325.090 C 168.800 325.005,167.945 324.332,166.900 323.593 C 165.855 322.855,165.303 322.600,165.673 323.026 M214.156 324.001 C 213.252 324.642,211.182 325.891,209.556 326.778 C 206.252 328.578,206.080 328.980,209.313 327.345 C 211.496 326.241,216.000 323.304,216.000 322.985 C 216.000 322.705,215.927 322.746,214.156 324.001 M169.800 325.808 C 170.765 326.598,173.625 328.108,173.808 327.925 C 173.880 327.853,172.828 327.200,171.470 326.473 C 170.111 325.747,169.360 325.448,169.800 325.808 M176.600 329.174 C 177.480 329.595,178.740 330.050,179.400 330.185 C 180.101 330.330,179.768 330.092,178.600 329.614 C 175.900 328.509,174.618 328.227,176.600 329.174 M203.400 329.457 C 202.080 329.987,201.540 330.313,202.200 330.180 C 203.443 329.930,206.907 328.458,206.200 328.480 C 205.980 328.487,204.720 328.927,203.400 329.457 M186.400 331.670 C 187.390 331.819,189.370 331.941,190.800 331.941 C 192.230 331.941,194.210 331.819,195.200 331.670 C 196.263 331.511,194.460 331.400,190.800 331.400 C 187.140 331.400,185.337 331.511,186.400 331.670 " stroke="none" fill="#66572d" fill-rule="evenodd"></path><path id="path2" d="" stroke="none" fill="#ff0000" fill-rule="evenodd"></path><path id="path3" d="" stroke="none" fill="#ff5500" fill-rule="evenodd"></path><path id="path4" d="M180.800 27.837 C 180.030 27.921,177.160 28.192,174.421 28.440 C 171.683 28.688,169.163 29.037,168.821 29.215 C 168.480 29.393,165.596 29.928,162.413 30.403 C 159.230 30.879,155.900 31.511,155.013 31.807 C 154.126 32.104,151.690 32.740,149.600 33.221 C 147.510 33.702,145.620 34.236,145.400 34.406 C 145.180 34.577,143.470 35.120,141.600 35.614 C 139.730 36.107,137.750 36.740,137.200 37.020 C 136.650 37.300,134.760 38.017,133.000 38.613 C 131.240 39.209,129.445 39.945,129.011 40.248 C 128.577 40.552,128.003 40.800,127.735 40.800 C 127.467 40.800,125.526 41.610,123.422 42.600 C 121.317 43.590,119.429 44.400,119.226 44.400 C 119.023 44.400,118.619 44.628,118.329 44.907 C 118.038 45.186,116.990 45.761,116.000 46.185 C 115.010 46.610,113.750 47.258,113.200 47.627 C 112.650 47.996,111.300 48.779,110.200 49.368 C 107.121 51.015,105.999 51.677,103.527 53.300 C 102.271 54.125,101.088 54.800,100.897 54.800 C 100.707 54.800,100.200 55.115,99.772 55.500 C 99.344 55.885,97.416 57.271,95.487 58.579 C 93.559 59.887,91.687 61.282,91.329 61.679 C 90.970 62.076,90.514 62.400,90.317 62.400 C 89.940 62.400,84.023 67.236,79.639 71.127 C 72.903 77.104,64.112 86.543,57.964 94.400 C 57.534 94.950,56.684 96.030,56.075 96.800 C 55.058 98.088,50.734 104.381,49.800 105.933 C 49.580 106.299,48.635 107.778,47.700 109.220 C 46.765 110.662,46.000 111.998,46.000 112.189 C 46.000 112.380,45.750 112.821,45.445 113.169 C 45.139 113.516,44.384 114.790,43.765 116.000 C 43.147 117.210,42.519 118.290,42.371 118.400 C 42.222 118.510,41.684 119.590,41.176 120.800 C 40.668 122.010,39.925 123.429,39.526 123.954 C 39.127 124.479,38.800 125.074,38.800 125.278 C 38.800 125.481,38.080 127.156,37.200 129.000 C 36.320 130.844,35.600 132.562,35.600 132.818 C 35.600 133.074,35.180 134.120,34.668 135.142 C 34.155 136.164,33.401 138.080,32.993 139.400 C 32.584 140.720,32.121 141.890,31.964 142.000 C 31.807 142.110,31.191 144.000,30.596 146.200 C 30.000 148.400,29.373 150.380,29.202 150.600 C 29.032 150.820,28.412 153.160,27.825 155.800 C 27.238 158.440,26.600 160.892,26.408 161.249 C 26.215 161.606,25.668 164.486,25.191 167.649 C 24.715 170.812,24.171 173.760,23.983 174.200 C 22.007 178.820,22.025 221.799,24.004 225.559 C 24.190 225.911,24.736 228.855,25.217 232.100 C 25.698 235.345,26.251 238.000,26.446 238.000 C 26.641 238.000,26.800 238.357,26.800 238.793 C 26.800 239.881,28.825 248.505,29.197 249.000 C 29.362 249.220,30.000 251.200,30.613 253.400 C 31.227 255.600,31.846 257.490,31.989 257.600 C 32.132 257.710,32.651 259.093,33.144 260.673 C 33.636 262.253,34.173 263.603,34.336 263.673 C 34.499 263.743,34.928 264.700,35.289 265.800 C 36.002 267.973,39.265 275.288,39.882 276.099 C 40.092 276.375,40.677 277.590,41.182 278.800 C 41.687 280.010,42.225 281.090,42.378 281.200 C 42.531 281.310,43.199 282.390,43.864 283.600 C 46.964 289.246,52.024 297.376,52.950 298.200 C 53.198 298.420,53.648 299.081,53.951 299.669 C 54.254 300.257,55.195 301.607,56.042 302.669 C 56.889 303.731,57.852 304.960,58.182 305.400 C 64.147 313.355,74.862 324.509,83.200 331.442 C 85.950 333.729,88.464 335.824,88.787 336.097 C 89.109 336.370,89.987 337.010,90.738 337.519 C 91.489 338.029,92.339 338.681,92.627 338.969 C 93.293 339.636,103.450 346.400,103.784 346.400 C 103.921 346.400,104.251 346.594,104.517 346.830 C 105.146 347.390,107.594 348.840,110.600 350.432 C 111.920 351.131,113.090 351.823,113.200 351.970 C 113.310 352.117,114.568 352.737,115.995 353.348 C 117.422 353.959,118.682 354.581,118.795 354.730 C 119.109 355.143,126.342 358.378,128.600 359.115 C 129.700 359.474,130.659 359.906,130.731 360.076 C 130.803 360.246,132.333 360.844,134.131 361.406 C 135.929 361.968,137.940 362.677,138.600 362.981 C 139.260 363.285,140.970 363.835,142.400 364.203 C 143.830 364.571,145.180 365.015,145.400 365.190 C 145.620 365.364,147.960 365.991,150.600 366.582 C 153.240 367.172,155.760 367.825,156.200 368.032 C 157.069 368.440,169.157 370.397,170.820 370.399 C 171.381 370.400,172.011 370.562,172.220 370.759 C 173.891 372.338,215.309 372.338,216.980 370.759 C 217.189 370.562,217.819 370.400,218.380 370.399 C 220.097 370.397,232.148 368.433,233.000 368.016 C 233.440 367.801,235.960 367.152,238.600 366.573 C 241.240 365.995,243.580 365.378,243.800 365.202 C 244.020 365.027,245.730 364.476,247.600 363.978 C 249.470 363.481,251.090 362.953,251.200 362.806 C 251.310 362.658,252.975 362.051,254.900 361.456 C 256.825 360.861,258.400 360.239,258.400 360.074 C 258.400 359.910,259.255 359.530,260.300 359.231 C 261.345 358.932,263.864 357.903,265.898 356.944 C 267.933 355.985,269.778 355.200,269.998 355.200 C 270.219 355.200,270.400 355.052,270.400 354.871 C 270.400 354.690,271.615 354.043,273.100 353.433 C 274.585 352.824,275.890 352.185,276.000 352.014 C 276.110 351.843,277.280 351.131,278.600 350.432 C 281.606 348.840,284.054 347.390,284.683 346.830 C 284.949 346.594,285.279 346.400,285.416 346.400 C 285.788 346.400,296.135 339.544,296.607 338.985 C 296.830 338.720,297.646 338.073,298.420 337.548 C 300.070 336.428,299.562 336.839,306.400 331.098 C 314.652 324.170,328.596 309.652,330.161 306.360 C 330.360 305.942,330.657 305.600,330.822 305.600 C 330.986 305.600,331.496 305.015,331.954 304.300 C 332.412 303.585,333.408 302.190,334.167 301.200 C 334.926 300.210,335.559 299.175,335.573 298.900 C 335.588 298.625,335.757 298.400,335.949 298.400 C 336.496 298.400,342.405 289.100,345.226 283.800 C 345.928 282.480,346.637 281.310,346.801 281.200 C 346.965 281.090,347.512 280.010,348.017 278.800 C 348.521 277.590,349.174 276.316,349.467 275.969 C 349.760 275.621,350.000 275.217,350.000 275.071 C 350.000 274.925,350.780 273.139,351.734 271.102 C 352.687 269.066,353.716 266.545,354.021 265.500 C 354.325 264.455,354.700 263.600,354.853 263.600 C 355.006 263.600,355.516 262.385,355.986 260.900 C 356.456 259.415,357.092 257.654,357.398 256.988 C 357.704 256.321,358.345 254.341,358.822 252.588 C 359.299 250.834,359.828 249.220,359.997 249.000 C 360.372 248.511,362.400 239.897,362.400 238.793 C 362.400 238.357,362.559 238.000,362.754 238.000 C 362.949 238.000,363.505 235.345,363.990 232.100 C 364.475 228.855,365.028 225.840,365.220 225.400 C 367.104 221.077,367.106 178.543,365.222 174.200 C 365.031 173.760,364.485 170.812,364.009 167.649 C 363.532 164.486,362.978 161.606,362.776 161.249 C 362.575 160.892,361.940 158.440,361.366 155.800 C 360.791 153.160,360.179 150.820,360.005 150.600 C 359.830 150.380,359.200 148.400,358.604 146.200 C 358.009 144.000,357.395 142.110,357.241 142.000 C 357.087 141.890,356.730 140.990,356.448 140.000 C 356.165 139.010,355.409 137.075,354.767 135.699 C 354.125 134.323,353.600 133.008,353.600 132.776 C 353.600 132.544,352.790 130.655,351.800 128.579 C 350.810 126.502,350.000 124.682,350.000 124.533 C 350.000 124.385,349.760 123.979,349.467 123.631 C 349.174 123.284,348.521 122.010,348.017 120.800 C 347.512 119.590,346.978 118.510,346.829 118.400 C 346.681 118.290,346.049 117.210,345.426 116.000 C 344.803 114.790,343.957 113.371,343.547 112.846 C 343.136 112.321,342.800 111.722,342.800 111.514 C 342.800 111.306,342.125 110.122,341.300 108.883 C 340.475 107.644,339.620 106.321,339.400 105.942 C 338.610 104.584,334.208 98.172,333.125 96.800 C 332.516 96.030,331.666 94.950,331.236 94.400 C 325.129 86.596,315.677 76.452,309.366 70.929 C 304.695 66.842,299.236 62.400,298.883 62.400 C 298.686 62.400,298.193 62.035,297.789 61.588 C 297.385 61.142,295.512 59.747,293.627 58.489 C 291.742 57.231,289.851 55.886,289.425 55.501 C 288.998 55.115,288.493 54.800,288.303 54.800 C 288.112 54.800,286.896 54.080,285.600 53.200 C 284.304 52.320,283.078 51.600,282.876 51.600 C 282.673 51.600,282.035 51.228,281.456 50.773 C 280.323 49.881,274.426 46.684,271.895 45.589 C 271.403 45.376,270.730 45.025,270.400 44.808 C 269.628 44.301,262.865 41.200,262.531 41.200 C 262.392 41.200,261.180 40.682,259.839 40.050 C 258.497 39.417,256.320 38.567,255.000 38.161 C 253.680 37.754,252.510 37.311,252.400 37.176 C 252.290 37.040,250.400 36.427,248.200 35.813 C 246.000 35.200,244.020 34.561,243.800 34.394 C 243.580 34.227,241.600 33.698,239.400 33.218 C 237.200 32.739,235.068 32.167,234.662 31.946 C 234.256 31.726,231.016 31.087,227.462 30.527 C 223.908 29.967,220.640 29.358,220.200 29.175 C 217.832 28.187,187.168 27.146,180.800 27.837 M131.182 68.765 C 135.092 70.083,139.686 72.611,142.776 75.144 C 143.753 75.945,144.813 76.796,145.133 77.036 C 145.618 77.401,145.468 77.744,144.210 79.136 C 142.349 81.196,142.499 81.205,139.442 78.862 C 123.022 66.277,103.069 72.407,86.319 95.184 C 84.893 97.123,84.824 97.130,82.551 95.566 L 80.757 94.332 81.852 92.866 C 97.134 72.408,115.445 63.462,131.182 68.765 M278.153 69.188 C 286.106 71.222,294.494 76.429,303.957 85.205 C 308.163 89.105,308.028 88.743,306.140 91.047 L 304.681 92.828 301.240 89.498 C 281.559 70.448,263.480 67.957,252.205 82.742 C 250.349 85.175,250.573 85.129,248.473 83.514 C 246.550 82.037,246.512 81.898,247.624 80.463 C 255.594 70.176,266.405 66.183,278.153 69.188 M271.829 127.607 C 299.760 134.751,301.871 191.796,274.281 193.882 C 247.183 195.932,235.039 143.788,259.173 129.016 C 262.335 127.081,267.516 126.504,271.829 127.607 M123.958 128.225 C 138.615 132.577,144.943 156.574,136.504 175.800 C 126.897 197.688,105.434 200.934,96.012 181.926 C 83.891 157.472,102.437 121.834,123.958 128.225 M200.597 204.962 C 242.420 215.856,254.846 285.083,220.999 318.628 C 188.328 351.008,141.400 321.041,141.400 267.800 C 141.400 226.882,169.645 196.899,200.597 204.962 " stroke="none" fill="#ffd972" fill-rule="evenodd"></path></g></svg>