<svg id="svg" version="1.1" width="400" height="400" viewBox="0 0 400 400" xmlns="http://www.w3.org/2000/svg" xmlns:xlink="http://www.w3.org/1999/xlink" ><g id="svgg"><path id="path0" d="M52.237 206.407 C 47.911 208.793,46.657 213.507,49.300 217.447 C 50.519 219.265,65.002 227.136,74.900 231.360 C 75.725 231.712,76.985 232.250,77.700 232.554 C 78.415 232.859,80.080 233.507,81.400 233.993 C 82.720 234.480,84.160 235.022,84.600 235.199 C 85.748 235.659,87.382 236.181,90.800 237.181 C 92.450 237.663,94.353 238.225,95.028 238.429 C 95.704 238.633,96.548 238.800,96.905 238.800 C 98.037 238.800,98.081 239.553,97.074 241.705 C 95.141 245.838,94.999 246.483,95.027 251.000 C 95.088 260.791,101.871 268.107,111.800 269.092 C 113.884 269.299,119.085 268.510,119.442 267.932 C 119.555 267.750,119.916 267.600,120.246 267.600 C 121.911 267.600,128.800 261.567,128.800 260.108 C 128.800 259.829,128.951 259.600,129.136 259.600 C 129.321 259.600,129.713 258.835,130.008 257.900 C 130.303 256.965,130.713 255.976,130.918 255.703 C 131.127 255.426,131.222 252.797,131.134 249.755 L 130.974 244.304 133.587 244.571 C 143.381 245.571,168.747 246.277,170.469 245.598 C 175.129 243.758,177.143 239.222,175.166 235.017 C 174.338 233.255,172.153 231.200,171.107 231.200 C 170.806 231.200,170.389 231.035,170.180 230.833 C 169.971 230.631,164.220 230.358,157.400 230.225 C 142.416 229.934,134.432 229.420,123.200 228.022 C 121.550 227.817,119.120 227.536,117.800 227.398 C 116.480 227.260,115.040 226.992,114.600 226.803 C 114.160 226.613,112.990 226.358,112.000 226.236 C 111.010 226.113,109.300 225.822,108.200 225.588 C 107.100 225.354,105.390 225.007,104.400 224.815 C 103.410 224.623,101.880 224.260,101.000 224.007 C 100.120 223.754,98.770 223.391,98.000 223.200 C 93.733 222.143,87.825 220.155,83.800 218.422 C 82.700 217.948,81.263 217.344,80.608 217.080 C 79.952 216.816,74.642 214.202,68.808 211.271 C 56.822 205.250,55.199 204.774,52.237 206.407 M342.800 205.986 C 342.250 206.160,336.566 208.903,330.168 212.082 C 323.770 215.260,317.740 218.140,316.768 218.483 C 315.796 218.825,312.930 219.839,310.400 220.736 C 305.010 222.647,301.788 223.565,296.000 224.840 C 280.531 228.248,264.995 229.841,243.254 230.251 C 230.292 230.495,229.664 230.588,227.234 232.633 C 222.827 236.341,224.608 244.034,230.238 245.611 C 232.216 246.164,243.007 245.986,258.000 245.151 C 262.290 244.912,266.610 244.690,267.600 244.658 L 269.400 244.600 269.408 249.800 C 269.417 255.130,269.798 257.052,271.285 259.262 C 271.678 259.846,272.000 260.491,272.000 260.696 C 272.000 262.316,279.045 267.428,282.800 268.533 C 285.371 269.289,293.258 268.877,293.827 267.956 C 293.948 267.760,294.316 267.600,294.646 267.600 C 295.550 267.600,299.641 264.695,301.261 262.902 C 306.299 257.325,307.279 248.232,303.556 241.608 C 302.547 239.813,302.766 238.800,304.164 238.800 C 304.708 238.800,305.264 238.620,305.400 238.400 C 305.536 238.180,306.029 238.000,306.495 238.000 C 306.962 238.000,307.896 237.820,308.572 237.600 C 309.247 237.380,311.153 236.765,312.806 236.234 C 319.862 233.968,326.058 231.376,334.600 227.120 C 348.698 220.095,351.200 218.665,351.200 217.636 C 351.200 217.396,351.380 217.200,351.600 217.200 C 351.820 217.200,352.000 216.851,352.000 216.424 C 352.000 215.997,352.180 215.536,352.400 215.400 C 352.984 215.039,352.888 212.309,352.236 210.749 C 350.564 206.747,346.643 204.768,342.800 205.986 M180.200 307.835 C 172.726 308.276,165.074 308.892,162.800 309.238 C 156.387 310.211,154.794 310.500,151.600 311.265 C 136.944 314.776,135.592 324.406,149.200 328.360 C 150.190 328.648,151.413 329.045,151.919 329.242 C 152.424 329.439,153.359 329.600,153.995 329.600 C 154.632 329.600,155.248 329.754,155.364 329.941 C 156.039 331.033,235.010 331.535,242.000 330.492 C 246.364 329.840,247.703 329.584,248.600 329.228 C 249.040 329.054,250.120 328.693,251.000 328.427 C 257.109 326.580,262.920 320.760,260.786 318.626 C 260.574 318.414,260.400 317.935,260.400 317.561 C 260.400 313.787,249.457 310.399,231.400 308.584 C 225.741 308.015,186.809 307.446,180.200 307.835 " stroke="none" fill="#000000" fill-rule="evenodd"></path><path id="path1" d="M53.906 205.233 C 48.079 206.607,45.610 212.945,48.958 217.935 C 50.238 219.841,69.183 229.867,77.900 233.251 C 78.395 233.443,79.205 233.768,79.700 233.974 C 80.195 234.179,81.320 234.577,82.200 234.857 C 83.080 235.137,83.980 235.477,84.200 235.611 C 84.420 235.746,85.410 236.089,86.400 236.374 C 87.390 236.658,88.560 237.026,89.000 237.190 C 90.489 237.747,92.591 238.343,94.900 238.863 C 97.545 239.460,97.535 239.435,96.174 242.218 C 86.807 261.363,111.246 278.930,126.454 263.985 C 130.418 260.090,131.776 256.594,131.775 250.294 L 131.773 245.187 136.587 245.420 C 139.234 245.548,143.380 245.820,145.800 246.025 C 154.820 246.788,170.170 246.514,171.888 245.559 C 177.014 242.710,177.931 236.683,173.880 232.469 C 171.799 230.305,170.591 230.000,164.051 229.996 C 146.587 229.984,125.656 228.283,111.862 225.756 C 108.817 225.198,106.230 224.836,106.115 224.952 C 106.000 225.067,106.422 225.263,107.053 225.387 C 107.684 225.511,108.968 225.790,109.906 226.006 C 110.844 226.223,112.203 226.400,112.926 226.400 C 113.649 226.400,114.411 226.560,114.620 226.757 C 114.829 226.953,116.170 227.232,117.600 227.377 C 119.030 227.521,121.550 227.810,123.200 228.018 C 134.238 229.407,142.397 229.934,157.400 230.225 C 164.220 230.358,169.971 230.631,170.180 230.833 C 170.389 231.035,170.806 231.200,171.107 231.200 C 172.153 231.200,174.338 233.255,175.166 235.017 C 177.143 239.222,175.129 243.758,170.469 245.598 C 168.747 246.277,143.381 245.571,133.587 244.571 L 130.974 244.304 131.134 249.755 C 131.222 252.797,131.127 255.426,130.918 255.703 C 130.713 255.976,130.303 256.965,130.008 257.900 C 129.713 258.835,129.321 259.600,129.136 259.600 C 128.951 259.600,128.800 259.829,128.800 260.108 C 128.800 261.567,121.911 267.600,120.246 267.600 C 119.916 267.600,119.555 267.750,119.442 267.932 C 119.085 268.510,113.884 269.299,111.800 269.092 C 101.871 268.107,95.088 260.791,95.027 251.000 C 94.999 246.483,95.141 245.838,97.074 241.705 C 98.081 239.553,98.037 238.800,96.905 238.800 C 96.548 238.800,95.704 238.633,95.028 238.429 C 94.353 238.225,92.450 237.663,90.800 237.181 C 87.382 236.181,85.748 235.659,84.600 235.199 C 84.160 235.022,82.720 234.480,81.400 233.993 C 80.080 233.507,78.415 232.859,77.700 232.554 C 76.985 232.250,75.725 231.712,74.900 231.360 C 65.002 227.136,50.519 219.265,49.300 217.447 C 45.732 212.129,49.864 205.032,56.125 205.722 C 57.721 205.898,60.648 207.179,68.808 211.275 C 74.642 214.204,79.952 216.816,80.608 217.080 C 81.263 217.344,82.700 217.948,83.800 218.422 C 85.901 219.326,88.595 220.306,92.600 221.623 C 94.871 222.369,95.607 222.578,99.700 223.642 C 100.635 223.885,101.813 224.245,102.319 224.442 C 102.824 224.639,103.814 224.784,104.519 224.764 L 105.800 224.728 104.400 224.359 C 103.630 224.156,101.560 223.608,99.800 223.142 C 96.380 222.237,87.526 219.405,86.200 218.792 C 85.760 218.589,83.420 217.592,81.000 216.575 C 78.580 215.559,72.765 212.752,68.078 210.338 C 60.853 206.616,56.473 204.688,55.600 204.845 C 55.490 204.864,54.728 205.039,53.906 205.233 M343.000 205.335 C 342.120 205.591,337.080 207.986,331.800 210.659 C 317.338 217.978,310.016 220.884,299.518 223.474 C 297.033 224.087,295.345 224.655,295.766 224.736 C 296.188 224.818,297.223 224.685,298.066 224.442 C 298.910 224.199,300.365 223.803,301.300 223.563 C 302.914 223.148,312.975 219.851,316.774 218.491 C 317.750 218.142,323.944 215.181,330.538 211.912 C 345.184 204.650,347.369 204.233,350.603 208.077 C 352.493 210.322,353.562 214.682,352.400 215.400 C 352.180 215.536,352.000 215.997,352.000 216.424 C 352.000 216.851,351.820 217.200,351.600 217.200 C 351.380 217.200,351.200 217.396,351.200 217.636 C 351.200 218.441,349.431 219.605,344.000 222.374 C 331.853 228.566,327.009 230.882,322.100 232.841 C 321.605 233.038,320.795 233.363,320.300 233.563 C 318.176 234.419,315.613 235.333,312.806 236.234 C 311.153 236.765,309.247 237.380,308.572 237.600 C 307.896 237.820,306.962 238.000,306.495 238.000 C 306.029 238.000,305.536 238.180,305.400 238.400 C 305.264 238.620,304.708 238.800,304.164 238.800 C 302.766 238.800,302.547 239.813,303.556 241.608 C 307.279 248.232,306.299 257.325,301.261 262.902 C 299.641 264.695,295.550 267.600,294.646 267.600 C 294.316 267.600,293.948 267.760,293.827 267.956 C 293.258 268.877,285.371 269.289,282.800 268.533 C 279.045 267.428,272.000 262.316,272.000 260.696 C 272.000 260.491,271.678 259.846,271.285 259.262 C 269.798 257.052,269.417 255.130,269.408 249.800 L 269.400 244.600 267.600 244.658 C 266.610 244.690,262.290 244.912,258.000 245.151 C 243.007 245.986,232.216 246.164,230.238 245.611 C 224.608 244.034,222.827 236.341,227.234 232.633 C 229.664 230.588,230.292 230.495,243.254 230.251 C 261.521 229.907,275.261 228.733,288.000 226.429 C 289.210 226.210,291.142 225.877,292.294 225.688 C 294.424 225.339,295.561 224.800,294.167 224.800 C 293.745 224.801,292.050 225.082,290.400 225.426 C 278.548 227.899,262.180 229.371,240.200 229.940 C 228.627 230.239,228.271 230.320,225.962 233.200 C 222.681 237.291,224.298 243.810,229.090 245.812 C 230.757 246.508,247.639 246.647,255.000 246.025 C 257.420 245.821,261.626 245.552,264.346 245.428 L 269.293 245.202 269.041 246.301 C 267.999 250.838,268.459 254.962,270.447 258.900 C 276.425 270.744,291.782 273.248,300.954 263.875 C 306.594 258.111,307.996 249.302,304.394 242.264 C 303.068 239.674,303.095 239.388,304.695 239.079 C 305.303 238.962,306.520 238.659,307.400 238.406 C 308.280 238.154,309.630 237.798,310.400 237.616 C 312.535 237.113,318.636 234.899,320.495 233.953 C 320.877 233.759,321.374 233.600,321.599 233.600 C 322.220 233.600,328.365 230.820,334.200 227.900 C 335.960 227.019,340.190 224.903,343.600 223.199 C 349.840 220.079,350.816 219.366,352.357 216.800 C 355.737 211.169,349.448 203.463,343.000 205.335 M187.000 307.066 C 186.120 307.135,181.710 307.383,177.200 307.617 C 160.318 308.491,150.357 310.190,144.171 313.248 C 138.480 316.061,137.584 320.963,142.027 324.977 C 145.274 327.910,149.768 329.556,158.967 331.182 C 162.817 331.862,237.640 331.732,242.200 331.037 C 258.050 328.621,266.589 320.328,258.866 314.850 C 257.195 313.664,254.824 312.399,254.288 312.407 C 254.020 312.411,254.789 312.959,255.997 313.625 C 258.581 315.049,260.400 316.690,260.400 317.595 C 260.400 317.950,260.574 318.414,260.786 318.626 C 262.920 320.760,257.109 326.580,251.000 328.427 C 250.120 328.693,249.040 329.054,248.600 329.228 C 247.703 329.584,246.364 329.840,242.000 330.492 C 235.010 331.535,156.039 331.033,155.364 329.941 C 155.248 329.754,154.632 329.600,153.995 329.600 C 153.359 329.600,152.424 329.439,151.919 329.242 C 151.413 329.045,150.190 328.648,149.200 328.360 C 143.817 326.796,139.600 322.916,139.600 319.527 C 139.600 313.917,150.293 310.168,171.600 308.307 C 179.320 307.632,221.766 307.649,228.800 308.329 C 240.150 309.426,245.425 310.234,250.258 311.617 C 253.387 312.511,253.743 312.555,253.400 312.000 C 253.264 311.780,252.801 311.600,252.371 311.600 C 251.941 311.600,251.277 311.436,250.895 311.235 C 250.261 310.903,248.701 310.551,243.600 309.589 C 234.342 307.843,216.347 306.744,199.000 306.867 C 193.280 306.907,187.880 306.996,187.000 307.066 " stroke="none" fill="#533d1b" fill-rule="evenodd"></path><path id="path2" d="M185.609 0.273 C 182.204 0.355,179.243 0.597,179.029 0.811 C 178.815 1.025,177.337 1.200,175.744 1.200 C 174.151 1.200,172.736 1.380,172.600 1.600 C 172.464 1.820,171.204 2.000,169.800 2.000 C 168.396 2.000,167.136 2.180,167.000 2.400 C 166.864 2.620,165.964 2.800,165.000 2.800 C 164.036 2.800,163.136 2.980,163.000 3.200 C 162.864 3.420,161.953 3.600,160.976 3.600 C 159.999 3.600,159.200 3.780,159.200 4.000 C 159.200 4.220,158.300 4.400,157.200 4.400 C 156.100 4.400,155.200 4.580,155.200 4.800 C 155.200 5.020,154.480 5.200,153.600 5.200 C 152.720 5.200,152.000 5.380,152.000 5.600 C 152.000 5.820,151.280 6.000,150.400 6.000 C 149.520 6.000,148.800 6.180,148.800 6.400 C 148.800 6.620,148.260 6.800,147.600 6.800 C 146.940 6.800,146.400 6.980,146.400 7.200 C 146.400 7.420,145.680 7.600,144.800 7.600 C 143.920 7.600,143.200 7.780,143.200 8.000 C 143.200 8.220,142.660 8.400,142.000 8.400 C 141.340 8.400,140.800 8.580,140.800 8.800 C 140.800 9.020,140.080 9.200,139.200 9.200 C 138.320 9.200,137.600 9.380,137.600 9.600 C 137.600 9.820,137.240 10.000,136.800 10.000 C 136.360 10.000,136.000 10.180,136.000 10.400 C 136.000 10.620,135.280 10.800,134.400 10.800 C 133.520 10.800,132.800 10.980,132.800 11.200 C 132.800 11.420,132.440 11.600,132.000 11.600 C 131.560 11.600,131.200 11.780,131.200 12.000 C 131.200 12.220,130.660 12.400,130.000 12.400 C 129.340 12.400,128.800 12.580,128.800 12.800 C 128.800 13.020,128.260 13.200,127.600 13.200 C 126.940 13.200,126.400 13.380,126.400 13.600 C 126.400 13.820,126.040 14.000,125.600 14.000 C 125.160 14.000,124.799 14.135,124.797 14.300 C 124.792 14.747,122.774 15.600,121.720 15.600 C 121.214 15.600,120.800 15.780,120.800 16.000 C 120.800 16.220,120.440 16.400,120.000 16.400 C 119.560 16.400,119.199 16.535,119.197 16.700 C 119.192 17.147,117.174 18.000,116.120 18.000 C 115.614 18.000,115.200 18.180,115.200 18.400 C 115.200 18.620,114.840 18.800,114.400 18.800 C 113.960 18.800,113.600 18.980,113.600 19.200 C 113.600 19.420,113.240 19.600,112.800 19.600 C 112.360 19.600,112.000 19.780,112.000 20.000 C 112.000 20.220,111.640 20.400,111.200 20.400 C 110.760 20.400,110.400 20.580,110.400 20.800 C 110.400 21.020,110.040 21.200,109.600 21.200 C 109.160 21.200,108.800 21.380,108.800 21.600 C 108.800 21.820,108.440 22.000,108.000 22.000 C 107.560 22.000,107.200 22.180,107.200 22.400 C 107.200 22.620,106.880 22.800,106.488 22.800 C 106.097 22.800,105.517 23.160,105.200 23.600 C 104.883 24.040,104.303 24.400,103.912 24.400 C 103.520 24.400,103.200 24.580,103.200 24.800 C 103.200 25.020,102.840 25.200,102.400 25.200 C 101.960 25.200,101.600 25.380,101.600 25.600 C 101.600 25.820,101.240 26.000,100.800 26.000 C 100.360 26.000,100.000 26.180,100.000 26.400 C 100.000 26.620,99.680 26.800,99.288 26.800 C 98.897 26.800,98.317 27.160,98.000 27.600 C 97.683 28.040,97.143 28.400,96.800 28.400 C 96.457 28.400,95.917 28.760,95.600 29.200 C 95.283 29.640,94.703 30.000,94.312 30.000 C 93.920 30.000,93.600 30.180,93.600 30.400 C 93.600 30.620,93.280 30.800,92.888 30.800 C 92.497 30.800,91.917 31.160,91.600 31.600 C 91.283 32.040,90.743 32.400,90.400 32.400 C 90.057 32.400,89.517 32.760,89.200 33.200 C 88.883 33.640,88.343 34.000,88.000 34.000 C 87.657 34.000,87.117 34.360,86.800 34.800 C 86.483 35.240,85.943 35.600,85.600 35.600 C 85.257 35.600,84.717 35.960,84.400 36.400 C 84.083 36.840,83.575 37.200,83.272 37.200 C 82.969 37.200,82.217 37.740,81.600 38.400 C 80.983 39.060,80.263 39.600,80.000 39.600 C 79.737 39.600,79.017 40.140,78.400 40.800 C 77.783 41.460,77.070 42.000,76.814 42.000 C 76.558 42.000,75.471 42.900,74.400 44.000 C 73.329 45.100,72.276 46.000,72.061 46.000 C 71.846 46.000,70.573 47.080,69.232 48.400 C 67.892 49.720,66.661 50.802,66.497 50.804 C 66.334 50.807,65.324 51.617,64.253 52.604 C 63.182 53.592,62.419 54.400,62.557 54.400 C 62.696 54.400,60.962 56.261,58.704 58.536 C 56.447 60.811,54.530 62.616,54.445 62.548 C 54.232 62.377,50.810 66.121,50.804 66.530 C 50.802 66.712,49.540 68.131,48.000 69.683 C 46.460 71.235,45.200 72.679,45.200 72.892 C 45.200 73.105,44.660 73.783,44.000 74.400 C 43.340 75.017,42.800 75.733,42.800 75.992 C 42.800 76.251,42.080 77.154,41.200 78.000 C 40.320 78.846,39.600 79.749,39.600 80.008 C 39.600 80.267,39.060 80.983,38.400 81.600 C 37.740 82.217,37.200 82.969,37.200 83.272 C 37.200 83.575,36.840 84.083,36.400 84.400 C 35.960 84.717,35.600 85.257,35.600 85.600 C 35.600 85.943,35.240 86.483,34.800 86.800 C 34.360 87.117,34.000 87.657,34.000 88.000 C 34.000 88.343,33.640 88.883,33.200 89.200 C 32.760 89.517,32.400 90.057,32.400 90.400 C 32.400 90.743,32.040 91.283,31.600 91.600 C 31.160 91.917,30.800 92.457,30.800 92.800 C 30.800 93.143,30.440 93.683,30.000 94.000 C 29.560 94.317,29.200 94.897,29.200 95.288 C 29.200 95.680,29.020 96.000,28.800 96.000 C 28.580 96.000,28.400 96.320,28.400 96.712 C 28.400 97.103,28.040 97.683,27.600 98.000 C 27.160 98.317,26.800 98.897,26.800 99.288 C 26.800 99.680,26.620 100.000,26.400 100.000 C 26.180 100.000,26.000 100.360,26.000 100.800 C 26.000 101.240,25.820 101.600,25.600 101.600 C 25.380 101.600,25.200 101.920,25.200 102.312 C 25.200 102.703,24.840 103.283,24.400 103.600 C 23.960 103.917,23.600 104.497,23.600 104.888 C 23.600 105.280,23.420 105.600,23.200 105.600 C 22.980 105.600,22.800 105.960,22.800 106.400 C 22.800 106.840,22.620 107.200,22.400 107.200 C 22.180 107.200,22.000 107.560,22.000 108.000 C 22.000 108.440,21.820 108.800,21.600 108.800 C 21.380 108.800,21.200 109.160,21.200 109.600 C 21.200 110.040,21.020 110.400,20.800 110.400 C 20.580 110.400,20.400 110.760,20.400 111.200 C 20.400 111.640,20.220 112.000,20.000 112.000 C 19.780 112.000,19.600 112.360,19.600 112.800 C 19.600 113.240,19.420 113.600,19.200 113.600 C 18.980 113.600,18.800 113.960,18.800 114.400 C 18.800 114.840,18.620 115.200,18.400 115.200 C 18.180 115.200,18.000 115.614,18.000 116.120 C 18.000 117.174,17.147 119.192,16.700 119.197 C 16.535 119.199,16.400 119.560,16.400 120.000 C 16.400 120.440,16.220 120.800,16.000 120.800 C 15.780 120.800,15.600 121.160,15.600 121.600 C 15.600 122.040,15.420 122.400,15.200 122.400 C 14.980 122.400,14.800 122.940,14.800 123.600 C 14.800 124.260,14.620 124.800,14.400 124.800 C 14.180 124.800,14.000 125.160,14.000 125.600 C 14.000 126.040,13.820 126.400,13.600 126.400 C 13.380 126.400,13.200 126.940,13.200 127.600 C 13.200 128.260,13.020 128.800,12.800 128.800 C 12.580 128.800,12.400 129.340,12.400 130.000 C 12.400 130.660,12.220 131.200,12.000 131.200 C 11.780 131.200,11.600 131.560,11.600 132.000 C 11.600 132.440,11.420 132.800,11.200 132.800 C 10.980 132.800,10.800 133.340,10.800 134.000 C 10.800 134.660,10.620 135.200,10.400 135.200 C 10.180 135.200,10.000 135.740,10.000 136.400 C 10.000 137.060,9.820 137.600,9.600 137.600 C 9.380 137.600,9.200 138.320,9.200 139.200 C 9.200 140.080,9.020 140.800,8.800 140.800 C 8.580 140.800,8.400 141.340,8.400 142.000 C 8.400 142.660,8.220 143.200,8.000 143.200 C 7.780 143.200,7.600 143.740,7.600 144.400 C 7.600 145.060,7.420 145.600,7.200 145.600 C 6.980 145.600,6.800 146.320,6.800 147.200 C 6.800 148.080,6.620 148.800,6.400 148.800 C 6.180 148.800,6.000 149.520,6.000 150.400 C 6.000 151.280,5.820 152.000,5.600 152.000 C 5.380 152.000,5.200 152.720,5.200 153.600 C 5.200 154.480,5.020 155.200,4.800 155.200 C 4.580 155.200,4.400 156.100,4.400 157.200 C 4.400 158.300,4.220 159.200,4.000 159.200 C 3.780 159.200,3.600 159.999,3.600 160.976 C 3.600 161.953,3.420 162.864,3.200 163.000 C 2.980 163.136,2.800 164.036,2.800 165.000 C 2.800 165.964,2.620 166.864,2.400 167.000 C 2.180 167.136,2.000 168.396,2.000 169.800 C 2.000 171.204,1.820 172.464,1.600 172.600 C 1.380 172.736,1.200 174.151,1.200 175.744 C 1.200 177.495,1.006 178.834,0.710 179.130 C -0.006 179.846,-0.011 220.863,0.705 221.102 C 1.046 221.215,1.200 222.309,1.200 224.610 C 1.200 226.448,1.380 228.064,1.600 228.200 C 1.820 228.336,2.000 229.517,2.000 230.824 C 2.000 232.141,2.178 233.200,2.400 233.200 C 2.620 233.200,2.800 234.179,2.800 235.376 C 2.800 236.573,2.980 237.664,3.200 237.800 C 3.420 237.936,3.600 238.836,3.600 239.800 C 3.600 240.764,3.780 241.664,4.000 241.800 C 4.220 241.936,4.400 242.836,4.400 243.800 C 4.400 244.764,4.580 245.664,4.800 245.800 C 5.020 245.936,5.200 246.656,5.200 247.400 C 5.200 248.144,5.380 248.864,5.600 249.000 C 5.820 249.136,6.000 249.867,6.000 250.624 C 6.000 251.381,6.180 252.000,6.400 252.000 C 6.620 252.000,6.800 252.540,6.800 253.200 C 6.800 253.860,6.980 254.400,7.200 254.400 C 7.420 254.400,7.600 255.120,7.600 256.000 C 7.600 256.880,7.780 257.600,8.000 257.600 C 8.220 257.600,8.400 257.870,8.400 258.200 C 8.400 258.530,8.220 258.800,8.000 258.800 C 7.780 258.800,7.600 259.070,7.600 259.400 C 7.600 259.733,7.956 260.000,8.400 260.000 C 9.022 260.000,9.200 260.267,9.200 261.200 C 9.200 261.860,9.380 262.400,9.600 262.400 C 9.820 262.400,10.000 263.120,10.000 264.000 C 10.000 264.880,10.180 265.600,10.400 265.600 C 10.620 265.600,10.800 265.960,10.800 266.400 C 10.800 266.840,10.980 267.200,11.200 267.200 C 11.420 267.200,11.600 267.740,11.600 268.400 C 11.600 269.060,11.780 269.600,12.000 269.600 C 12.220 269.600,12.400 270.140,12.400 270.800 C 12.400 271.460,12.580 272.000,12.800 272.000 C 13.020 272.000,13.200 272.360,13.200 272.800 C 13.200 273.240,13.380 273.600,13.600 273.600 C 13.820 273.600,14.000 274.140,14.000 274.800 C 14.000 275.460,14.180 276.000,14.400 276.000 C 14.620 276.000,14.800 276.360,14.800 276.800 C 14.800 277.240,14.980 277.600,15.200 277.600 C 15.420 277.600,15.600 278.140,15.600 278.800 C 15.600 279.460,15.780 280.000,16.000 280.000 C 16.220 280.000,16.400 280.360,16.400 280.800 C 16.400 281.240,16.580 281.600,16.800 281.600 C 17.020 281.600,17.200 281.960,17.200 282.400 C 17.200 282.840,17.380 283.200,17.600 283.200 C 17.820 283.200,18.000 283.560,18.000 284.000 C 18.000 284.440,18.180 284.800,18.400 284.800 C 18.620 284.800,18.800 285.160,18.800 285.600 C 18.800 286.040,18.980 286.400,19.200 286.400 C 19.420 286.400,19.600 286.940,19.600 287.600 C 19.600 288.260,19.780 288.800,20.000 288.800 C 20.220 288.800,20.400 289.160,20.400 289.600 C 20.400 290.040,20.580 290.400,20.800 290.400 C 21.020 290.400,21.200 290.720,21.200 291.112 C 21.200 291.503,21.560 292.083,22.000 292.400 C 22.440 292.717,22.800 293.297,22.800 293.688 C 22.800 294.080,22.980 294.400,23.200 294.400 C 23.420 294.400,23.600 294.760,23.600 295.200 C 23.600 295.640,23.780 296.000,24.000 296.000 C 24.220 296.000,24.400 296.360,24.400 296.800 C 24.400 297.240,24.580 297.600,24.800 297.600 C 25.020 297.600,25.200 297.960,25.200 298.400 C 25.200 298.840,25.380 299.200,25.600 299.200 C 25.820 299.200,26.000 299.520,26.000 299.912 C 26.000 300.303,26.360 300.883,26.800 301.200 C 27.240 301.517,27.600 302.097,27.600 302.488 C 27.600 302.880,27.780 303.200,28.000 303.200 C 28.220 303.200,28.400 303.520,28.400 303.912 C 28.400 304.303,28.760 304.883,29.200 305.200 C 29.640 305.517,30.000 306.057,30.000 306.400 C 30.000 306.743,30.360 307.283,30.800 307.600 C 31.240 307.917,31.600 308.497,31.600 308.888 C 31.600 309.280,31.780 309.600,32.000 309.600 C 32.220 309.600,32.400 309.920,32.400 310.312 C 32.400 310.703,32.760 311.283,33.200 311.600 C 33.640 311.917,34.000 312.425,34.000 312.728 C 34.000 313.031,34.540 313.783,35.200 314.400 C 35.860 315.017,36.400 315.769,36.400 316.072 C 36.400 316.375,36.760 316.883,37.200 317.200 C 37.640 317.517,38.000 318.025,38.000 318.328 C 38.000 318.631,38.540 319.383,39.200 320.000 C 39.860 320.617,40.400 321.337,40.400 321.600 C 40.400 321.863,40.940 322.583,41.600 323.200 C 42.260 323.817,42.800 324.530,42.800 324.786 C 42.800 325.042,43.700 326.129,44.800 327.200 C 45.900 328.271,46.800 329.347,46.800 329.591 C 46.800 329.835,48.240 331.459,50.000 333.200 C 51.760 334.941,53.200 336.543,53.200 336.761 C 53.200 337.237,60.723 344.771,64.357 347.932 C 65.790 349.179,67.668 350.875,68.530 351.700 C 69.391 352.525,70.254 353.200,70.446 353.200 C 70.639 353.200,71.715 354.100,72.839 355.200 C 73.962 356.300,75.061 357.200,75.280 357.200 C 75.499 357.200,76.183 357.740,76.800 358.400 C 77.417 359.060,78.137 359.600,78.400 359.600 C 78.663 359.600,79.383 360.140,80.000 360.800 C 80.617 361.460,81.337 362.000,81.600 362.000 C 81.863 362.000,82.583 362.540,83.200 363.200 C 83.817 363.860,84.569 364.400,84.872 364.400 C 85.175 364.400,85.683 364.760,86.000 365.200 C 86.317 365.640,86.857 366.000,87.200 366.000 C 87.543 366.000,88.083 366.360,88.400 366.800 C 88.717 367.240,89.257 367.600,89.600 367.600 C 89.943 367.600,90.483 367.960,90.800 368.400 C 91.117 368.840,91.657 369.200,92.000 369.200 C 92.343 369.200,92.883 369.560,93.200 370.000 C 93.517 370.440,94.057 370.800,94.400 370.800 C 94.743 370.800,95.283 371.160,95.600 371.600 C 95.917 372.040,96.497 372.400,96.888 372.400 C 97.280 372.400,97.600 372.580,97.600 372.800 C 97.600 373.020,97.960 373.200,98.400 373.200 C 98.840 373.200,99.200 373.380,99.200 373.600 C 99.200 373.820,99.520 374.000,99.912 374.000 C 100.303 374.000,100.883 374.360,101.200 374.800 C 101.517 375.240,102.097 375.600,102.488 375.600 C 102.880 375.600,103.200 375.780,103.200 376.000 C 103.200 376.220,103.560 376.400,104.000 376.400 C 104.440 376.400,104.800 376.580,104.800 376.800 C 104.800 377.020,105.160 377.200,105.600 377.200 C 106.040 377.200,106.400 377.380,106.400 377.600 C 106.400 377.820,106.760 378.000,107.200 378.000 C 107.640 378.000,108.000 378.180,108.000 378.400 C 108.000 378.620,108.360 378.800,108.800 378.800 C 109.240 378.800,109.600 378.980,109.600 379.200 C 109.600 379.420,109.960 379.600,110.400 379.600 C 110.840 379.600,111.200 379.780,111.200 380.000 C 111.200 380.220,111.560 380.400,112.000 380.400 C 112.440 380.400,112.800 380.580,112.800 380.800 C 112.800 381.020,113.160 381.200,113.600 381.200 C 114.040 381.200,114.400 381.380,114.400 381.600 C 114.400 381.820,114.760 382.000,115.200 382.000 C 115.640 382.000,116.000 382.180,116.000 382.400 C 116.000 382.620,116.360 382.800,116.800 382.800 C 117.240 382.800,117.600 382.980,117.600 383.200 C 117.600 383.420,118.140 383.600,118.800 383.600 C 119.460 383.600,120.000 383.780,120.000 384.000 C 120.000 384.220,120.360 384.400,120.800 384.400 C 121.240 384.400,121.600 384.580,121.600 384.800 C 121.600 385.020,121.960 385.200,122.400 385.200 C 122.840 385.200,123.200 385.380,123.200 385.600 C 123.200 385.820,123.740 386.000,124.400 386.000 C 125.060 386.000,125.600 386.180,125.600 386.400 C 125.600 386.620,125.960 386.800,126.400 386.800 C 126.840 386.800,127.200 386.980,127.200 387.200 C 127.200 387.420,127.740 387.600,128.400 387.600 C 129.060 387.600,129.600 387.780,129.600 388.000 C 129.600 388.220,130.140 388.400,130.800 388.400 C 131.460 388.400,132.000 388.580,132.000 388.800 C 132.000 389.020,132.360 389.200,132.800 389.200 C 133.240 389.200,133.600 389.380,133.600 389.600 C 133.600 389.820,134.140 390.000,134.800 390.000 C 135.460 390.000,136.000 390.180,136.000 390.400 C 136.000 390.620,136.540 390.800,137.200 390.800 C 137.860 390.800,138.400 390.980,138.400 391.200 C 138.400 391.420,139.120 391.600,140.000 391.600 C 140.880 391.600,141.600 391.780,141.600 392.000 C 141.600 392.220,142.140 392.400,142.800 392.400 C 143.460 392.400,144.000 392.580,144.000 392.800 C 144.000 393.020,144.720 393.200,145.600 393.200 C 146.480 393.200,147.200 393.380,147.200 393.600 C 147.200 393.820,147.740 394.000,148.400 394.000 C 149.060 394.000,149.600 394.180,149.600 394.400 C 149.600 394.620,150.500 394.800,151.600 394.800 C 152.700 394.800,153.600 394.980,153.600 395.200 C 153.600 395.420,154.140 395.600,154.800 395.600 C 155.460 395.600,156.000 395.780,156.000 396.000 C 156.000 396.220,156.900 396.400,158.000 396.400 C 159.100 396.400,160.000 396.580,160.000 396.800 C 160.000 397.020,160.799 397.200,161.776 397.200 C 162.753 397.200,163.664 397.380,163.800 397.600 C 163.936 397.820,165.207 398.000,166.624 398.000 C 168.075 398.000,169.200 398.175,169.200 398.400 C 169.200 398.621,170.240 398.800,171.520 398.800 C 172.843 398.800,174.055 399.015,174.340 399.300 C 174.729 399.689,180.405 399.800,200.000 399.800 C 219.595 399.800,225.271 399.689,225.660 399.300 C 225.962 398.998,227.237 398.800,228.880 398.800 C 230.427 398.800,231.600 398.627,231.600 398.400 C 231.600 398.178,232.667 398.000,234.000 398.000 C 235.333 398.000,236.400 397.822,236.400 397.600 C 236.400 397.380,237.300 397.200,238.400 397.200 C 239.500 397.200,240.400 397.020,240.400 396.800 C 240.400 396.580,241.300 396.400,242.400 396.400 C 243.500 396.400,244.400 396.220,244.400 396.000 C 244.400 395.780,245.120 395.600,246.000 395.600 C 246.880 395.600,247.600 395.420,247.600 395.200 C 247.600 394.980,248.410 394.800,249.400 394.800 C 250.390 394.800,251.200 394.620,251.200 394.400 C 251.200 394.180,251.740 394.000,252.400 394.000 C 253.060 394.000,253.600 393.820,253.600 393.600 C 253.600 393.380,254.320 393.200,255.200 393.200 C 256.080 393.200,256.800 393.020,256.800 392.800 C 256.800 392.580,257.340 392.400,258.000 392.400 C 258.660 392.400,259.200 392.220,259.200 392.000 C 259.200 391.780,259.740 391.600,260.400 391.600 C 261.060 391.600,261.600 391.420,261.600 391.200 C 261.600 390.980,262.140 390.800,262.800 390.800 C 263.460 390.800,264.000 390.620,264.000 390.400 C 264.000 390.180,264.540 390.000,265.200 390.000 C 265.860 390.000,266.400 389.820,266.400 389.600 C 266.400 389.380,266.940 389.200,267.600 389.200 C 268.260 389.200,268.800 389.020,268.800 388.800 C 268.800 388.580,269.340 388.400,270.000 388.400 C 270.660 388.400,271.200 388.220,271.200 388.000 C 271.200 387.780,271.740 387.600,272.400 387.600 C 273.060 387.600,273.600 387.420,273.600 387.200 C 273.600 386.980,273.960 386.800,274.400 386.800 C 274.840 386.800,275.200 386.620,275.200 386.400 C 275.200 386.180,275.560 386.000,276.000 386.000 C 276.440 386.000,276.800 385.820,276.800 385.600 C 276.800 385.380,277.340 385.200,278.000 385.200 C 278.660 385.200,279.200 385.020,279.200 384.800 C 279.200 384.580,279.560 384.400,280.000 384.400 C 280.440 384.400,280.800 384.220,280.800 384.000 C 280.800 383.780,281.160 383.600,281.600 383.600 C 282.040 383.600,282.400 383.420,282.400 383.200 C 282.400 382.980,282.940 382.800,283.600 382.800 C 284.260 382.800,284.800 382.620,284.800 382.400 C 284.800 382.180,285.160 382.000,285.600 382.000 C 286.040 382.000,286.400 381.820,286.400 381.600 C 286.400 381.380,286.760 381.200,287.200 381.200 C 287.640 381.200,288.000 381.020,288.000 380.800 C 288.000 380.580,288.360 380.400,288.800 380.400 C 289.240 380.400,289.600 380.220,289.600 380.000 C 289.600 379.780,289.960 379.600,290.400 379.600 C 290.840 379.600,291.200 379.420,291.200 379.200 C 291.200 378.980,291.560 378.800,292.000 378.800 C 292.440 378.800,292.800 378.620,292.800 378.400 C 292.800 378.180,293.160 378.000,293.600 378.000 C 294.040 378.000,294.400 377.820,294.400 377.600 C 294.400 377.380,294.720 377.200,295.112 377.200 C 295.503 377.200,296.083 376.840,296.400 376.400 C 296.717 375.960,297.297 375.600,297.688 375.600 C 298.080 375.600,298.400 375.420,298.400 375.200 C 298.400 374.980,298.760 374.800,299.200 374.800 C 299.640 374.800,300.000 374.620,300.000 374.400 C 300.000 374.180,300.320 374.000,300.712 374.000 C 301.103 374.000,301.683 373.640,302.000 373.200 C 302.317 372.760,302.897 372.400,303.288 372.400 C 303.680 372.400,304.000 372.220,304.000 372.000 C 304.000 371.780,304.320 371.600,304.712 371.600 C 305.103 371.600,305.683 371.240,306.000 370.800 C 306.317 370.360,306.897 370.000,307.288 370.000 C 307.680 370.000,308.000 369.820,308.000 369.600 C 308.000 369.380,308.288 369.200,308.640 369.200 C 308.991 369.200,309.783 368.660,310.400 368.000 C 311.017 367.340,311.769 366.800,312.072 366.800 C 312.375 366.800,312.883 366.440,313.200 366.000 C 313.517 365.560,314.057 365.200,314.400 365.200 C 314.743 365.200,315.283 364.840,315.600 364.400 C 315.917 363.960,316.425 363.600,316.728 363.600 C 317.031 363.600,317.783 363.060,318.400 362.400 C 319.017 361.740,319.737 361.200,320.000 361.200 C 320.263 361.200,320.983 360.660,321.600 360.000 C 322.217 359.340,322.937 358.800,323.200 358.800 C 323.463 358.800,324.183 358.260,324.800 357.600 C 325.417 356.940,326.130 356.400,326.386 356.400 C 326.642 356.400,327.729 355.500,328.800 354.400 C 329.871 353.300,330.931 352.400,331.155 352.400 C 332.190 352.400,351.600 332.999,351.600 331.964 C 351.600 331.740,352.680 330.496,354.000 329.200 C 355.320 327.904,356.400 326.637,356.400 326.383 C 356.400 326.129,356.940 325.417,357.600 324.800 C 358.260 324.183,358.800 323.463,358.800 323.200 C 358.800 322.937,359.340 322.217,360.000 321.600 C 360.660 320.983,361.200 320.263,361.200 320.000 C 361.200 319.737,361.740 319.017,362.400 318.400 C 363.060 317.783,363.600 317.063,363.600 316.800 C 363.600 316.537,364.140 315.817,364.800 315.200 C 365.460 314.583,366.000 313.831,366.000 313.528 C 366.000 313.225,366.360 312.717,366.800 312.400 C 367.240 312.083,367.600 311.543,367.600 311.200 C 367.600 310.857,367.960 310.317,368.400 310.000 C 368.840 309.683,369.200 309.103,369.200 308.712 C 369.200 308.320,369.380 308.000,369.600 308.000 C 369.820 308.000,370.000 307.680,370.000 307.288 C 370.000 306.897,370.360 306.317,370.800 306.000 C 371.240 305.683,371.600 305.103,371.600 304.712 C 371.600 304.320,371.780 304.000,372.000 304.000 C 372.220 304.000,372.400 303.680,372.400 303.288 C 372.400 302.897,372.760 302.317,373.200 302.000 C 373.640 301.683,374.000 301.103,374.000 300.712 C 374.000 300.320,374.180 300.000,374.400 300.000 C 374.620 300.000,374.800 299.640,374.800 299.200 C 374.800 298.760,374.980 298.400,375.200 298.400 C 375.420 298.400,375.600 298.080,375.600 297.688 C 375.600 297.297,375.960 296.717,376.400 296.400 C 376.840 296.083,377.200 295.503,377.200 295.112 C 377.200 294.720,377.380 294.400,377.600 294.400 C 377.820 294.400,378.000 294.040,378.000 293.600 C 378.000 293.160,378.180 292.800,378.400 292.800 C 378.620 292.800,378.800 292.440,378.800 292.000 C 378.800 291.560,378.980 291.200,379.200 291.200 C 379.420 291.200,379.600 290.840,379.600 290.400 C 379.600 289.960,379.780 289.600,380.000 289.600 C 380.220 289.600,380.400 289.240,380.400 288.800 C 380.400 288.360,380.580 288.000,380.800 288.000 C 381.020 288.000,381.200 287.640,381.200 287.200 C 381.200 286.760,381.380 286.400,381.600 286.400 C 381.820 286.400,382.000 285.860,382.000 285.200 C 382.000 284.540,382.180 284.000,382.400 284.000 C 382.620 284.000,382.800 283.640,382.800 283.200 C 382.800 282.760,382.980 282.400,383.200 282.400 C 383.420 282.400,383.600 282.040,383.600 281.600 C 383.600 281.160,383.780 280.800,384.000 280.800 C 384.220 280.800,384.400 280.440,384.400 280.000 C 384.400 279.560,384.580 279.200,384.800 279.200 C 385.020 279.200,385.200 278.660,385.200 278.000 C 385.200 277.067,385.378 276.800,386.000 276.800 C 386.693 276.800,386.800 276.533,386.800 274.800 C 386.800 273.700,386.980 272.800,387.200 272.800 C 387.420 272.800,387.600 272.440,387.600 272.000 C 387.600 271.560,387.780 271.200,388.000 271.200 C 388.220 271.200,388.400 270.660,388.400 270.000 C 388.400 269.340,388.580 268.800,388.800 268.800 C 389.020 268.800,389.200 268.260,389.200 267.600 C 389.200 266.940,389.380 266.400,389.600 266.400 C 389.820 266.400,390.000 266.040,390.000 265.600 C 390.000 265.160,390.180 264.800,390.400 264.800 C 390.620 264.800,390.800 264.080,390.800 263.200 C 390.800 262.320,390.980 261.600,391.200 261.600 C 391.420 261.600,391.600 261.060,391.600 260.400 C 391.600 259.740,391.780 259.200,392.000 259.200 C 392.220 259.200,392.400 258.660,392.400 258.000 C 392.400 257.340,392.580 256.800,392.800 256.800 C 393.020 256.800,393.200 256.080,393.200 255.200 C 393.200 254.320,393.380 253.600,393.600 253.600 C 393.820 253.600,394.000 252.880,394.000 252.000 C 394.000 251.120,394.180 250.400,394.400 250.400 C 394.620 250.400,394.800 249.770,394.800 249.000 C 394.800 248.230,394.980 247.600,395.200 247.600 C 395.420 247.600,395.600 246.880,395.600 246.000 C 395.600 245.120,395.780 244.400,396.000 244.400 C 396.220 244.400,396.400 243.691,396.400 242.824 C 396.400 241.957,396.580 241.136,396.800 241.000 C 397.020 240.864,397.200 239.773,397.200 238.576 C 397.200 237.379,397.380 236.400,397.600 236.400 C 397.822 236.400,398.000 235.333,398.000 234.000 C 398.000 232.667,398.178 231.600,398.400 231.600 C 398.627 231.600,398.800 230.427,398.800 228.880 C 398.800 227.237,398.998 225.962,399.300 225.660 C 399.689 225.271,399.800 219.617,399.800 200.113 C 399.800 180.432,399.693 175.031,399.300 174.900 C 398.960 174.787,398.800 173.789,398.800 171.790 C 398.800 170.172,398.620 168.736,398.400 168.600 C 398.180 168.464,398.000 167.463,398.000 166.376 C 398.000 165.289,397.820 164.400,397.600 164.400 C 397.380 164.400,397.200 163.410,397.200 162.200 C 397.200 160.990,397.020 160.000,396.800 160.000 C 396.580 160.000,396.400 159.280,396.400 158.400 C 396.400 157.520,396.220 156.800,396.000 156.800 C 395.780 156.800,395.600 155.900,395.600 154.800 C 395.600 153.700,395.420 152.800,395.200 152.800 C 394.980 152.800,394.800 152.080,394.800 151.200 C 394.800 150.320,394.620 149.600,394.400 149.600 C 394.180 149.600,394.000 149.060,394.000 148.400 C 394.000 147.740,393.820 147.200,393.600 147.200 C 393.380 147.200,393.200 146.480,393.200 145.600 C 393.200 144.720,393.020 144.000,392.800 144.000 C 392.580 144.000,392.400 143.280,392.400 142.400 C 392.400 141.520,392.220 140.800,392.000 140.800 C 391.780 140.800,391.600 140.260,391.600 139.600 C 391.600 138.940,391.420 138.400,391.200 138.400 C 390.980 138.400,390.800 137.860,390.800 137.200 C 390.800 136.540,390.620 136.000,390.400 136.000 C 390.180 136.000,390.000 135.460,390.000 134.800 C 390.000 134.140,389.820 133.600,389.600 133.600 C 389.380 133.600,389.200 133.240,389.200 132.800 C 389.200 132.360,389.020 132.000,388.800 132.000 C 388.580 132.000,388.400 131.460,388.400 130.800 C 388.400 130.140,388.220 129.600,388.000 129.600 C 387.780 129.600,387.600 129.060,387.600 128.400 C 387.600 127.740,387.420 127.200,387.200 127.200 C 386.980 127.200,386.800 126.840,386.800 126.400 C 386.800 125.960,386.620 125.600,386.400 125.600 C 386.180 125.600,386.000 125.060,386.000 124.400 C 386.000 123.740,385.820 123.200,385.600 123.200 C 385.380 123.200,385.200 122.840,385.200 122.400 C 385.200 121.960,385.020 121.600,384.800 121.600 C 384.580 121.600,384.400 121.240,384.400 120.800 C 384.400 120.360,384.220 120.000,384.000 120.000 C 383.780 120.000,383.600 119.460,383.600 118.800 C 383.600 118.140,383.420 117.600,383.200 117.600 C 382.980 117.600,382.800 117.240,382.800 116.800 C 382.800 116.360,382.620 116.000,382.400 116.000 C 382.180 116.000,382.000 115.640,382.000 115.200 C 382.000 114.760,381.820 114.400,381.600 114.400 C 381.380 114.400,381.200 114.040,381.200 113.600 C 381.200 113.160,381.020 112.800,380.800 112.800 C 380.580 112.800,380.400 112.440,380.400 112.000 C 380.400 111.560,380.220 111.200,380.000 111.200 C 379.780 111.200,379.600 110.840,379.600 110.400 C 379.600 109.960,379.420 109.600,379.200 109.600 C 378.980 109.600,378.800 109.240,378.800 108.800 C 378.800 108.360,378.620 108.000,378.400 108.000 C 378.180 108.000,378.000 107.640,378.000 107.200 C 378.000 106.760,377.820 106.400,377.600 106.400 C 377.380 106.400,377.200 106.040,377.200 105.600 C 377.200 105.160,377.020 104.800,376.800 104.800 C 376.580 104.800,376.400 104.480,376.400 104.088 C 376.400 103.697,376.040 103.117,375.600 102.800 C 375.160 102.483,374.800 101.903,374.800 101.512 C 374.800 101.120,374.620 100.800,374.400 100.800 C 374.180 100.800,374.000 100.440,374.000 100.000 C 374.000 99.560,373.820 99.200,373.600 99.200 C 373.380 99.200,373.200 98.840,373.200 98.400 C 373.200 97.960,373.020 97.600,372.800 97.600 C 372.580 97.600,372.400 97.280,372.400 96.888 C 372.400 96.497,372.040 95.917,371.600 95.600 C 371.160 95.283,370.800 94.743,370.800 94.400 C 370.800 94.057,370.440 93.517,370.000 93.200 C 369.560 92.883,369.200 92.343,369.200 92.000 C 369.200 91.657,368.840 91.117,368.400 90.800 C 367.960 90.483,367.600 89.943,367.600 89.600 C 367.600 89.257,367.240 88.717,366.800 88.400 C 366.360 88.083,366.000 87.543,366.000 87.200 C 366.000 86.857,365.640 86.317,365.200 86.000 C 364.760 85.683,364.400 85.175,364.400 84.872 C 364.400 84.569,363.860 83.817,363.200 83.200 C 362.540 82.583,362.000 81.835,362.000 81.536 C 362.000 81.237,361.640 80.768,361.200 80.493 C 360.760 80.218,360.400 79.718,360.400 79.381 C 360.400 79.044,359.680 78.083,358.800 77.246 C 357.920 76.409,357.200 75.561,357.200 75.362 C 357.199 74.775,355.343 72.791,355.060 73.074 C 354.917 73.217,354.800 73.023,354.800 72.643 C 354.800 72.263,354.647 72.047,354.460 72.163 C 354.273 72.278,353.873 71.884,353.570 71.286 C 352.777 69.721,351.330 68.003,351.044 68.289 C 350.910 68.423,350.800 68.223,350.800 67.843 C 350.800 67.463,350.620 67.264,350.400 67.400 C 350.180 67.536,350.000 67.432,350.000 67.168 C 350.000 66.206,337.618 53.200,336.702 53.200 C 336.502 53.200,334.915 51.760,333.176 50.000 C 331.437 48.240,329.817 46.800,329.576 46.800 C 329.335 46.800,328.446 46.080,327.600 45.200 C 326.754 44.320,325.854 43.600,325.600 43.600 C 325.346 43.600,324.446 42.880,323.600 42.000 C 322.754 41.120,321.851 40.400,321.592 40.400 C 321.333 40.400,320.617 39.860,320.000 39.200 C 319.383 38.540,318.631 38.000,318.328 38.000 C 318.025 38.000,317.517 37.640,317.200 37.200 C 316.883 36.760,316.343 36.400,316.000 36.400 C 315.657 36.400,315.117 36.040,314.800 35.600 C 314.483 35.160,313.943 34.800,313.600 34.800 C 313.257 34.800,312.717 34.440,312.400 34.000 C 312.083 33.560,311.543 33.200,311.200 33.200 C 310.857 33.200,310.317 32.840,310.000 32.400 C 309.683 31.960,309.143 31.600,308.800 31.600 C 308.457 31.600,307.917 31.240,307.600 30.800 C 307.283 30.360,306.743 30.000,306.400 30.000 C 306.057 30.000,305.517 29.640,305.200 29.200 C 304.883 28.760,304.303 28.400,303.912 28.400 C 303.520 28.400,303.200 28.220,303.200 28.000 C 303.200 27.780,302.840 27.600,302.400 27.600 C 301.960 27.600,301.600 27.420,301.600 27.200 C 301.600 26.980,301.280 26.800,300.888 26.800 C 300.497 26.800,299.917 26.440,299.600 26.000 C 299.283 25.560,298.703 25.200,298.312 25.200 C 297.920 25.200,297.600 25.020,297.600 24.800 C 297.600 24.580,297.355 24.400,297.056 24.400 C 296.399 24.400,291.455 21.924,291.267 21.500 C 291.193 21.335,290.914 21.200,290.646 21.200 C 289.937 21.200,288.007 20.251,288.003 19.900 C 288.001 19.735,287.640 19.600,287.200 19.600 C 286.760 19.600,286.400 19.420,286.400 19.200 C 286.400 18.980,286.040 18.800,285.600 18.800 C 285.160 18.800,284.800 18.620,284.800 18.400 C 284.800 18.180,284.440 18.000,284.000 18.000 C 283.560 18.000,283.200 17.820,283.200 17.600 C 283.200 17.380,282.840 17.200,282.400 17.200 C 281.960 17.200,281.600 17.020,281.600 16.800 C 281.600 16.580,281.240 16.400,280.800 16.400 C 280.360 16.400,280.000 16.220,280.000 16.000 C 280.000 15.780,279.460 15.600,278.800 15.600 C 278.140 15.600,277.600 15.420,277.600 15.200 C 277.600 14.980,277.240 14.800,276.800 14.800 C 276.360 14.800,276.000 14.620,276.000 14.400 C 276.000 14.180,275.460 14.000,274.800 14.000 C 274.140 14.000,273.600 13.820,273.600 13.600 C 273.600 13.380,273.060 13.200,272.400 13.200 C 271.740 13.200,271.200 13.020,271.200 12.800 C 271.200 12.580,270.840 12.400,270.400 12.400 C 269.960 12.400,269.600 12.220,269.600 12.000 C 269.600 11.780,269.060 11.600,268.400 11.600 C 267.740 11.600,267.200 11.420,267.200 11.200 C 267.200 10.980,266.660 10.800,266.000 10.800 C 265.340 10.800,264.800 10.620,264.800 10.400 C 264.800 10.180,264.260 10.000,263.600 10.000 C 262.940 10.000,262.400 9.820,262.400 9.600 C 262.400 9.380,261.860 9.200,261.200 9.200 C 260.540 9.200,260.000 9.020,260.000 8.800 C 260.000 8.580,259.460 8.400,258.800 8.400 C 258.140 8.400,257.600 8.220,257.600 8.000 C 257.600 7.780,256.880 7.600,256.000 7.600 C 255.120 7.600,254.400 7.420,254.400 7.200 C 254.400 6.980,253.860 6.800,253.200 6.800 C 252.540 6.800,252.000 6.620,252.000 6.400 C 252.000 6.180,251.381 6.000,250.624 6.000 C 249.867 6.000,249.136 5.820,249.000 5.600 C 248.864 5.380,248.144 5.200,247.400 5.200 C 246.656 5.200,245.936 5.020,245.800 4.800 C 245.664 4.580,244.764 4.400,243.800 4.400 C 242.836 4.400,241.936 4.220,241.800 4.000 C 241.664 3.780,240.764 3.600,239.800 3.600 C 238.836 3.600,237.936 3.420,237.800 3.200 C 237.664 2.980,236.573 2.800,235.376 2.800 C 234.179 2.800,233.200 2.620,233.200 2.400 C 233.200 2.172,232.008 2.000,230.424 2.000 C 228.897 2.000,227.536 1.820,227.400 1.600 C 227.264 1.380,225.828 1.200,224.210 1.200 C 222.591 1.200,221.207 1.036,221.133 0.836 C 220.987 0.435,195.575 0.032,185.609 0.273 M57.678 205.379 C 58.711 205.692,63.391 207.924,68.078 210.338 C 72.765 212.752,78.580 215.559,81.000 216.575 C 83.420 217.592,85.760 218.591,86.200 218.796 C 87.327 219.322,95.383 221.969,97.900 222.640 C 99.055 222.948,101.035 223.473,102.300 223.806 C 115.455 227.273,142.467 229.981,164.051 229.996 C 170.591 230.000,171.799 230.305,173.880 232.469 C 177.931 236.683,177.014 242.710,171.888 245.559 C 170.170 246.514,154.820 246.788,145.800 246.025 C 143.380 245.820,139.234 245.548,136.587 245.420 L 131.773 245.187 131.775 250.294 C 131.776 256.594,130.418 260.090,126.454 263.985 C 111.246 278.930,86.807 261.363,96.174 242.218 C 97.535 239.435,97.545 239.460,94.900 238.863 C 92.591 238.343,90.489 237.747,89.000 237.190 C 88.560 237.026,87.390 236.658,86.400 236.374 C 85.410 236.089,84.420 235.746,84.200 235.611 C 83.980 235.477,83.080 235.137,82.200 234.857 C 81.320 234.577,80.195 234.179,79.700 233.974 C 79.205 233.768,78.395 233.443,77.900 233.251 C 69.183 229.867,50.238 219.841,48.958 217.935 C 45.192 212.322,48.325 206.149,55.600 204.845 C 55.710 204.825,56.645 205.065,57.678 205.379 M348.600 205.982 C 352.592 207.732,354.501 213.229,352.357 216.800 C 350.816 219.366,349.840 220.079,343.600 223.199 C 340.190 224.903,335.960 227.019,334.200 227.900 C 328.365 230.820,322.220 233.600,321.599 233.600 C 321.374 233.600,320.877 233.759,320.495 233.953 C 318.636 234.899,312.535 237.113,310.400 237.616 C 309.630 237.798,308.280 238.154,307.400 238.406 C 306.520 238.659,305.303 238.962,304.695 239.079 C 303.095 239.388,303.068 239.674,304.394 242.264 C 311.712 256.562,298.329 273.002,282.658 268.967 C 278.434 267.879,273.238 264.007,271.298 260.500 C 268.489 255.424,267.858 251.452,269.041 246.301 L 269.293 245.202 264.346 245.428 C 261.626 245.552,257.420 245.821,255.000 246.025 C 247.639 246.647,230.757 246.508,229.090 245.812 C 224.298 243.810,222.681 237.291,225.962 233.200 C 228.271 230.321,228.627 230.239,240.200 229.938 C 285.115 228.769,303.777 224.841,331.800 210.659 C 344.164 204.401,344.671 204.260,348.600 205.982 M218.400 307.206 C 229.202 307.702,238.014 308.535,243.600 309.589 C 248.701 310.551,250.261 310.903,250.895 311.235 C 251.277 311.436,251.864 311.600,252.200 311.600 C 252.536 311.600,253.123 311.759,253.505 311.953 C 253.887 312.148,254.740 312.547,255.400 312.841 C 267.815 318.370,260.668 328.222,242.200 331.037 C 237.640 331.732,162.817 331.862,158.967 331.182 C 149.768 329.556,145.274 327.910,142.027 324.977 C 137.584 320.963,138.480 316.061,144.171 313.248 C 150.357 310.190,160.318 308.491,177.200 307.617 C 181.710 307.383,186.120 307.135,187.000 307.066 C 191.039 306.748,210.282 306.834,218.400 307.206 " stroke="none" fill="#fb8c50" fill-rule="evenodd"></path></g></svg>