<svg id="svg" version="1.1" width="400" height="400" viewBox="0 0 400 400" xmlns="http://www.w3.org/2000/svg" xmlns:xlink="http://www.w3.org/1999/xlink" ><g id="svgg"><path id="path0" d="M255.600 24.200 C 255.326 24.530,254.854 24.800,254.551 24.800 C 254.248 24.800,254.000 25.000,254.000 25.245 C 254.000 25.536,253.549 25.598,252.700 25.422 C 247.170 24.279,203.265 24.005,202.896 25.112 C 202.795 25.416,201.914 25.600,200.554 25.600 C 199.355 25.600,197.728 25.870,196.938 26.200 C 196.149 26.530,194.804 26.800,193.951 26.800 C 193.098 26.800,192.400 26.954,192.400 27.143 C 192.400 27.331,191.095 27.606,189.500 27.754 C 187.905 27.901,186.541 28.193,186.470 28.401 C 186.398 28.610,185.453 28.898,184.370 29.042 C 183.286 29.185,182.400 29.440,182.400 29.607 C 182.400 29.774,181.770 30.029,181.000 30.174 C 180.230 30.318,179.600 30.585,179.600 30.767 C 179.600 30.949,178.882 31.213,178.005 31.353 C 177.128 31.493,175.773 31.966,174.994 32.404 C 174.215 32.841,172.457 33.566,171.089 34.013 C 169.720 34.461,168.240 34.990,167.800 35.188 C 167.360 35.386,163.788 35.622,159.861 35.713 C 155.384 35.816,152.624 36.038,152.457 36.307 C 152.311 36.543,151.699 36.860,151.096 37.012 C 150.493 37.163,150.000 37.447,150.000 37.643 C 150.000 37.840,149.730 38.000,149.400 38.000 C 149.070 38.000,148.800 38.270,148.800 38.600 C 148.800 38.930,148.544 39.200,148.231 39.200 C 147.918 39.200,147.149 39.712,146.523 40.339 C 145.897 40.965,144.700 41.703,143.864 41.979 C 143.028 42.255,142.254 42.716,142.143 43.004 C 142.033 43.292,141.490 43.641,140.937 43.780 C 139.760 44.076,139.711 44.115,135.802 47.930 C 134.151 49.542,132.800 51.027,132.800 51.230 C 132.800 51.434,132.572 51.600,132.294 51.600 C 131.734 51.600,128.716 53.137,128.400 53.582 C 128.290 53.737,127.345 54.287,126.300 54.803 C 125.255 55.319,124.400 55.890,124.400 56.071 C 124.400 56.252,124.139 56.400,123.820 56.400 C 123.284 56.400,119.654 58.620,119.200 59.225 C 119.090 59.372,118.595 59.619,118.100 59.773 C 117.605 59.928,117.200 60.222,117.200 60.427 C 117.200 60.632,116.970 60.800,116.689 60.800 C 116.408 60.800,115.886 61.115,115.529 61.500 C 115.173 61.885,114.441 62.566,113.904 63.013 C 113.367 63.460,112.272 64.685,111.471 65.735 C 110.669 66.785,109.740 67.917,109.407 68.250 C 109.073 68.584,108.800 69.095,108.800 69.386 C 108.800 69.677,108.530 70.018,108.200 70.145 C 107.078 70.575,107.395 73.920,108.573 74.073 C 111.658 74.475,108.086 75.814,101.285 76.806 C 97.747 77.322,95.899 79.958,98.600 80.636 C 100.597 81.137,99.509 81.492,95.125 81.769 C 92.663 81.925,90.335 82.221,89.951 82.426 C 89.567 82.632,88.386 82.806,87.326 82.813 C 85.754 82.823,85.270 83.004,84.692 83.799 C 83.661 85.216,84.715 86.400,87.009 86.400 C 87.906 86.400,88.813 86.573,89.024 86.784 C 89.236 86.996,91.203 87.221,93.395 87.284 L 97.382 87.400 95.791 89.114 C 93.362 91.732,91.141 93.969,88.448 96.510 C 87.102 97.780,85.999 98.950,85.997 99.110 C 85.996 99.269,85.321 99.850,84.497 100.399 C 83.674 100.949,82.762 101.624,82.471 101.899 C 82.181 102.175,81.418 102.400,80.776 102.400 C 79.649 102.400,78.000 103.420,78.000 104.117 C 78.000 104.304,77.730 104.727,77.400 105.057 C 77.070 105.387,76.800 106.094,76.800 106.629 C 76.800 107.163,76.631 107.600,76.425 107.600 C 76.218 107.600,75.928 108.410,75.779 109.400 C 75.631 110.390,75.350 111.200,75.155 111.200 C 74.960 111.200,74.800 111.470,74.800 111.800 C 74.800 112.130,74.643 112.400,74.450 112.400 C 74.258 112.400,73.987 112.985,73.849 113.700 C 73.573 115.122,72.377 117.721,71.900 117.933 C 71.735 118.007,71.600 118.327,71.600 118.646 C 71.600 118.964,71.341 119.324,71.024 119.446 C 70.708 119.567,70.337 120.237,70.201 120.933 C 70.065 121.630,69.747 122.617,69.495 123.126 C 69.186 123.752,69.170 124.141,69.448 124.326 C 69.674 124.477,69.975 124.915,70.117 125.300 C 70.384 126.025,71.432 126.263,71.667 125.653 C 71.740 125.462,72.205 125.180,72.700 125.026 C 73.659 124.728,74.122 127.230,73.212 127.793 C 72.998 127.925,72.705 128.925,72.560 130.016 C 72.415 131.107,72.158 132.000,71.988 132.000 C 71.818 132.000,71.553 133.080,71.400 134.401 C 71.247 135.721,70.969 136.895,70.784 137.010 C 70.598 137.125,70.333 138.069,70.196 139.109 C 69.928 141.131,69.781 141.582,68.454 144.444 C 67.984 145.458,67.600 146.564,67.600 146.901 C 67.600 147.238,67.325 147.620,66.989 147.749 C 66.654 147.878,65.983 148.842,65.498 149.892 L 64.617 151.800 64.487 149.900 C 64.415 148.855,64.186 148.000,63.978 148.000 C 63.770 148.000,63.582 146.875,63.560 145.500 C 63.492 141.207,62.065 139.394,60.366 141.441 C 59.590 142.375,59.509 228.726,60.282 229.658 C 60.548 229.978,60.890 231.041,61.043 232.020 C 61.196 232.999,61.445 233.890,61.597 234.000 C 61.880 234.206,62.555 237.524,63.197 241.876 C 63.399 243.238,63.743 244.678,63.962 245.076 C 64.661 246.344,65.517 248.561,65.785 249.800 C 66.121 251.352,66.922 253.200,67.258 253.200 C 67.403 253.200,67.647 254.280,67.800 255.600 C 67.953 256.920,68.233 258.000,68.421 258.000 C 68.610 258.000,68.875 258.675,69.011 259.500 C 69.146 260.325,69.415 261.360,69.606 261.800 C 69.798 262.240,70.072 263.545,70.215 264.700 C 70.358 265.855,70.625 266.800,70.809 266.800 C 70.992 266.800,71.266 267.790,71.417 269.000 C 71.568 270.210,71.851 271.200,72.046 271.200 C 72.241 271.200,72.400 271.569,72.400 272.020 C 72.400 272.471,72.649 273.326,72.953 273.920 C 73.257 274.514,73.636 275.784,73.795 276.742 C 73.954 277.701,74.401 278.801,74.788 279.188 C 75.174 279.574,75.613 280.545,75.763 281.345 C 75.913 282.145,76.194 282.800,76.386 282.800 C 76.579 282.800,76.855 283.338,76.999 283.995 C 77.143 284.653,77.428 285.294,77.631 285.419 C 77.834 285.545,78.000 285.954,78.000 286.330 C 78.000 286.705,78.360 287.684,78.800 288.504 C 79.240 289.325,79.600 290.268,79.600 290.599 C 79.600 290.929,79.766 291.200,79.968 291.200 C 80.171 291.200,80.458 291.752,80.606 292.427 C 80.754 293.102,81.127 294.137,81.435 294.727 C 81.743 295.317,81.996 296.295,81.998 296.900 C 81.999 297.505,82.180 298.000,82.400 298.000 C 82.620 298.000,82.800 298.450,82.800 299.000 C 82.800 299.550,82.980 300.000,83.200 300.000 C 83.420 300.000,83.600 300.270,83.600 300.600 C 83.600 300.930,83.789 301.200,84.019 301.200 C 84.606 301.200,86.400 303.203,86.400 303.858 C 86.400 304.156,86.580 304.400,86.800 304.400 C 87.020 304.400,87.200 304.690,87.200 305.044 C 87.200 305.568,86.921 305.639,85.700 305.425 C 81.065 304.615,80.908 304.630,80.220 305.962 C 79.859 306.659,79.759 307.200,79.990 307.200 C 80.215 307.200,80.400 307.470,80.400 307.800 C 80.400 308.672,81.549 309.668,83.812 310.756 C 87.094 312.335,88.400 313.485,88.400 314.797 C 88.400 315.433,88.581 316.065,88.803 316.202 C 89.435 316.592,90.800 319.651,90.800 320.675 C 90.800 321.184,90.974 321.600,91.186 321.600 C 91.399 321.600,91.692 322.500,91.838 323.600 C 91.984 324.700,92.237 325.600,92.400 325.600 C 92.563 325.600,92.818 326.675,92.967 327.988 C 93.115 329.301,93.398 330.475,93.595 330.597 C 93.792 330.719,94.075 331.624,94.222 332.609 C 94.370 333.594,94.631 334.400,94.802 334.400 C 94.973 334.400,95.226 334.850,95.364 335.400 C 95.607 336.368,95.723 336.400,99.008 336.400 L 102.400 336.400 102.398 334.700 C 102.396 333.765,102.145 332.521,101.840 331.936 C 101.535 331.351,101.159 329.956,101.005 328.837 C 100.851 327.717,100.562 326.700,100.363 326.577 C 100.163 326.454,100.000 325.823,100.000 325.176 C 100.000 324.529,99.840 324.000,99.645 324.000 C 99.449 324.000,99.172 323.378,99.030 322.617 C 98.887 321.856,98.508 320.731,98.188 320.117 C 97.867 319.503,97.604 318.790,97.602 318.533 C 97.601 318.277,97.449 318.007,97.263 317.933 C 96.599 317.670,96.370 315.200,97.010 315.200 C 97.335 315.200,97.600 315.380,97.600 315.600 C 97.600 315.820,98.050 316.000,98.600 316.000 C 99.150 316.000,99.600 316.166,99.600 316.368 C 99.600 316.571,100.180 316.864,100.889 317.020 C 101.599 317.175,102.844 317.723,103.656 318.235 C 104.469 318.748,105.568 319.277,106.099 319.410 C 106.631 319.544,107.501 320.055,108.033 320.547 C 108.565 321.039,109.315 321.561,109.700 321.708 C 110.085 321.855,110.400 322.148,110.400 322.360 C 110.400 322.573,110.798 322.872,111.285 323.027 C 111.771 323.181,112.505 323.734,112.914 324.254 C 113.323 324.774,113.915 325.200,114.229 325.200 C 114.543 325.200,114.800 325.357,114.800 325.549 C 114.800 325.741,115.491 326.008,116.336 326.143 C 117.180 326.278,118.344 326.827,118.923 327.363 C 119.501 327.899,120.323 328.449,120.750 328.584 C 121.177 328.720,121.627 329.094,121.750 329.415 C 121.874 329.737,122.259 330.000,122.607 330.000 C 122.954 330.000,123.655 330.450,124.165 331.000 C 124.675 331.550,125.296 332.000,125.546 332.000 C 125.796 332.000,126.000 332.180,126.000 332.400 C 126.000 332.620,126.197 332.800,126.437 332.800 C 126.677 332.800,127.331 333.160,127.891 333.600 C 128.450 334.040,129.244 334.400,129.654 334.400 C 130.064 334.400,130.400 334.560,130.400 334.755 C 130.400 334.951,131.795 335.801,133.500 336.645 C 135.205 337.489,136.690 338.295,136.800 338.436 C 136.910 338.577,137.405 338.819,137.900 338.973 C 138.395 339.128,138.800 339.422,138.800 339.627 C 138.800 339.832,139.055 340.000,139.367 340.000 C 139.678 340.000,139.993 340.135,140.067 340.300 C 140.140 340.465,141.092 341.050,142.183 341.600 C 143.273 342.150,144.533 342.980,144.983 343.444 C 145.432 343.909,146.205 344.416,146.700 344.571 C 147.195 344.727,147.600 345.027,147.600 345.240 C 147.600 345.452,147.915 345.745,148.300 345.892 C 148.685 346.040,149.607 346.749,150.350 347.469 C 151.092 348.189,152.074 348.897,152.531 349.042 C 152.989 349.187,153.609 349.552,153.910 349.853 C 154.211 350.154,154.714 350.400,155.029 350.400 C 155.343 350.400,155.600 350.566,155.600 350.768 C 155.600 350.971,156.140 351.255,156.800 351.400 C 157.460 351.545,158.000 351.812,158.000 351.993 C 158.000 352.173,159.080 352.447,160.400 352.600 C 161.720 352.753,162.800 353.020,162.800 353.194 C 162.800 353.367,163.606 353.630,164.591 353.778 C 165.576 353.925,166.477 354.202,166.595 354.392 C 166.712 354.582,167.977 354.862,169.404 355.015 C 170.832 355.168,172.000 355.432,172.000 355.601 C 172.000 355.930,172.610 356.087,177.000 356.889 C 178.540 357.170,179.980 357.517,180.200 357.660 C 180.420 357.803,181.635 358.049,182.900 358.206 C 184.165 358.363,185.200 358.634,185.200 358.807 C 185.200 358.980,186.280 359.247,187.600 359.400 C 188.920 359.553,190.000 359.830,190.000 360.015 C 190.000 360.200,191.260 360.476,192.800 360.627 C 194.340 360.779,195.600 361.060,195.600 361.252 C 195.600 361.443,199.110 361.600,203.400 361.600 C 207.690 361.600,211.200 361.447,211.200 361.261 C 211.200 361.075,213.390 360.812,216.066 360.677 C 218.743 360.543,221.038 360.270,221.166 360.071 C 221.295 359.872,223.650 359.517,226.400 359.282 C 234.646 358.579,237.780 357.763,239.734 355.809 C 240.074 355.469,241.217 355.076,242.276 354.934 C 243.334 354.793,244.306 354.517,244.435 354.321 C 244.564 354.125,246.004 353.868,247.635 353.751 C 249.266 353.634,250.960 353.386,251.400 353.200 C 251.840 353.014,257.304 352.754,263.542 352.623 C 269.780 352.491,275.209 352.209,275.606 351.997 C 276.003 351.784,277.875 351.491,279.764 351.346 C 281.654 351.201,283.200 350.955,283.200 350.800 C 283.200 350.646,284.747 350.410,286.639 350.276 C 288.530 350.143,290.285 349.870,290.539 349.671 C 290.792 349.471,292.530 349.186,294.400 349.038 C 296.270 348.889,297.860 348.595,297.933 348.384 C 298.007 348.173,298.322 348.000,298.633 348.000 C 298.945 348.000,299.200 347.823,299.200 347.608 C 299.200 347.392,299.650 347.102,300.200 346.964 C 300.750 346.826,301.200 346.553,301.200 346.357 C 301.200 346.160,301.547 346.000,301.971 346.000 C 302.396 346.000,302.991 345.752,303.295 345.448 C 303.598 345.145,305.141 344.767,306.723 344.608 C 308.305 344.449,309.600 344.157,309.600 343.959 C 309.600 343.762,309.880 343.600,310.222 343.600 C 310.878 343.600,314.458 342.074,314.800 341.649 C 314.910 341.512,315.675 341.057,316.500 340.637 C 317.325 340.217,318.000 339.717,318.000 339.524 C 318.000 339.332,318.315 339.057,318.700 338.913 C 319.085 338.769,320.462 337.605,321.759 336.326 C 323.057 335.047,324.286 334.000,324.490 334.000 C 325.607 334.000,327.200 331.610,327.202 329.931 C 327.204 328.979,327.463 327.706,327.778 327.102 C 328.093 326.498,328.472 325.193,328.621 324.202 C 328.769 323.211,329.050 322.400,329.245 322.400 C 329.440 322.400,329.600 321.785,329.600 321.033 C 329.600 318.960,329.943 318.447,331.531 318.149 C 333.510 317.778,335.036 316.156,335.392 314.047 C 335.551 313.105,335.932 311.854,336.238 311.267 C 336.544 310.680,336.796 309.705,336.798 309.100 C 336.799 308.495,336.980 308.000,337.200 308.000 C 337.420 308.000,337.600 307.728,337.600 307.396 C 337.600 307.064,337.960 306.484,338.400 306.107 C 338.840 305.730,339.200 305.192,339.200 304.911 C 339.200 304.630,339.380 304.400,339.600 304.400 C 339.820 304.400,340.000 304.130,340.000 303.800 C 340.000 303.470,340.168 303.200,340.373 303.200 C 340.578 303.200,340.846 302.885,340.969 302.500 C 341.091 302.115,341.621 301.337,342.146 300.771 C 342.671 300.205,343.237 299.313,343.403 298.789 C 343.570 298.266,343.952 297.591,344.253 297.290 C 344.554 296.989,344.800 296.486,344.800 296.171 C 344.800 295.857,344.980 295.600,345.200 295.600 C 345.420 295.600,345.600 295.372,345.600 295.094 C 345.600 294.816,345.960 293.916,346.400 293.096 C 346.840 292.275,347.200 291.152,347.200 290.601 C 347.200 290.051,347.380 289.600,347.600 289.600 C 347.820 289.600,348.000 288.610,348.000 287.400 C 348.000 285.541,347.887 285.200,347.273 285.200 C 346.617 285.200,346.587 285.026,346.964 283.400 C 347.194 282.410,347.521 281.600,347.691 281.600 C 347.861 281.600,348.000 281.227,348.000 280.771 C 348.000 280.316,348.270 279.673,348.600 279.343 C 348.930 279.013,349.200 278.136,349.200 277.395 C 349.200 276.654,349.380 275.936,349.600 275.800 C 349.820 275.664,350.000 275.066,350.000 274.470 C 350.000 273.875,350.360 272.716,350.800 271.896 C 351.240 271.075,351.600 270.147,351.600 269.835 C 351.600 269.522,351.735 269.207,351.900 269.133 C 352.383 268.918,354.001 265.382,353.993 264.556 C 353.981 263.270,352.200 261.920,350.711 262.069 L 349.400 262.200 349.125 253.600 C 348.974 248.870,348.728 243.290,348.577 241.200 C 348.007 233.274,347.943 211.460,348.488 210.437 C 349.203 209.091,349.214 195.453,348.500 194.740 C 348.225 194.465,348.000 193.286,348.000 192.120 C 348.000 190.954,347.841 190.000,347.646 190.000 C 347.451 190.000,347.168 189.010,347.017 187.800 C 346.866 186.590,346.586 185.600,346.396 185.600 C 346.205 185.600,345.928 184.790,345.779 183.800 C 345.631 182.810,345.373 182.000,345.206 182.000 C 345.039 182.000,344.778 181.058,344.625 179.908 C 344.473 178.757,344.192 177.719,344.002 177.602 C 343.812 177.484,343.541 175.771,343.399 173.794 C 343.258 171.817,342.974 169.840,342.769 169.400 C 342.564 168.960,342.221 166.710,342.007 164.400 C 341.136 155.004,340.816 152.605,340.418 152.473 C 340.188 152.396,340.000 151.819,340.000 151.190 C 340.000 150.562,339.820 149.936,339.600 149.800 C 339.380 149.664,339.200 149.178,339.200 148.720 C 339.200 148.262,338.852 147.148,338.427 146.244 C 338.002 145.340,337.337 143.835,336.950 142.900 C 336.563 141.965,336.115 141.200,335.955 141.200 C 335.795 141.200,335.545 140.660,335.400 140.000 C 335.255 139.340,335.003 138.800,334.839 138.800 C 334.676 138.800,334.119 137.945,333.601 136.900 C 333.084 135.855,332.344 134.719,331.957 134.376 C 331.570 134.033,331.123 133.223,330.963 132.576 C 330.803 131.929,330.251 130.729,329.736 129.908 C 329.221 129.087,328.800 128.241,328.800 128.028 C 328.800 127.814,328.575 127.496,328.300 127.320 C 328.025 127.144,327.363 126.370,326.830 125.600 C 326.296 124.830,325.621 124.056,325.330 123.880 C 325.038 123.704,324.800 123.301,324.800 122.984 C 324.800 122.666,324.440 122.182,324.000 121.907 C 323.560 121.632,323.200 121.194,323.200 120.932 C 323.200 120.134,321.998 119.200,320.971 119.200 C 320.093 119.200,318.400 117.978,318.400 117.344 C 318.400 117.203,318.016 116.258,317.546 115.244 C 317.076 114.230,316.554 113.040,316.386 112.600 C 316.219 112.160,315.793 111.143,315.441 110.340 C 315.088 109.536,314.800 108.591,314.800 108.240 C 314.800 107.888,314.643 107.600,314.451 107.600 C 314.259 107.600,313.987 106.880,313.846 106.000 C 313.706 105.120,313.426 104.400,313.224 104.400 C 313.022 104.400,312.734 103.410,312.583 102.200 C 312.432 100.990,312.170 100.000,312.001 100.000 C 311.832 100.000,311.599 99.640,311.484 99.200 C 311.369 98.760,311.348 98.400,311.437 98.400 C 311.705 98.400,314.800 101.579,314.800 101.854 C 314.800 101.994,315.229 102.506,315.753 102.992 C 316.277 103.478,316.841 104.300,317.006 104.819 C 317.171 105.338,317.552 106.009,317.853 106.310 C 318.154 106.611,318.400 107.114,318.400 107.429 C 318.400 107.743,318.580 108.000,318.800 108.000 C 319.020 108.000,319.200 108.235,319.200 108.522 C 319.200 109.640,321.880 111.717,322.971 111.443 C 324.011 111.182,324.502 109.158,323.653 108.633 C 323.462 108.515,323.186 107.514,323.039 106.409 C 322.892 105.304,322.599 104.400,322.386 104.400 C 322.174 104.400,322.000 104.158,322.000 103.862 C 322.000 103.566,321.640 102.998,321.200 102.600 C 320.760 102.202,320.400 101.712,320.400 101.512 C 320.400 101.313,319.943 100.665,319.385 100.074 C 317.390 97.963,316.000 96.250,316.000 95.904 C 316.000 95.711,315.851 95.645,315.669 95.758 C 315.372 95.941,314.882 95.575,312.150 93.128 C 310.909 92.017,310.400 91.270,310.400 90.562 C 310.400 90.193,309.050 88.549,307.400 86.910 C 305.750 85.271,304.400 83.675,304.400 83.365 C 304.400 83.054,304.220 82.800,304.000 82.800 C 303.780 82.800,303.600 82.558,303.600 82.261 C 303.600 81.789,303.307 81.352,301.656 79.369 C 301.459 79.132,301.174 78.547,301.022 78.069 C 300.870 77.591,300.578 77.200,300.373 77.200 C 300.168 77.200,300.000 76.480,300.000 75.600 C 300.000 74.720,299.840 74.000,299.645 74.000 C 299.449 74.000,299.171 73.370,299.026 72.600 C 298.882 71.830,298.604 71.200,298.409 71.200 C 298.214 71.200,297.938 70.834,297.796 70.387 C 297.654 69.940,297.108 69.110,296.582 68.543 C 296.056 67.975,295.507 67.136,295.361 66.677 C 295.216 66.219,294.668 65.384,294.143 64.822 C 291.484 61.971,289.972 60.131,289.770 59.500 C 289.647 59.115,289.398 58.800,289.216 58.800 C 289.035 58.800,288.774 58.350,288.636 57.800 C 288.498 57.250,288.222 56.800,288.024 56.800 C 287.826 56.800,287.548 56.275,287.407 55.633 C 287.266 54.992,286.892 54.367,286.576 54.246 C 286.259 54.124,286.000 53.749,286.000 53.413 C 286.000 53.076,285.820 52.800,285.600 52.800 C 285.380 52.800,285.200 52.538,285.200 52.218 C 285.200 51.898,284.795 51.223,284.300 50.718 C 283.805 50.213,283.130 49.274,282.800 48.630 C 282.114 47.292,273.000 38.000,272.374 38.000 C 272.147 38.000,271.565 37.575,271.081 37.056 C 270.596 36.536,269.764 35.974,269.231 35.807 C 268.698 35.639,267.891 35.157,267.439 34.736 C 266.986 34.314,266.207 33.866,265.708 33.741 C 265.209 33.616,264.800 33.353,264.800 33.157 C 264.800 32.960,264.539 32.800,264.220 32.800 C 263.901 32.800,263.496 32.575,263.320 32.300 C 263.144 32.025,262.325 31.457,261.500 31.037 C 260.675 30.617,260.000 30.052,260.000 29.780 C 260.000 29.508,259.730 29.182,259.400 29.055 C 259.053 28.922,258.800 28.324,258.800 27.636 C 258.800 26.982,258.643 26.350,258.452 26.232 C 258.260 26.114,257.995 25.473,257.862 24.808 C 257.593 23.467,256.461 23.162,255.600 24.200 M242.753 29.644 C 245.584 30.630,241.556 35.218,237.337 35.813 C 234.785 36.174,233.928 36.763,232.907 38.858 C 232.440 39.816,231.468 41.815,230.747 43.300 C 230.026 44.785,229.293 46.000,229.118 46.000 C 228.524 46.000,228.797 44.599,229.743 42.797 C 230.261 41.809,230.815 40.460,230.973 39.800 C 231.131 39.140,231.801 37.719,232.462 36.642 C 234.240 33.746,234.439 33.034,233.749 32.049 C 231.883 29.385,226.725 32.705,225.434 37.400 C 223.736 43.577,223.738 43.576,218.734 42.697 C 215.004 42.042,213.913 41.802,209.400 40.644 C 208.080 40.306,206.313 40.022,205.474 40.014 C 204.634 40.006,203.638 39.834,203.259 39.632 C 202.349 39.145,196.295 38.417,189.600 37.989 C 186.630 37.800,182.271 37.518,179.913 37.363 C 176.365 37.130,174.053 36.400,176.862 36.400 C 177.310 36.400,178.154 36.152,178.738 35.849 C 179.915 35.237,185.203 33.194,188.000 32.270 C 191.382 31.153,194.203 30.779,203.779 30.177 C 209.047 29.846,213.442 29.491,213.546 29.388 C 213.965 28.968,241.508 29.209,242.753 29.644 M257.547 34.014 C 259.709 35.820,259.642 35.777,262.023 36.867 C 271.440 41.179,283.507 54.444,283.612 60.600 C 283.640 62.274,285.275 65.930,286.743 67.600 C 290.682 72.083,294.923 78.619,297.384 84.000 C 298.239 85.870,300.707 91.058,302.869 95.528 C 305.031 99.999,306.800 103.722,306.800 103.801 C 306.800 104.092,309.346 109.567,312.193 115.400 C 313.803 118.700,315.514 122.300,315.993 123.400 C 316.831 125.320,317.782 127.300,318.685 129.000 C 319.093 129.767,319.667 131.010,322.314 136.857 C 322.976 138.318,323.640 140.071,323.789 140.752 C 323.939 141.433,324.228 142.094,324.431 142.219 C 324.634 142.345,324.800 142.726,324.800 143.066 C 324.800 143.407,325.352 144.881,326.027 146.343 C 332.654 160.692,333.604 162.892,333.586 163.850 C 333.578 164.263,333.314 165.050,333.000 165.600 C 331.896 167.532,332.658 171.686,334.539 173.993 C 334.812 174.327,335.277 175.320,335.574 176.200 C 336.252 178.208,339.385 184.787,340.853 187.284 C 342.153 189.495,342.005 186.308,342.779 228.800 C 343.343 259.777,343.181 274.191,342.244 276.433 C 341.265 278.775,339.604 280.400,338.187 280.400 C 336.032 280.400,334.911 281.913,334.039 286.000 C 333.874 286.770,333.238 288.570,332.625 290.000 C 332.012 291.430,331.364 292.960,331.184 293.400 C 330.467 295.154,329.610 298.296,329.382 300.000 C 329.250 300.990,328.904 302.430,328.614 303.200 C 328.324 303.970,327.863 305.410,327.590 306.400 C 324.297 318.337,315.261 334.145,310.400 336.470 C 308.965 337.156,304.895 339.018,302.400 340.131 C 300.258 341.085,294.836 342.797,292.600 343.224 C 291.500 343.434,289.340 343.890,287.800 344.238 C 286.260 344.585,283.740 345.016,282.200 345.194 C 280.660 345.373,277.600 345.730,275.400 345.987 C 273.200 346.244,268.250 346.621,264.400 346.823 C 254.793 347.330,249.211 347.851,247.874 348.366 C 247.255 348.605,246.085 348.800,245.274 348.801 C 243.930 348.801,240.221 349.393,235.000 350.440 C 233.900 350.661,232.190 350.997,231.200 351.187 C 228.356 351.734,226.418 352.289,225.889 352.707 C 222.319 355.529,199.992 357.328,195.000 355.196 C 194.560 355.008,193.660 354.769,193.000 354.664 C 191.794 354.473,186.838 353.350,182.000 352.171 C 180.570 351.823,178.680 351.385,177.800 351.198 C 176.920 351.012,174.670 350.483,172.800 350.024 C 170.930 349.565,168.680 349.024,167.800 348.821 C 162.148 347.517,157.272 345.008,150.038 339.679 C 144.504 335.602,140.281 332.800,139.670 332.800 C 139.517 332.800,138.854 332.137,138.196 331.327 C 136.176 328.839,134.188 326.983,132.762 326.253 C 132.013 325.870,130.320 324.934,129.000 324.173 C 127.000 323.021,121.437 320.236,117.200 318.266 C 116.650 318.010,116.110 317.696,116.000 317.566 C 115.890 317.437,115.495 317.166,115.123 316.963 C 113.677 316.175,109.580 312.261,108.743 310.866 C 108.258 310.060,106.948 308.404,105.831 307.187 C 98.069 298.728,95.969 296.177,92.911 291.484 C 89.214 285.812,86.400 278.704,86.400 275.038 C 86.400 274.281,86.210 272.702,85.979 271.531 C 85.038 266.772,84.726 265.354,84.412 264.400 C 84.230 263.850,83.777 262.365,83.404 261.101 C 83.031 259.836,82.563 258.701,82.363 258.577 C 82.163 258.454,82.000 258.001,82.000 257.571 C 82.000 257.141,81.834 256.477,81.632 256.095 C 81.098 255.087,79.738 251.344,78.982 248.800 C 78.623 247.590,78.178 246.240,77.995 245.800 C 77.812 245.360,77.552 244.460,77.417 243.800 C 77.019 241.850,75.962 238.254,75.567 237.505 C 75.365 237.123,75.200 236.381,75.200 235.856 C 75.200 235.330,74.952 234.199,74.650 233.340 C 73.216 229.278,71.927 213.713,71.717 197.925 C 71.534 184.249,71.432 183.518,69.787 184.150 C 68.244 184.742,67.875 187.018,67.899 195.800 C 67.911 200.612,67.779 203.858,67.589 203.400 C 67.406 202.960,67.244 200.756,67.228 198.501 L 67.200 194.402 65.733 192.778 C 63.534 190.345,63.094 180.484,65.061 177.752 C 66.495 175.762,67.199 174.186,67.199 172.967 C 67.200 172.288,67.335 171.598,67.500 171.434 C 67.895 171.038,68.626 168.116,69.861 162.000 C 70.416 159.250,71.051 156.148,71.271 155.106 C 71.491 154.064,72.382 151.364,73.252 149.106 C 75.613 142.972,77.205 138.225,77.613 136.098 C 77.813 135.054,78.356 132.310,78.819 130.000 C 79.282 127.690,79.838 124.810,80.055 123.600 C 81.221 117.081,83.665 112.946,90.800 105.422 C 99.194 96.572,107.782 88.000,108.256 88.000 C 108.683 88.000,111.631 89.163,117.400 91.607 C 119.878 92.657,121.336 93.238,124.400 94.396 C 128.817 96.065,129.683 96.430,132.816 97.940 C 134.255 98.633,135.558 99.200,135.712 99.200 C 137.473 99.200,143.767 104.594,148.785 110.406 C 150.207 112.053,151.668 113.700,152.032 114.066 C 153.015 115.056,156.400 120.239,156.400 120.754 C 156.400 121.535,155.572 121.238,154.003 119.895 C 152.073 118.244,149.386 116.800,148.242 116.800 C 147.757 116.800,147.189 116.633,146.980 116.429 C 145.734 115.212,131.421 115.216,129.105 116.435 C 128.723 116.636,128.106 116.800,127.734 116.800 C 125.556 116.800,117.263 120.525,114.412 122.783 C 113.428 123.562,112.268 124.470,111.833 124.800 C 107.571 128.035,100.212 135.679,99.124 138.000 C 97.061 142.404,96.142 171.210,97.944 175.025 C 98.353 175.891,99.017 177.365,99.421 178.300 C 99.824 179.235,100.299 180.000,100.477 180.000 C 100.655 180.000,100.800 180.174,100.800 180.388 C 100.800 182.573,108.098 190.703,114.216 195.333 L 117.741 198.000 131.040 198.000 L 144.339 198.000 145.669 196.906 C 146.401 196.305,147.090 195.720,147.200 195.605 C 147.776 195.008,151.915 192.000,152.161 192.000 C 153.688 192.000,164.017 181.157,167.593 175.800 C 168.327 174.700,169.943 172.720,171.183 171.400 C 174.701 167.655,179.200 160.676,179.200 158.964 C 179.200 158.690,179.335 158.407,179.500 158.333 C 179.969 158.125,181.200 155.611,181.200 154.862 C 181.200 154.491,181.580 153.478,182.046 152.611 C 182.812 151.181,182.872 150.580,182.689 146.217 C 182.355 138.271,180.533 134.404,175.309 130.553 C 171.289 127.590,169.531 125.647,167.753 122.200 C 166.545 119.860,164.498 116.805,163.597 116.000 C 162.566 115.079,154.000 104.779,154.000 104.460 C 154.000 104.234,154.815 103.927,155.811 103.777 C 157.523 103.521,158.400 102.787,158.400 101.610 C 158.400 101.367,157.218 99.870,155.773 98.284 C 154.328 96.698,152.697 94.905,152.148 94.300 C 151.599 93.695,150.802 93.200,150.376 93.200 C 149.950 93.200,148.297 92.587,146.701 91.837 C 143.289 90.235,140.104 89.024,137.600 88.377 C 136.610 88.121,135.440 87.763,135.000 87.581 C 134.560 87.399,133.570 87.168,132.800 87.068 C 130.231 86.736,126.240 85.926,122.200 84.918 C 120.000 84.369,117.660 83.803,117.000 83.660 C 114.236 83.061,113.904 80.813,116.168 78.025 C 122.012 70.827,142.149 51.914,146.356 49.672 C 148.130 48.727,149.683 47.789,149.808 47.587 C 150.272 46.837,155.188 44.360,157.258 43.833 C 166.323 41.525,206.269 43.291,214.046 46.342 C 215.021 46.725,217.408 47.389,219.200 47.777 C 221.510 48.276,221.398 49.717,218.565 55.911 C 218.034 57.072,217.593 58.152,217.584 58.311 C 217.576 58.470,216.868 60.040,216.011 61.800 C 214.339 65.235,213.859 65.281,215.241 61.874 C 217.788 55.594,218.127 53.784,216.971 52.629 C 215.600 51.257,214.484 52.136,212.667 56.022 C 210.258 61.172,209.200 63.611,209.200 64.012 C 209.200 64.616,208.286 64.445,207.354 63.667 C 206.646 63.074,206.479 62.400,206.328 59.509 C 206.129 55.729,205.677 54.795,204.051 54.809 C 201.407 54.831,200.040 57.777,198.951 65.800 C 198.283 70.718,197.538 74.176,195.419 82.200 C 193.201 90.596,194.066 97.277,197.158 95.622 C 198.177 95.077,198.263 95.367,198.802 101.161 C 199.035 103.669,199.469 106.189,199.764 106.761 C 201.752 110.601,203.593 116.951,203.602 120.000 C 203.604 120.550,203.846 121.462,204.141 122.027 C 204.435 122.591,204.794 123.522,204.938 124.096 C 206.360 129.762,209.763 128.396,210.160 122.000 C 210.578 115.260,211.068 110.456,211.733 106.600 C 212.074 104.620,212.445 102.460,212.557 101.800 C 213.189 98.078,213.660 95.827,213.880 95.471 C 214.158 95.021,215.155 98.463,215.182 99.969 C 215.203 101.110,216.256 102.400,217.166 102.400 C 218.127 102.400,218.729 101.149,219.207 98.156 C 219.444 96.675,219.746 95.287,219.880 95.071 C 220.013 94.856,220.267 92.861,220.443 90.640 C 220.620 88.418,220.879 85.250,221.019 83.600 C 221.297 80.321,222.259 77.112,224.076 73.400 C 225.447 70.600,226.160 69.714,225.844 71.200 C 223.153 83.885,222.990 85.173,223.922 86.347 C 224.456 87.020,224.910 87.219,225.488 87.036 C 227.074 86.532,230.452 78.221,231.598 72.000 C 231.781 71.010,232.111 69.480,232.332 68.600 C 232.553 67.720,233.016 65.722,233.362 64.161 C 234.677 58.226,237.519 54.339,241.345 53.242 C 242.415 52.936,244.161 52.099,245.225 51.383 C 246.288 50.668,247.988 49.765,249.001 49.378 C 252.668 47.978,252.975 44.400,249.428 44.400 C 245.461 44.400,241.847 45.790,240.113 47.984 C 239.845 48.323,239.620 48.404,239.613 48.164 C 239.590 47.383,242.034 44.855,244.208 43.412 C 245.377 42.636,246.725 41.368,247.203 40.595 C 248.105 39.136,252.273 35.393,254.387 34.144 C 255.054 33.750,255.600 33.286,255.600 33.114 C 255.600 32.559,256.062 32.773,257.547 34.014 M120.400 63.766 C 120.400 63.858,119.635 64.521,118.700 65.239 L 117.000 66.546 118.378 65.073 C 119.592 63.776,120.400 63.254,120.400 63.766 M113.600 70.600 C 113.600 70.871,112.055 72.400,111.781 72.400 C 111.449 72.400,112.956 70.427,113.300 70.413 C 113.465 70.406,113.600 70.490,113.600 70.600 M184.800 71.989 C 183.810 72.364,182.730 72.771,182.400 72.894 C 178.957 74.176,174.410 75.093,175.100 74.367 C 177.160 72.197,174.399 71.806,171.956 73.922 C 168.239 77.142,165.251 79.104,161.309 80.913 C 154.586 83.997,151.998 87.506,155.472 88.827 C 157.746 89.692,159.888 88.871,163.200 85.864 C 164.925 84.298,166.604 83.201,167.286 83.196 C 168.321 83.188,171.911 81.260,173.156 80.043 C 174.190 79.032,174.582 78.869,175.192 79.196 C 176.831 80.073,182.898 78.545,184.980 76.731 C 185.189 76.549,185.678 76.400,186.067 76.400 C 187.254 76.400,189.600 73.736,189.600 72.387 C 189.600 70.958,187.895 70.816,184.800 71.989 M248.843 73.585 C 247.104 73.866,244.838 75.836,244.811 77.090 C 244.805 77.360,243.675 78.618,242.300 79.886 C 237.152 84.634,231.316 90.733,228.973 93.815 C 226.392 97.210,223.200 101.823,223.200 102.159 C 223.200 102.270,222.427 103.495,221.483 104.881 C 220.539 106.266,219.529 108.097,219.239 108.949 C 218.568 110.925,218.504 126.299,219.162 127.529 C 219.403 127.979,219.601 129.034,219.602 129.874 C 219.607 132.649,225.925 141.843,232.575 148.749 C 235.690 151.983,245.247 159.565,246.273 159.616 C 246.453 159.625,247.223 160.165,247.985 160.816 C 248.747 161.467,249.602 162.000,249.885 162.000 C 250.168 162.000,250.400 162.160,250.400 162.355 C 250.400 164.368,257.180 165.133,263.600 163.844 C 265.250 163.513,268.850 163.219,271.600 163.191 C 277.878 163.127,287.217 162.560,289.651 162.095 C 295.433 160.991,306.477 152.919,308.232 148.515 C 309.035 146.500,309.617 145.150,310.047 144.305 C 310.841 142.745,310.465 127.960,309.571 125.594 C 309.115 124.387,308.543 122.860,308.300 122.200 C 307.338 119.587,302.935 111.586,300.376 107.800 C 298.889 105.600,297.431 103.222,297.136 102.516 C 296.404 100.763,282.290 85.811,279.264 83.584 C 278.530 83.043,276.210 81.112,274.110 79.293 C 268.689 74.598,267.669 74.210,259.200 73.615 C 252.819 73.167,251.447 73.163,248.843 73.585 M263.239 78.178 C 269.271 79.446,272.444 83.600,267.382 83.600 C 264.204 83.600,263.200 86.395,263.200 95.242 C 263.200 106.826,264.194 110.848,267.445 112.422 C 269.987 113.652,284.402 113.812,286.217 112.630 C 288.430 111.189,290.201 107.934,290.627 104.523 C 290.773 103.355,291.006 102.404,291.146 102.409 C 291.392 102.417,293.596 105.332,294.000 106.185 C 294.110 106.417,294.945 107.690,295.855 109.015 C 300.322 115.516,303.191 121.160,304.796 126.600 C 305.055 127.480,305.455 128.740,305.684 129.400 C 307.102 133.482,306.970 142.077,305.458 144.135 C 304.602 145.299,302.800 148.884,302.800 149.421 C 302.800 149.825,300.333 151.755,298.061 153.129 C 296.853 153.860,294.829 155.255,293.563 156.229 L 291.261 158.000 272.419 158.000 L 253.577 158.000 251.289 156.804 C 250.030 156.146,248.100 155.062,247.000 154.395 C 245.900 153.727,244.370 152.890,243.600 152.533 C 242.830 152.176,241.595 151.595,240.856 151.242 C 239.199 150.450,230.653 141.061,228.486 137.650 C 228.119 137.073,227.724 136.510,227.609 136.400 C 227.033 135.849,224.730 130.623,223.821 127.800 C 222.672 124.235,222.288 114.198,223.208 111.778 C 224.044 109.581,224.947 107.799,226.073 106.128 C 226.693 105.208,227.200 104.356,227.200 104.233 C 227.200 103.764,234.829 93.030,235.611 92.400 C 235.747 92.290,236.822 91.129,237.998 89.820 C 248.064 78.621,253.476 76.124,263.239 78.178 M277.317 89.588 C 284.276 95.988,287.887 104.341,284.814 106.927 C 283.058 108.405,278.419 109.034,273.688 108.437 C 268.005 107.720,267.652 107.040,267.309 96.169 C 267.043 87.732,267.079 87.615,269.949 87.572 C 270.967 87.556,272.160 87.402,272.600 87.229 C 273.688 86.801,275.000 87.456,277.317 89.588 M187.000 97.600 C 186.583 100.070,187.502 104.593,189.149 108.175 C 190.057 110.151,190.489 111.356,191.611 115.046 C 192.704 118.638,193.893 120.000,195.936 120.000 C 198.992 120.000,199.155 118.327,196.698 112.200 C 196.256 111.100,195.720 109.750,195.506 109.200 C 194.245 105.967,190.657 98.685,189.577 97.167 C 188.358 95.455,187.333 95.627,187.000 97.600 M178.404 107.796 C 177.789 108.536,178.158 110.751,179.228 112.748 C 179.653 113.540,180.000 114.321,180.000 114.483 C 180.000 115.646,186.907 128.647,188.297 130.100 C 191.670 133.625,193.018 127.440,189.900 122.747 C 188.965 121.339,187.998 119.741,187.751 119.194 C 183.482 109.738,180.157 105.683,178.404 107.796 M147.308 120.860 C 151.049 122.201,155.366 126.990,159.831 134.755 C 162.386 139.197,171.406 143.804,173.348 141.658 C 174.084 140.844,173.848 139.600,172.957 139.600 C 172.651 139.600,172.400 139.449,172.400 139.264 C 172.400 139.079,171.483 138.404,170.362 137.764 C 167.201 135.959,167.091 135.887,165.255 134.404 C 160.038 130.189,159.270 126.565,164.300 129.900 C 166.225 131.176,168.806 132.733,170.035 133.361 C 174.251 135.512,175.779 136.900,177.189 139.862 C 177.906 141.368,178.644 142.899,178.828 143.265 C 179.581 144.759,179.688 147.816,179.040 149.365 C 178.688 150.208,178.400 151.168,178.400 151.499 C 178.400 153.202,175.455 157.733,167.577 168.150 C 166.600 169.443,165.394 171.063,164.897 171.750 C 163.052 174.305,161.306 176.306,157.412 180.326 C 155.214 182.595,153.322 184.589,153.208 184.758 C 152.673 185.547,145.115 191.613,143.556 192.504 C 139.989 194.543,122.193 194.325,117.983 192.191 C 114.624 190.489,110.960 187.585,109.732 185.651 C 109.122 184.689,108.239 183.651,107.770 183.344 C 107.301 183.037,106.581 182.159,106.168 181.393 C 105.756 180.627,105.279 180.000,105.109 180.000 C 104.939 180.000,104.800 179.651,104.800 179.224 C 104.800 178.797,104.641 178.349,104.448 178.230 C 104.254 178.110,103.998 177.604,103.879 177.106 C 103.760 176.608,103.394 175.120,103.065 173.800 C 102.736 172.480,102.407 170.075,102.334 168.457 L 102.200 165.513 106.603 165.577 C 119.524 165.763,128.613 157.230,126.000 147.365 C 123.401 137.549,120.032 133.630,113.302 132.592 C 110.933 132.227,110.923 131.923,113.211 129.866 C 116.343 127.050,121.033 124.124,126.407 121.632 C 130.036 119.948,143.390 119.455,147.308 120.860 M330.241 139.800 C 333.865 145.902,335.515 150.149,335.835 154.200 C 335.993 156.194,335.986 156.184,333.632 151.400 C 331.646 147.364,330.565 144.550,327.791 136.200 C 327.513 135.363,328.244 136.438,330.241 139.800 M115.200 138.065 C 120.402 140.827,123.100 148.566,120.757 154.011 C 119.939 155.912,117.819 158.000,116.707 158.000 C 116.406 158.000,115.989 158.147,115.780 158.327 C 114.241 159.651,104.121 160.293,102.968 159.139 C 101.516 157.688,101.931 142.161,103.477 140.078 C 106.195 136.416,110.651 135.650,115.200 138.065 M208.000 156.461 C 202.607 156.781,196.618 158.055,195.000 159.227 C 194.780 159.386,193.700 160.010,192.600 160.614 C 188.605 162.806,180.459 169.557,177.173 173.400 C 175.923 174.862,172.996 178.065,170.996 180.158 C 169.563 181.660,167.200 185.092,167.200 185.674 C 167.200 185.985,167.031 186.411,166.824 186.620 C 166.470 186.977,164.405 196.514,163.538 201.800 C 163.321 203.120,162.983 209.240,162.788 215.400 C 162.405 227.440,161.359 242.155,160.814 243.174 C 160.630 243.518,160.350 244.700,160.193 245.800 C 159.815 248.448,159.082 251.266,158.008 254.200 C 157.525 255.520,157.030 256.960,156.907 257.400 C 156.785 257.840,156.555 258.380,156.396 258.600 C 156.237 258.820,155.435 260.620,154.613 262.600 C 153.792 264.580,152.688 267.150,152.160 268.311 C 151.632 269.472,151.200 270.535,151.200 270.672 C 151.200 270.810,150.730 271.930,150.156 273.161 C 147.798 278.218,146.802 281.255,145.944 286.000 C 145.234 289.930,145.237 296.939,145.950 298.957 C 146.954 301.800,153.160 307.200,155.422 307.200 C 155.782 307.200,157.544 308.160,159.338 309.333 C 161.132 310.506,163.590 311.848,164.800 312.316 C 168.236 313.645,173.467 315.200,174.502 315.200 C 175.018 315.200,175.665 315.425,175.940 315.700 C 176.302 316.062,178.365 316.200,183.400 316.200 C 188.435 316.200,190.498 316.062,190.860 315.700 C 191.135 315.425,191.821 315.200,192.384 315.200 C 193.480 315.200,198.429 313.170,200.929 311.695 C 201.763 311.203,202.544 310.800,202.665 310.800 C 202.977 310.800,205.010 309.080,207.800 306.456 C 209.120 305.215,211.820 302.770,213.800 301.024 C 215.780 299.277,217.580 297.656,217.800 297.420 C 218.163 297.030,222.416 293.435,223.394 292.691 C 223.617 292.521,224.942 291.481,226.339 290.381 C 227.735 289.281,229.445 288.088,230.139 287.731 C 230.832 287.374,233.077 285.938,235.126 284.541 C 237.176 283.143,238.959 282.000,239.089 282.000 C 239.218 282.000,239.881 281.577,240.562 281.059 C 241.736 280.167,248.306 276.538,251.100 275.238 C 251.815 274.905,252.400 274.491,252.400 274.317 C 252.400 274.142,252.651 274.000,252.959 274.000 C 253.266 274.000,255.561 272.653,258.059 271.006 C 260.556 269.359,262.904 268.009,263.276 268.006 C 263.648 268.003,264.051 267.841,264.171 267.646 C 264.292 267.451,264.887 267.199,265.495 267.084 C 266.103 266.970,268.442 266.155,270.694 265.273 C 275.643 263.334,280.542 262.824,294.823 262.760 C 309.321 262.695,311.240 262.488,312.642 260.837 C 315.332 257.669,319.087 252.261,319.552 250.884 C 319.827 250.068,320.201 249.040,320.382 248.600 C 321.939 244.820,322.805 237.358,322.797 227.800 C 322.790 219.701,322.359 218.247,317.818 211.000 C 317.129 209.900,316.347 208.280,316.079 207.400 C 315.812 206.520,314.858 204.990,313.959 204.000 C 312.133 201.989,310.400 199.446,310.400 198.776 C 310.400 196.588,298.631 182.838,295.372 181.217 C 294.727 180.897,293.907 180.394,293.549 180.099 C 290.924 177.942,278.809 175.431,277.473 176.767 C 276.636 177.604,274.689 177.183,271.460 175.466 C 267.194 173.197,266.241 172.652,266.000 172.346 C 265.636 171.884,260.444 169.200,259.914 169.200 C 258.927 169.200,245.948 162.411,244.206 160.984 C 242.466 159.557,238.935 158.005,237.406 157.994 C 236.963 157.991,235.880 157.739,235.000 157.434 C 231.680 156.285,218.794 155.821,208.000 156.461 M219.699 160.716 C 221.324 162.065,221.979 173.105,221.063 183.700 C 220.662 188.328,220.498 188.421,217.225 185.858 C 216.001 184.900,214.280 183.871,213.400 183.573 C 212.520 183.274,211.350 182.743,210.800 182.394 C 210.250 182.044,207.693 180.699,205.118 179.405 L 200.437 177.052 199.185 174.509 C 198.293 172.696,197.339 171.498,195.866 170.338 C 192.486 167.676,192.572 166.757,196.467 163.916 C 198.739 162.259,199.286 162.034,203.200 161.155 C 208.214 160.028,218.538 159.753,219.699 160.716 M234.400 161.718 C 235.170 161.996,236.193 162.443,236.674 162.712 C 237.154 162.980,237.734 163.200,237.961 163.200 C 239.108 163.200,247.600 168.798,247.600 169.554 C 247.600 170.173,240.686 177.639,239.586 178.207 C 236.624 179.739,227.909 175.487,226.996 172.065 C 226.839 171.479,226.596 169.256,226.456 167.125 L 226.200 163.251 227.514 162.625 C 228.236 162.281,229.226 161.997,229.714 161.994 C 230.201 161.991,230.870 161.813,231.200 161.600 C 231.998 161.084,232.720 161.111,234.400 161.718 M192.684 173.800 C 194.303 175.679,195.200 177.631,195.200 179.277 C 195.200 180.072,195.726 181.081,196.813 182.369 C 199.455 185.503,200.773 189.620,201.079 195.696 L 201.275 199.591 200.137 200.041 C 198.775 200.579,183.644 200.245,182.520 199.652 C 182.124 199.443,180.720 198.829,179.400 198.287 C 178.080 197.746,176.370 196.950,175.600 196.518 L 174.200 195.733 174.085 191.614 C 173.932 186.102,176.468 180.084,179.865 177.899 C 181.752 176.685,187.109 172.168,187.581 171.394 L 188.161 170.439 189.733 171.320 C 190.597 171.804,191.925 172.920,192.684 173.800 M258.075 172.815 C 260.315 173.721,264.183 175.641,266.200 176.848 C 266.860 177.243,267.940 177.844,268.600 178.183 C 269.260 178.522,270.340 179.266,271.000 179.838 C 274.221 182.627,276.922 183.078,279.076 181.187 C 280.878 179.605,281.946 179.786,287.977 182.700 C 294.501 185.853,295.940 187.018,299.898 192.358 C 301.791 194.911,304.563 198.649,306.059 200.665 C 307.555 202.681,309.233 205.291,309.788 206.465 C 310.343 207.639,311.528 209.500,312.421 210.600 C 314.101 212.669,316.374 216.652,316.872 218.400 C 318.479 224.042,318.707 229.524,317.759 239.700 C 317.444 243.078,317.803 243.201,312.600 237.935 C 307.947 233.225,303.520 229.600,302.420 229.600 C 302.057 229.600,301.565 229.405,301.326 229.166 C 301.072 228.912,298.975 228.704,296.279 228.666 C 289.567 228.570,289.415 228.816,288.537 241.181 L 288.276 244.856 285.638 242.249 C 284.187 240.815,282.281 239.124,281.403 238.492 L 279.805 237.342 279.803 229.171 C 279.800 220.568,279.783 220.474,277.794 217.952 C 277.350 217.390,276.090 216.434,274.994 215.827 C 273.897 215.220,272.640 214.402,272.200 214.009 C 269.573 211.661,267.222 211.685,265.260 214.081 C 264.742 214.713,263.214 215.787,261.863 216.469 C 257.924 218.458,253.728 221.103,248.854 224.672 C 246.354 226.502,244.059 228.000,243.754 228.000 C 243.449 228.000,243.200 228.180,243.200 228.400 C 243.200 229.354,236.933 228.850,234.921 227.734 C 230.368 225.209,224.527 227.131,217.794 233.371 C 217.161 233.957,216.052 234.718,215.328 235.061 C 214.604 235.404,213.562 236.251,213.011 236.943 C 207.404 243.984,206.221 245.601,205.501 247.210 C 203.156 252.446,202.233 254.231,200.936 256.036 C 198.657 259.208,197.392 267.118,197.710 276.200 C 197.935 282.616,197.972 282.478,194.247 289.365 C 191.689 294.096,191.149 294.854,188.311 297.692 L 186.420 299.584 184.110 298.336 C 182.839 297.649,181.516 296.843,181.169 296.544 C 180.821 296.245,180.435 296.000,180.309 296.000 C 179.977 296.000,174.636 292.737,174.400 292.390 C 172.409 289.455,168.182 288.303,166.394 290.206 C 165.874 290.760,164.088 292.035,162.424 293.039 C 160.761 294.044,157.960 295.927,156.200 297.225 C 152.931 299.636,151.615 300.041,150.300 299.043 C 148.705 297.833,149.739 284.287,151.654 281.305 C 152.622 279.796,153.424 278.210,154.538 275.600 C 154.867 274.830,155.867 272.623,156.760 270.694 C 157.653 268.766,158.764 265.796,159.231 264.094 C 159.697 262.393,160.240 260.587,160.439 260.081 C 160.638 259.576,160.800 258.808,160.800 258.376 C 160.800 257.943,160.973 257.277,161.184 256.895 C 164.156 251.526,166.066 243.676,166.805 233.800 C 167.035 230.720,167.335 226.705,167.473 224.877 L 167.722 221.554 169.361 220.445 C 170.262 219.834,171.270 219.216,171.600 219.070 C 171.930 218.924,172.470 218.645,172.800 218.449 C 174.295 217.561,175.637 217.247,178.838 217.034 C 183.913 216.696,184.759 216.441,186.463 214.738 C 188.212 212.988,188.396 211.712,187.175 209.800 C 186.754 209.140,186.284 208.330,186.131 208.000 C 185.979 207.670,185.495 206.907,185.055 206.305 C 183.880 204.692,183.970 204.674,194.709 204.353 C 200.149 204.190,204.803 204.044,205.052 204.028 C 205.366 204.009,205.567 201.348,205.712 195.300 C 206.005 183.119,205.769 183.447,211.299 187.538 C 215.094 190.346,222.011 194.000,223.530 194.000 C 225.335 194.000,226.381 189.777,226.403 182.400 C 226.415 178.461,226.787 177.855,228.303 179.307 C 228.930 179.908,229.573 180.400,229.730 180.400 C 229.887 180.400,230.687 180.815,231.508 181.322 C 237.885 185.265,242.328 183.770,248.520 175.600 C 251.937 171.091,253.025 170.774,258.075 172.815 M172.648 198.828 C 173.466 199.999,180.007 207.594,181.892 209.561 C 183.050 210.770,183.188 210.681,179.024 211.407 C 175.791 211.971,173.584 212.761,169.443 214.839 C 167.490 215.819,167.444 215.763,167.518 212.495 C 167.675 205.568,168.698 200.164,170.121 198.741 C 171.531 197.330,171.604 197.333,172.648 198.828 M67.876 207.900 C 67.775 208.285,67.693 207.970,67.693 207.200 C 67.693 206.430,67.775 206.115,67.876 206.500 C 67.976 206.885,67.976 207.515,67.876 207.900 M68.959 223.000 C 69.133 226.994,69.085 228.324,68.792 227.639 C 68.566 227.111,68.307 222.701,68.216 217.839 C 68.042 208.489,68.450 211.324,68.959 223.000 M271.400 218.430 C 276.717 222.444,276.872 222.853,275.976 230.555 C 274.769 240.934,271.308 247.081,262.290 254.862 C 258.917 257.772,259.035 257.789,258.401 254.300 C 258.111 252.705,257.620 251.103,257.311 250.740 C 256.708 250.033,258.740 248.000,260.049 248.000 C 260.364 248.000,260.977 247.755,261.411 247.456 C 261.845 247.156,263.820 246.059,265.800 245.016 C 271.034 242.261,272.596 240.525,271.019 239.216 C 270.341 238.653,269.594 238.843,266.000 240.491 C 264.570 241.147,262.770 241.951,262.000 242.277 C 261.230 242.604,258.217 244.041,255.304 245.470 L 250.008 248.069 239.104 248.032 C 227.917 247.995,226.200 248.203,226.200 249.596 C 226.200 249.912,226.740 250.430,227.400 250.750 C 228.060 251.069,228.940 251.498,229.355 251.703 C 230.287 252.163,236.846 253.183,238.937 253.193 L 240.474 253.200 238.757 255.300 C 237.812 256.455,236.087 258.421,234.922 259.668 C 232.740 262.005,232.000 263.356,232.000 265.000 C 232.000 265.522,231.010 267.428,229.800 269.236 C 228.590 271.043,227.600 272.675,227.600 272.861 C 227.600 273.048,227.465 273.200,227.299 273.200 C 227.134 273.200,226.569 274.010,226.044 275.000 C 225.134 276.714,223.600 277.525,223.600 276.291 C 223.600 270.980,210.100 269.247,205.589 273.979 C 205.473 274.100,204.509 275.010,203.447 276.000 L 201.516 277.800 201.787 273.400 C 201.936 270.980,202.210 268.460,202.397 267.800 C 203.971 262.241,204.513 260.496,204.876 259.828 C 205.282 259.083,207.000 254.510,208.268 250.800 C 208.607 249.810,209.135 248.716,209.442 248.369 C 209.749 248.021,210.000 247.603,210.000 247.439 C 210.000 246.334,218.761 237.548,222.910 234.491 C 229.108 229.925,230.018 229.821,236.800 232.908 C 240.269 234.486,242.248 234.342,245.012 232.307 C 246.339 231.330,247.934 230.403,248.556 230.247 C 249.178 230.091,250.613 229.101,251.744 228.047 C 253.719 226.207,257.268 223.600,257.799 223.600 C 257.939 223.600,258.643 223.150,259.364 222.600 C 260.086 222.050,260.772 221.600,260.889 221.600 C 261.085 221.600,263.245 220.315,266.800 218.082 C 268.650 216.920,269.484 216.983,271.400 218.430 M297.525 232.616 C 304.135 234.788,315.600 244.933,315.600 248.609 C 315.600 253.472,307.005 259.393,303.709 256.800 C 303.150 256.360,302.281 256.000,301.779 256.000 C 299.356 256.000,296.116 253.768,294.087 250.701 L 293.000 249.058 293.000 241.371 C 293.000 231.670,293.239 231.208,297.525 232.616 M140.160 235.906 C 138.745 236.851,137.297 244.671,137.977 247.696 C 138.245 248.887,138.137 249.888,137.522 251.928 C 137.079 253.398,136.565 255.500,136.380 256.600 C 136.195 257.700,135.840 259.680,135.591 261.000 C 135.343 262.320,134.991 264.840,134.810 266.600 C 134.628 268.360,134.352 270.478,134.194 271.307 C 133.839 273.179,134.589 275.200,135.640 275.200 C 136.405 275.200,138.000 272.625,138.000 271.391 C 138.000 271.039,138.250 269.906,138.555 268.875 C 138.860 267.844,139.321 266.010,139.579 264.800 C 140.328 261.282,141.596 255.903,141.982 254.600 C 144.784 245.148,143.656 233.572,140.160 235.906 M282.361 244.512 C 283.243 245.453,284.606 247.047,285.390 248.053 C 286.174 249.059,287.430 250.213,288.181 250.618 C 288.932 251.022,289.716 251.724,289.924 252.177 C 290.871 254.248,291.193 255.287,290.989 255.618 C 290.671 256.132,285.784 257.477,283.200 257.760 C 278.610 258.265,275.759 258.716,274.600 259.124 C 273.940 259.355,271.960 259.950,270.200 260.445 C 268.440 260.940,266.829 261.493,266.620 261.673 C 266.144 262.083,263.199 262.106,263.201 261.700 C 263.205 260.984,264.913 258.774,267.762 255.800 C 269.448 254.040,271.399 251.790,272.097 250.800 C 274.625 247.213,279.027 242.800,280.076 242.800 C 280.450 242.800,281.478 243.570,282.361 244.512 M253.270 254.700 C 253.597 255.085,254.322 256.391,254.880 257.601 C 255.816 259.628,258.343 262.432,260.222 263.526 C 261.127 264.054,259.888 265.266,256.689 266.980 C 255.760 267.479,254.331 268.266,253.512 268.729 C 252.694 269.193,250.804 270.240,249.312 271.057 C 247.821 271.873,246.060 272.857,245.400 273.243 C 244.740 273.630,243.300 274.431,242.200 275.024 C 241.100 275.618,240.110 276.215,240.000 276.351 C 239.461 277.022,234.811 280.400,234.428 280.400 C 234.033 280.400,233.539 280.617,231.600 281.641 C 227.850 283.623,219.546 289.778,217.400 292.167 C 217.052 292.554,213.283 295.822,209.816 298.742 C 204.817 302.952,198.687 305.708,194.712 305.532 C 188.931 305.276,189.134 304.379,197.461 293.372 C 198.637 291.817,199.600 290.336,199.600 290.081 C 199.600 289.827,200.140 288.620,200.800 287.400 C 201.460 286.180,202.000 284.998,202.000 284.774 C 202.000 281.332,210.941 275.078,215.568 275.283 L 218.191 275.400 219.048 277.207 C 219.868 278.939,224.038 283.600,224.767 283.600 C 225.543 283.600,228.945 279.130,231.020 275.387 C 231.625 274.294,232.762 272.410,233.546 271.200 C 235.178 268.681,235.526 268.084,236.808 265.600 C 238.236 262.835,242.888 257.552,244.556 256.800 C 244.800 256.690,245.530 256.240,246.178 255.800 C 248.818 254.006,252.232 253.477,253.270 254.700 M129.852 263.946 C 129.248 264.576,128.503 265.881,128.196 266.846 C 127.889 267.811,127.335 269.410,126.966 270.400 C 126.596 271.390,126.156 272.830,125.987 273.600 C 125.818 274.370,125.306 276.350,124.850 278.000 C 122.553 286.293,124.796 296.290,129.329 297.964 C 131.316 298.697,132.022 294.965,130.517 291.687 C 129.625 289.743,129.659 282.185,130.584 276.822 C 131.632 270.742,132.007 268.716,132.416 266.894 C 132.973 264.418,132.895 263.679,132.026 263.214 C 131.007 262.669,131.108 262.635,129.852 263.946 M263.400 279.432 C 262.740 279.517,260.670 279.784,258.800 280.025 C 253.897 280.657,248.523 283.680,243.007 288.909 C 236.751 294.839,235.567 296.311,234.082 300.000 C 233.861 300.550,233.302 301.853,232.840 302.896 C 232.378 303.938,232.000 304.976,232.000 305.201 C 232.000 305.426,231.829 305.923,231.619 306.305 C 230.851 307.708,228.000 315.009,228.000 315.576 C 228.000 316.144,229.191 317.200,229.832 317.200 C 230.949 317.200,232.667 314.963,233.895 311.909 C 234.578 310.209,236.142 307.278,237.369 305.395 C 238.596 303.513,239.600 301.516,239.600 300.958 C 239.600 298.857,246.676 290.789,250.800 288.188 C 257.168 284.173,259.278 283.611,268.011 283.603 C 273.147 283.599,275.047 282.234,272.777 280.179 C 271.957 279.437,266.637 279.013,263.400 279.432 M259.397 288.504 C 258.515 289.217,257.394 290.160,256.905 290.600 C 256.415 291.040,254.983 291.942,253.721 292.603 C 252.439 293.276,251.216 294.246,250.950 294.803 C 250.687 295.352,250.146 296.473,249.748 297.295 C 249.349 298.118,248.443 299.338,247.735 300.006 C 246.013 301.630,245.779 302.547,246.690 304.111 C 248.133 306.589,250.562 305.655,253.104 301.643 C 256.001 297.072,259.823 293.563,263.300 292.283 C 264.265 291.927,264.322 287.809,263.367 287.443 C 262.071 286.945,260.956 287.243,259.397 288.504 M172.806 296.100 C 176.397 299.181,178.101 300.368,179.000 300.416 C 179.440 300.439,180.340 300.803,181.000 301.225 C 181.660 301.647,182.605 302.202,183.100 302.460 C 184.659 303.272,182.979 304.660,178.600 306.178 C 177.500 306.559,176.287 307.035,175.905 307.235 C 174.967 307.728,168.661 307.701,168.162 307.202 C 167.944 306.984,166.170 306.509,164.221 306.147 C 161.758 305.691,160.160 305.141,158.981 304.345 C 158.047 303.715,157.085 303.200,156.842 303.200 C 156.166 303.200,156.316 302.354,157.100 301.740 C 161.879 297.997,168.354 294.086,169.879 294.021 C 170.143 294.009,171.460 294.945,172.806 296.100 M192.600 308.000 C 193.463 308.440,194.416 308.800,194.718 308.800 C 195.701 308.800,194.971 309.772,193.770 310.062 C 193.127 310.218,191.880 310.520,191.000 310.733 C 185.687 312.022,180.624 312.370,178.567 311.587 C 177.486 311.177,177.495 311.166,180.441 309.203 L 183.400 307.232 187.215 307.216 C 190.263 307.203,191.347 307.361,192.600 308.000 " stroke="none" fill="#000000" fill-rule="evenodd"></path><path id="path1" d="M213.546 29.388 C 213.442 29.491,209.047 29.846,203.779 30.177 C 194.203 30.779,191.382 31.153,188.000 32.270 C 185.203 33.194,179.915 35.237,178.738 35.849 C 178.154 36.152,177.310 36.400,176.862 36.400 C 174.053 36.400,176.365 37.130,179.913 37.363 C 182.271 37.518,186.630 37.800,189.600 37.989 C 196.295 38.417,202.349 39.145,203.259 39.632 C 203.638 39.834,204.634 40.006,205.474 40.014 C 206.313 40.022,208.080 40.306,209.400 40.644 C 223.572 44.280,223.541 44.287,225.434 37.400 C 226.725 32.705,231.883 29.385,233.749 32.049 C 234.439 33.034,234.240 33.746,232.462 36.642 C 231.801 37.719,231.131 39.140,230.973 39.800 C 230.815 40.460,230.261 41.809,229.743 42.797 C 228.797 44.599,228.524 46.000,229.118 46.000 C 229.293 46.000,230.026 44.785,230.747 43.300 C 231.468 41.815,232.440 39.816,232.907 38.858 C 233.928 36.763,234.785 36.174,237.337 35.813 C 241.556 35.218,245.584 30.630,242.753 29.644 C 241.508 29.209,213.965 28.968,213.546 29.388 M255.600 33.114 C 255.600 33.286,255.054 33.750,254.387 34.144 C 252.273 35.393,248.105 39.136,247.203 40.595 C 246.725 41.368,245.377 42.636,244.208 43.412 C 242.034 44.855,239.590 47.383,239.613 48.164 C 239.620 48.404,239.845 48.323,240.113 47.984 C 241.847 45.790,245.461 44.400,249.428 44.400 C 252.975 44.400,252.668 47.978,249.001 49.378 C 247.988 49.765,246.288 50.668,245.225 51.383 C 244.161 52.099,242.415 52.936,241.345 53.242 C 237.519 54.339,234.677 58.226,233.362 64.161 C 233.016 65.722,232.553 67.720,232.332 68.600 C 232.111 69.480,231.781 71.010,231.598 72.000 C 230.452 78.221,227.074 86.532,225.488 87.036 C 224.910 87.219,224.456 87.020,223.922 86.347 C 222.990 85.173,223.153 83.885,225.844 71.200 C 226.160 69.714,225.447 70.600,224.076 73.400 C 222.259 77.112,221.297 80.321,221.019 83.600 C 220.879 85.250,220.620 88.418,220.443 90.640 C 220.267 92.861,220.013 94.856,219.880 95.071 C 219.746 95.287,219.444 96.675,219.207 98.156 C 218.729 101.149,218.127 102.400,217.166 102.400 C 216.256 102.400,215.203 101.110,215.182 99.969 C 215.155 98.463,214.158 95.021,213.880 95.471 C 213.660 95.827,213.189 98.078,212.557 101.800 C 212.445 102.460,212.074 104.620,211.733 106.600 C 211.068 110.456,210.578 115.260,210.160 122.000 C 209.763 128.396,206.360 129.762,204.938 124.096 C 204.794 123.522,204.435 122.591,204.141 122.027 C 203.846 121.462,203.604 120.550,203.602 120.000 C 203.593 116.951,201.752 110.601,199.764 106.761 C 199.469 106.189,199.035 103.669,198.802 101.161 C 198.263 95.367,198.177 95.077,197.158 95.622 C 194.066 97.277,193.201 90.596,195.419 82.200 C 197.538 74.176,198.283 70.718,198.951 65.800 C 200.040 57.777,201.407 54.831,204.051 54.809 C 205.677 54.795,206.129 55.729,206.328 59.509 C 206.479 62.400,206.646 63.074,207.354 63.667 C 208.286 64.445,209.200 64.616,209.200 64.012 C 209.200 63.611,210.258 61.172,212.667 56.022 C 214.484 52.136,215.600 51.257,216.971 52.629 C 218.127 53.784,217.788 55.594,215.241 61.874 C 213.859 65.281,214.339 65.235,216.011 61.800 C 216.868 60.040,217.576 58.470,217.584 58.311 C 217.593 58.152,218.034 57.072,218.565 55.911 C 221.398 49.717,221.510 48.276,219.200 47.777 C 217.408 47.389,215.021 46.725,214.046 46.342 C 206.269 43.291,166.323 41.525,157.258 43.833 C 155.188 44.360,150.272 46.837,149.808 47.587 C 149.683 47.789,148.130 48.727,146.356 49.672 C 142.149 51.914,122.012 70.827,116.168 78.025 C 113.904 80.813,114.236 83.061,117.000 83.660 C 117.660 83.803,120.000 84.369,122.200 84.918 C 126.240 85.926,130.231 86.736,132.800 87.068 C 133.570 87.168,134.560 87.399,135.000 87.581 C 135.440 87.763,136.610 88.121,137.600 88.377 C 140.104 89.024,143.289 90.235,146.701 91.837 C 148.297 92.587,149.950 93.200,150.376 93.200 C 150.802 93.200,151.599 93.695,152.148 94.300 C 152.697 94.905,154.328 96.698,155.773 98.284 C 157.218 99.870,158.400 101.367,158.400 101.610 C 158.400 102.787,157.523 103.521,155.811 103.777 C 154.815 103.927,154.000 104.234,154.000 104.460 C 154.000 104.779,162.566 115.079,163.597 116.000 C 164.498 116.805,166.545 119.860,167.753 122.200 C 169.531 125.647,171.289 127.590,175.309 130.553 C 180.533 134.404,182.355 138.271,182.689 146.217 C 182.872 150.580,182.812 151.181,182.046 152.611 C 181.580 153.478,181.200 154.491,181.200 154.862 C 181.200 155.611,179.969 158.125,179.500 158.333 C 179.335 158.407,179.200 158.690,179.200 158.964 C 179.200 160.676,174.701 167.655,171.183 171.400 C 169.943 172.720,168.327 174.700,167.593 175.800 C 164.017 181.157,153.688 192.000,152.161 192.000 C 151.915 192.000,147.776 195.008,147.200 195.605 C 147.090 195.720,146.401 196.305,145.669 196.906 L 144.339 198.000 131.040 198.000 L 117.741 198.000 114.216 195.333 C 108.098 190.703,100.800 182.573,100.800 180.388 C 100.800 180.174,100.655 180.000,100.477 180.000 C 100.299 180.000,99.824 179.235,99.421 178.300 C 99.017 177.365,98.353 175.891,97.944 175.025 C 96.142 171.210,97.061 142.404,99.124 138.000 C 100.212 135.679,107.571 128.035,111.833 124.800 C 112.268 124.470,113.428 123.562,114.412 122.783 C 117.263 120.525,125.556 116.800,127.734 116.800 C 128.106 116.800,128.723 116.636,129.105 116.435 C 131.421 115.216,145.734 115.212,146.980 116.429 C 147.189 116.633,147.757 116.800,148.242 116.800 C 149.386 116.800,152.073 118.244,154.003 119.895 C 155.572 121.238,156.400 121.535,156.400 120.754 C 156.400 120.239,153.015 115.056,152.032 114.066 C 151.668 113.700,150.207 112.053,148.785 110.406 C 143.767 104.594,137.473 99.200,135.712 99.200 C 135.558 99.200,134.255 98.633,132.816 97.940 C 129.683 96.430,128.817 96.065,124.400 94.396 C 121.336 93.238,119.878 92.657,117.400 91.607 C 111.631 89.163,108.683 88.000,108.256 88.000 C 107.782 88.000,99.194 96.572,90.800 105.422 C 83.665 112.946,81.221 117.081,80.055 123.600 C 79.838 124.810,79.282 127.690,78.819 130.000 C 78.356 132.310,77.813 135.054,77.613 136.098 C 77.205 138.225,75.613 142.972,73.252 149.106 C 72.382 151.364,71.491 154.064,71.271 155.106 C 71.051 156.148,70.416 159.250,69.861 162.000 C 68.626 168.116,67.895 171.038,67.500 171.434 C 67.335 171.598,67.200 172.288,67.199 172.967 C 67.199 174.186,66.495 175.762,65.061 177.752 C 63.094 180.484,63.534 190.345,65.733 192.778 L 67.200 194.402 67.228 198.501 C 67.244 200.756,67.406 202.960,67.589 203.400 C 67.779 203.858,67.911 200.612,67.899 195.800 C 67.875 187.018,68.244 184.742,69.787 184.150 C 71.432 183.518,71.534 184.249,71.717 197.925 C 71.927 213.713,73.216 229.278,74.650 233.340 C 74.952 234.199,75.200 235.330,75.200 235.856 C 75.200 236.381,75.365 237.123,75.567 237.505 C 75.962 238.254,77.019 241.850,77.417 243.800 C 77.552 244.460,77.812 245.360,77.995 245.800 C 78.178 246.240,78.623 247.590,78.982 248.800 C 79.738 251.344,81.098 255.087,81.632 256.095 C 81.834 256.477,82.000 257.141,82.000 257.571 C 82.000 258.001,82.163 258.454,82.363 258.577 C 82.563 258.701,83.031 259.836,83.404 261.101 C 83.777 262.365,84.230 263.850,84.412 264.400 C 84.726 265.354,85.038 266.772,85.979 271.531 C 86.210 272.702,86.400 274.281,86.400 275.038 C 86.400 278.704,89.214 285.812,92.911 291.484 C 95.969 296.177,98.069 298.728,105.831 307.187 C 106.948 308.404,108.258 310.060,108.743 310.866 C 109.580 312.261,113.677 316.175,115.123 316.963 C 115.495 317.166,115.890 317.437,116.000 317.566 C 116.110 317.696,116.650 318.010,117.200 318.266 C 121.437 320.236,127.000 323.021,129.000 324.173 C 130.320 324.934,132.013 325.870,132.762 326.253 C 134.188 326.983,136.176 328.839,138.196 331.327 C 138.854 332.137,139.517 332.800,139.670 332.800 C 140.281 332.800,144.504 335.602,150.038 339.679 C 157.272 345.008,162.148 347.517,167.800 348.821 C 168.680 349.024,170.930 349.565,172.800 350.024 C 174.670 350.483,176.920 351.012,177.800 351.198 C 178.680 351.385,180.570 351.823,182.000 352.171 C 186.838 353.350,191.794 354.473,193.000 354.664 C 193.660 354.769,194.560 355.008,195.000 355.196 C 199.992 357.328,222.319 355.529,225.889 352.707 C 226.418 352.289,228.356 351.734,231.200 351.187 C 232.190 350.997,233.900 350.661,235.000 350.440 C 240.221 349.393,243.930 348.801,245.274 348.801 C 246.085 348.800,247.255 348.605,247.874 348.366 C 249.211 347.851,254.793 347.330,264.400 346.823 C 268.250 346.621,273.200 346.244,275.400 345.987 C 277.600 345.730,280.660 345.373,282.200 345.194 C 283.740 345.016,286.260 344.585,287.800 344.238 C 289.340 343.890,291.500 343.434,292.600 343.224 C 294.836 342.797,300.258 341.085,302.400 340.131 C 304.895 339.018,308.965 337.156,310.400 336.470 C 315.261 334.145,324.297 318.337,327.590 306.400 C 327.863 305.410,328.324 303.970,328.614 303.200 C 328.904 302.430,329.250 300.990,329.382 300.000 C 329.610 298.296,330.467 295.154,331.184 293.400 C 331.364 292.960,332.012 291.430,332.625 290.000 C 333.238 288.570,333.874 286.770,334.039 286.000 C 334.911 281.913,336.032 280.400,338.187 280.400 C 339.604 280.400,341.265 278.775,342.244 276.433 C 343.181 274.191,343.343 259.777,342.779 228.800 C 342.005 186.308,342.153 189.495,340.853 187.284 C 339.385 184.787,336.252 178.208,335.574 176.200 C 335.277 175.320,334.812 174.327,334.539 173.993 C 332.658 171.686,331.896 167.532,333.000 165.600 C 333.314 165.050,333.578 164.263,333.586 163.850 C 333.604 162.892,332.654 160.692,326.027 146.343 C 325.352 144.881,324.800 143.407,324.800 143.066 C 324.800 142.726,324.634 142.345,324.431 142.219 C 324.228 142.094,323.939 141.433,323.789 140.752 C 323.640 140.071,322.976 138.318,322.314 136.857 C 319.667 131.010,319.093 129.767,318.685 129.000 C 317.782 127.300,316.831 125.320,315.993 123.400 C 315.514 122.300,313.803 118.700,312.193 115.400 C 309.346 109.567,306.800 104.092,306.800 103.801 C 306.800 103.722,305.031 99.999,302.869 95.528 C 300.707 91.058,298.239 85.870,297.384 84.000 C 294.923 78.619,290.682 72.083,286.743 67.600 C 285.275 65.930,283.640 62.274,283.612 60.600 C 283.507 54.444,271.440 41.179,262.023 36.867 C 259.642 35.777,259.709 35.820,257.547 34.014 C 256.062 32.773,255.600 32.559,255.600 33.114 M118.378 65.073 L 117.000 66.546 118.700 65.239 C 119.635 64.521,120.400 63.858,120.400 63.766 C 120.400 63.254,119.592 63.776,118.378 65.073 M189.600 72.387 C 189.600 73.736,187.254 76.400,186.067 76.400 C 185.678 76.400,185.189 76.549,184.980 76.731 C 182.898 78.545,176.831 80.073,175.192 79.196 C 174.582 78.869,174.190 79.032,173.156 80.043 C 171.911 81.260,168.321 83.188,167.286 83.196 C 166.604 83.201,164.925 84.298,163.200 85.864 C 159.888 88.871,157.746 89.692,155.472 88.827 C 151.998 87.506,154.586 83.997,161.309 80.913 C 165.251 79.104,168.239 77.142,171.956 73.922 C 174.399 71.806,177.160 72.197,175.100 74.367 C 174.410 75.093,178.957 74.176,182.400 72.894 C 182.730 72.771,183.810 72.364,184.800 71.989 C 187.895 70.816,189.600 70.958,189.600 72.387 M259.200 73.615 C 267.669 74.210,268.689 74.598,274.110 79.293 C 276.210 81.112,278.530 83.043,279.264 83.584 C 282.290 85.811,296.404 100.763,297.136 102.516 C 297.431 103.222,298.889 105.600,300.376 107.800 C 302.935 111.586,307.338 119.587,308.300 122.200 C 308.543 122.860,309.115 124.387,309.571 125.594 C 310.465 127.960,310.841 142.745,310.047 144.305 C 309.617 145.150,309.035 146.500,308.232 148.515 C 306.477 152.919,295.433 160.991,289.651 162.095 C 287.217 162.560,277.878 163.127,271.600 163.191 C 268.850 163.219,265.250 163.513,263.600 163.844 C 257.180 165.133,250.400 164.368,250.400 162.355 C 250.400 162.160,250.168 162.000,249.885 162.000 C 249.602 162.000,248.747 161.467,247.985 160.816 C 247.223 160.165,246.453 159.625,246.273 159.616 C 245.247 159.565,235.690 151.983,232.575 148.749 C 225.925 141.843,219.607 132.649,219.602 129.874 C 219.601 129.034,219.403 127.979,219.162 127.529 C 218.504 126.299,218.568 110.925,219.239 108.949 C 219.529 108.097,220.539 106.266,221.483 104.881 C 222.427 103.495,223.200 102.270,223.200 102.159 C 223.200 101.823,226.392 97.210,228.973 93.815 C 231.316 90.733,237.152 84.634,242.300 79.886 C 243.675 78.618,244.805 77.360,244.811 77.090 C 244.883 73.820,248.766 72.882,259.200 73.615 M255.200 77.457 C 250.313 78.374,244.587 82.490,237.998 89.820 C 236.822 91.129,235.747 92.290,235.611 92.400 C 234.829 93.030,227.200 103.764,227.200 104.233 C 227.200 104.356,226.693 105.208,226.073 106.128 C 224.947 107.799,224.044 109.581,223.208 111.778 C 222.288 114.198,222.672 124.235,223.821 127.800 C 224.730 130.623,227.033 135.849,227.609 136.400 C 227.724 136.510,228.119 137.073,228.486 137.650 C 230.653 141.061,239.199 150.450,240.856 151.242 C 241.595 151.595,242.830 152.176,243.600 152.533 C 244.370 152.890,245.900 153.727,247.000 154.395 C 248.100 155.062,250.030 156.146,251.289 156.804 L 253.577 158.000 272.419 158.000 L 291.261 158.000 293.563 156.229 C 294.829 155.255,296.853 153.860,298.061 153.129 C 300.333 151.755,302.800 149.825,302.800 149.421 C 302.800 148.884,304.602 145.299,305.458 144.135 C 306.970 142.077,307.102 133.482,305.684 129.400 C 305.455 128.740,305.055 127.480,304.796 126.600 C 303.191 121.160,300.322 115.516,295.855 109.015 C 294.945 107.690,294.110 106.417,294.000 106.185 C 293.596 105.332,291.392 102.417,291.146 102.409 C 291.006 102.404,290.773 103.355,290.627 104.523 C 290.201 107.934,288.430 111.189,286.217 112.630 C 284.402 113.812,269.987 113.652,267.445 112.422 C 264.194 110.848,263.200 106.826,263.200 95.242 C 263.200 86.395,264.204 83.600,267.382 83.600 C 268.582 83.600,270.386 82.430,270.147 81.807 C 269.262 79.499,259.482 76.653,255.200 77.457 M272.600 87.229 C 272.160 87.402,270.967 87.556,269.949 87.572 C 267.079 87.615,267.043 87.732,267.309 96.169 C 267.652 107.040,268.005 107.720,273.688 108.437 C 278.419 109.034,283.058 108.405,284.814 106.927 C 287.290 104.843,286.145 100.522,281.471 94.312 C 277.705 89.308,274.275 86.570,272.600 87.229 M189.577 97.167 C 190.657 98.685,194.245 105.967,195.506 109.200 C 195.720 109.750,196.256 111.100,196.698 112.200 C 199.155 118.327,198.992 120.000,195.936 120.000 C 193.893 120.000,192.704 118.638,191.611 115.046 C 190.489 111.356,190.057 110.151,189.149 108.175 C 185.964 101.249,186.302 92.569,189.577 97.167 M182.007 109.169 C 183.792 110.954,184.921 112.924,187.751 119.194 C 187.998 119.741,188.965 121.339,189.900 122.747 C 193.018 127.440,191.670 133.625,188.297 130.100 C 186.907 128.647,180.000 115.646,180.000 114.483 C 180.000 114.321,179.653 113.540,179.228 112.748 C 176.627 107.895,178.422 105.584,182.007 109.169 M129.407 120.590 C 123.506 122.291,110.496 130.537,111.402 132.003 C 111.513 132.183,112.368 132.448,113.302 132.592 C 120.032 133.630,123.401 137.549,126.000 147.365 C 128.613 157.230,119.524 165.763,106.603 165.577 L 102.200 165.513 102.334 168.457 C 102.407 170.075,102.736 172.480,103.065 173.800 C 103.394 175.120,103.760 176.608,103.879 177.106 C 103.998 177.604,104.254 178.110,104.448 178.230 C 104.641 178.349,104.800 178.797,104.800 179.224 C 104.800 179.651,104.939 180.000,105.109 180.000 C 105.279 180.000,105.756 180.627,106.168 181.393 C 106.581 182.159,107.301 183.037,107.770 183.344 C 108.239 183.651,109.122 184.689,109.732 185.651 C 110.960 187.585,114.624 190.489,117.983 192.191 C 122.193 194.325,139.989 194.543,143.556 192.504 C 145.115 191.613,152.673 185.547,153.208 184.758 C 153.322 184.589,155.214 182.595,157.412 180.326 C 161.306 176.306,163.052 174.305,164.897 171.750 C 165.394 171.063,166.600 169.443,167.577 168.150 C 175.455 157.733,178.400 153.202,178.400 151.499 C 178.400 151.168,178.688 150.208,179.040 149.365 C 179.688 147.816,179.581 144.759,178.828 143.265 C 178.644 142.899,177.906 141.368,177.189 139.862 C 175.779 136.900,174.251 135.512,170.035 133.361 C 168.806 132.733,166.225 131.176,164.300 129.900 C 159.270 126.565,160.038 130.189,165.255 134.404 C 167.091 135.887,167.201 135.959,170.362 137.764 C 171.483 138.404,172.400 139.079,172.400 139.264 C 172.400 139.449,172.651 139.600,172.957 139.600 C 173.848 139.600,174.084 140.844,173.348 141.658 C 171.406 143.804,162.386 139.197,159.831 134.755 C 155.366 126.990,151.049 122.201,147.308 120.860 C 145.024 120.041,131.992 119.845,129.407 120.590 M327.791 136.200 C 330.565 144.550,331.646 147.364,333.632 151.400 C 335.986 156.184,335.993 156.194,335.835 154.200 C 335.577 150.934,335.018 149.070,333.175 145.337 C 330.900 140.729,327.222 134.486,327.791 136.200 M108.400 136.714 C 107.137 136.882,104.523 138.668,103.477 140.078 C 101.931 142.161,101.516 157.688,102.968 159.139 C 104.121 160.293,114.241 159.651,115.780 158.327 C 115.989 158.147,116.406 158.000,116.707 158.000 C 119.006 158.000,121.600 153.569,121.600 149.641 C 121.600 141.892,115.367 135.788,108.400 136.714 M226.540 156.440 C 230.313 156.682,234.120 157.130,235.000 157.434 C 235.880 157.739,236.963 157.991,237.406 157.994 C 238.935 158.005,242.466 159.557,244.206 160.984 C 245.948 162.411,258.927 169.200,259.914 169.200 C 260.444 169.200,265.636 171.884,266.000 172.346 C 266.241 172.652,267.194 173.197,271.460 175.466 C 274.689 177.183,276.636 177.604,277.473 176.767 C 278.809 175.431,290.924 177.942,293.549 180.099 C 293.907 180.394,294.727 180.897,295.372 181.217 C 298.631 182.838,310.400 196.588,310.400 198.776 C 310.400 199.446,312.133 201.989,313.959 204.000 C 314.858 204.990,315.812 206.520,316.079 207.400 C 316.347 208.280,317.129 209.900,317.818 211.000 C 322.359 218.247,322.790 219.701,322.797 227.800 C 322.805 237.358,321.939 244.820,320.382 248.600 C 320.201 249.040,319.827 250.068,319.552 250.884 C 319.087 252.261,315.332 257.669,312.642 260.837 C 311.240 262.488,309.321 262.695,294.823 262.760 C 280.542 262.824,275.643 263.334,270.694 265.273 C 268.442 266.155,266.103 266.970,265.495 267.084 C 264.887 267.199,264.292 267.451,264.171 267.646 C 264.051 267.841,263.648 268.003,263.276 268.006 C 262.904 268.009,260.556 269.359,258.059 271.006 C 255.561 272.653,253.266 274.000,252.959 274.000 C 252.651 274.000,252.400 274.142,252.400 274.317 C 252.400 274.491,251.815 274.905,251.100 275.238 C 248.306 276.538,241.736 280.167,240.562 281.059 C 239.881 281.577,239.218 282.000,239.089 282.000 C 238.959 282.000,237.176 283.143,235.126 284.541 C 233.077 285.938,230.832 287.374,230.139 287.731 C 229.445 288.088,227.735 289.281,226.339 290.381 C 224.942 291.481,223.617 292.521,223.394 292.691 C 222.416 293.435,218.163 297.030,217.800 297.420 C 217.580 297.656,215.780 299.277,213.800 301.024 C 211.820 302.770,209.120 305.215,207.800 306.456 C 205.010 309.080,202.977 310.800,202.665 310.800 C 202.544 310.800,201.763 311.203,200.929 311.695 C 198.429 313.170,193.480 315.200,192.384 315.200 C 191.821 315.200,191.135 315.425,190.860 315.700 C 190.498 316.062,188.435 316.200,183.400 316.200 C 178.365 316.200,176.302 316.062,175.940 315.700 C 175.665 315.425,175.018 315.200,174.502 315.200 C 173.467 315.200,168.236 313.645,164.800 312.316 C 163.590 311.848,161.132 310.506,159.338 309.333 C 157.544 308.160,155.782 307.200,155.422 307.200 C 153.160 307.200,146.954 301.800,145.950 298.957 C 145.237 296.939,145.234 289.930,145.944 286.000 C 146.802 281.255,147.798 278.218,150.156 273.161 C 150.730 271.930,151.200 270.810,151.200 270.672 C 151.200 270.535,151.632 269.472,152.160 268.311 C 152.688 267.150,153.792 264.580,154.613 262.600 C 155.435 260.620,156.237 258.820,156.396 258.600 C 156.555 258.380,156.785 257.840,156.907 257.400 C 157.030 256.960,157.525 255.520,158.008 254.200 C 159.082 251.266,159.815 248.448,160.193 245.800 C 160.350 244.700,160.630 243.518,160.814 243.174 C 161.359 242.155,162.405 227.440,162.788 215.400 C 162.983 209.240,163.321 203.120,163.538 201.800 C 164.405 196.514,166.470 186.977,166.824 186.620 C 167.031 186.411,167.200 185.985,167.200 185.674 C 167.200 185.092,169.563 181.660,170.996 180.158 C 172.996 178.065,175.923 174.862,177.173 173.400 C 180.459 169.557,188.605 162.806,192.600 160.614 C 193.700 160.010,194.780 159.386,195.000 159.227 C 198.423 156.749,212.276 155.525,226.540 156.440 M207.600 160.402 C 205.158 160.729,203.144 161.126,200.110 161.880 C 198.390 162.307,194.231 165.375,193.653 166.644 C 193.072 167.920,193.319 168.332,195.866 170.338 C 197.339 171.498,198.293 172.696,199.185 174.509 L 200.437 177.052 205.118 179.405 C 207.693 180.699,210.250 182.044,210.800 182.394 C 211.350 182.743,212.520 183.274,213.400 183.573 C 214.280 183.871,216.001 184.900,217.225 185.858 C 220.498 188.421,220.662 188.328,221.063 183.700 C 221.979 173.105,221.324 162.065,219.699 160.716 C 219.035 160.166,210.934 159.955,207.600 160.402 M231.200 161.600 C 230.870 161.813,230.201 161.991,229.714 161.994 C 229.226 161.997,228.236 162.281,227.514 162.625 L 226.200 163.251 226.456 167.125 C 226.596 169.256,226.839 171.479,226.996 172.065 C 227.909 175.487,236.624 179.739,239.586 178.207 C 240.686 177.639,247.600 170.173,247.600 169.554 C 247.600 168.798,239.108 163.200,237.961 163.200 C 237.734 163.200,237.154 162.980,236.674 162.712 C 234.271 161.369,232.206 160.950,231.200 161.600 M187.581 171.394 C 187.109 172.168,181.752 176.685,179.865 177.899 C 176.468 180.084,173.932 186.102,174.085 191.614 L 174.200 195.733 175.600 196.518 C 176.370 196.950,178.080 197.746,179.400 198.287 C 180.720 198.829,182.124 199.443,182.520 199.652 C 183.644 200.245,198.775 200.579,200.137 200.041 L 201.275 199.591 201.079 195.696 C 200.773 189.620,199.455 185.503,196.813 182.369 C 195.726 181.081,195.200 180.072,195.200 179.277 C 195.200 176.669,192.646 172.951,189.733 171.320 L 188.161 170.439 187.581 171.394 M251.165 172.453 C 250.627 172.974,249.437 174.390,248.520 175.600 C 242.328 183.770,237.885 185.265,231.508 181.322 C 230.687 180.815,229.887 180.400,229.730 180.400 C 229.573 180.400,228.930 179.908,228.303 179.307 C 226.787 177.855,226.415 178.461,226.403 182.400 C 226.381 189.777,225.335 194.000,223.530 194.000 C 222.011 194.000,215.094 190.346,211.299 187.538 C 205.769 183.447,206.005 183.119,205.712 195.300 C 205.567 201.348,205.366 204.009,205.052 204.028 C 204.803 204.044,200.149 204.190,194.709 204.353 C 183.970 204.674,183.880 204.692,185.055 206.305 C 185.495 206.907,185.979 207.670,186.131 208.000 C 186.284 208.330,186.754 209.140,187.175 209.800 C 188.396 211.712,188.212 212.988,186.463 214.738 C 184.759 216.441,183.913 216.696,178.838 217.034 C 175.637 217.247,174.295 217.561,172.800 218.449 C 172.470 218.645,171.930 218.924,171.600 219.070 C 171.270 219.216,170.262 219.834,169.361 220.445 L 167.722 221.554 167.473 224.877 C 167.335 226.705,167.035 230.720,166.805 233.800 C 166.066 243.676,164.156 251.526,161.184 256.895 C 160.973 257.277,160.800 257.943,160.800 258.376 C 160.800 258.808,160.638 259.576,160.439 260.081 C 160.240 260.587,159.697 262.393,159.231 264.094 C 158.764 265.796,157.653 268.766,156.760 270.694 C 155.867 272.623,154.867 274.830,154.538 275.600 C 153.424 278.210,152.622 279.796,151.654 281.305 C 149.739 284.287,148.705 297.833,150.300 299.043 C 151.615 300.041,152.931 299.636,156.200 297.225 C 157.960 295.927,160.761 294.044,162.424 293.039 C 164.088 292.035,165.874 290.760,166.394 290.206 C 168.182 288.303,172.409 289.455,174.400 292.390 C 174.636 292.737,179.977 296.000,180.309 296.000 C 180.435 296.000,180.821 296.245,181.169 296.544 C 181.516 296.843,182.839 297.649,184.110 298.336 L 186.420 299.584 188.311 297.692 C 191.149 294.854,191.689 294.096,194.247 289.365 C 197.972 282.478,197.935 282.616,197.710 276.200 C 197.392 267.118,198.657 259.208,200.936 256.036 C 202.233 254.231,203.156 252.446,205.501 247.210 C 206.221 245.601,207.404 243.984,213.011 236.943 C 213.562 236.251,214.604 235.404,215.328 235.061 C 216.052 234.718,217.161 233.957,217.794 233.371 C 224.527 227.131,230.368 225.209,234.921 227.734 C 236.933 228.850,243.200 229.354,243.200 228.400 C 243.200 228.180,243.449 228.000,243.754 228.000 C 244.059 228.000,246.354 226.502,248.854 224.672 C 253.728 221.103,257.924 218.458,261.863 216.469 C 263.214 215.787,264.742 214.713,265.260 214.081 C 267.222 211.685,269.573 211.661,272.200 214.009 C 272.640 214.402,273.897 215.220,274.994 215.827 C 276.090 216.434,277.350 217.390,277.794 217.952 C 279.783 220.474,279.800 220.568,279.803 229.171 L 279.805 237.342 281.403 238.492 C 282.281 239.124,284.187 240.815,285.638 242.249 L 288.276 244.856 288.537 241.181 C 289.415 228.816,289.567 228.570,296.279 228.666 C 298.975 228.704,301.072 228.912,301.326 229.166 C 301.565 229.405,302.057 229.600,302.420 229.600 C 303.520 229.600,307.947 233.225,312.600 237.935 C 317.803 243.201,317.444 243.078,317.759 239.700 C 318.707 229.524,318.479 224.042,316.872 218.400 C 316.374 216.652,314.101 212.669,312.421 210.600 C 311.528 209.500,310.343 207.639,309.788 206.465 C 309.233 205.291,307.555 202.681,306.059 200.665 C 304.563 198.649,301.791 194.911,299.898 192.358 C 295.940 187.018,294.501 185.853,287.977 182.700 C 281.946 179.786,280.878 179.605,279.076 181.187 C 276.922 183.078,274.221 182.627,271.000 179.838 C 270.340 179.266,269.260 178.522,268.600 178.183 C 267.940 177.844,266.860 177.243,266.200 176.848 C 258.707 172.363,252.986 170.690,251.165 172.453 M170.121 198.741 C 168.698 200.164,167.675 205.568,167.518 212.495 C 167.444 215.763,167.490 215.819,169.443 214.839 C 173.584 212.761,175.791 211.971,179.024 211.407 C 183.188 210.681,183.050 210.770,181.892 209.561 C 180.007 207.594,173.466 199.999,172.648 198.828 C 171.604 197.333,171.531 197.330,170.121 198.741 M67.693 207.200 C 67.693 207.970,67.775 208.285,67.876 207.900 C 67.976 207.515,67.976 206.885,67.876 206.500 C 67.775 206.115,67.693 206.430,67.693 207.200 M68.216 217.839 C 68.307 222.701,68.566 227.111,68.792 227.639 C 69.231 228.665,69.022 221.293,68.383 213.200 C 68.131 210.004,68.091 211.113,68.216 217.839 M266.800 218.082 C 263.245 220.315,261.085 221.600,260.889 221.600 C 260.772 221.600,260.086 222.050,259.364 222.600 C 258.643 223.150,257.939 223.600,257.799 223.600 C 257.268 223.600,253.719 226.207,251.744 228.047 C 250.613 229.101,249.178 230.091,248.556 230.247 C 247.934 230.403,246.339 231.330,245.012 232.307 C 242.248 234.342,240.269 234.486,236.800 232.908 C 230.018 229.821,229.108 229.925,222.910 234.491 C 218.761 237.548,210.000 246.334,210.000 247.439 C 210.000 247.603,209.749 248.021,209.442 248.369 C 209.135 248.716,208.607 249.810,208.268 250.800 C 207.000 254.510,205.282 259.083,204.876 259.828 C 204.513 260.496,203.971 262.241,202.397 267.800 C 202.210 268.460,201.936 270.980,201.787 273.400 L 201.516 277.800 203.447 276.000 C 204.509 275.010,205.473 274.100,205.589 273.979 C 207.227 272.261,213.094 270.577,216.066 270.971 C 219.368 271.409,223.600 274.398,223.600 276.291 C 223.600 277.525,225.134 276.714,226.044 275.000 C 226.569 274.010,227.134 273.200,227.299 273.200 C 227.465 273.200,227.600 273.048,227.600 272.861 C 227.600 272.675,228.590 271.043,229.800 269.236 C 231.010 267.428,232.000 265.522,232.000 265.000 C 232.000 263.356,232.740 262.005,234.922 259.668 C 236.087 258.421,237.812 256.455,238.757 255.300 L 240.474 253.200 238.937 253.193 C 236.846 253.183,230.287 252.163,229.355 251.703 C 228.940 251.498,228.060 251.069,227.400 250.750 C 226.740 250.430,226.200 249.912,226.200 249.596 C 226.200 248.203,227.917 247.995,239.104 248.032 L 250.008 248.069 255.304 245.470 C 258.217 244.041,261.230 242.604,262.000 242.277 C 262.770 241.951,264.570 241.147,266.000 240.491 C 269.594 238.843,270.341 238.653,271.019 239.216 C 272.596 240.525,271.034 242.261,265.800 245.016 C 263.820 246.059,261.845 247.156,261.411 247.456 C 260.977 247.755,260.364 248.000,260.049 248.000 C 258.740 248.000,256.708 250.033,257.311 250.740 C 257.620 251.103,258.111 252.705,258.401 254.300 C 259.035 257.789,258.917 257.772,262.290 254.862 C 271.308 247.081,274.769 240.934,275.976 230.555 C 276.754 223.869,276.649 223.109,274.700 221.255 C 270.355 217.122,269.120 216.626,266.800 218.082 M293.762 232.842 C 293.068 233.608,293.000 234.373,293.000 241.371 L 293.000 249.058 294.087 250.701 C 296.116 253.768,299.356 256.000,301.779 256.000 C 302.281 256.000,303.150 256.360,303.709 256.800 C 305.972 258.580,309.546 257.399,312.600 253.861 C 316.797 249.000,316.768 248.810,310.800 241.877 C 305.160 235.325,295.940 230.436,293.762 232.842 M142.279 237.068 C 144.240 239.640,144.108 247.427,141.982 254.600 C 141.596 255.903,140.328 261.282,139.579 264.800 C 139.321 266.010,138.860 267.844,138.555 268.875 C 138.250 269.906,138.000 271.039,138.000 271.391 C 138.000 272.625,136.405 275.200,135.640 275.200 C 134.589 275.200,133.839 273.179,134.194 271.307 C 134.352 270.478,134.628 268.360,134.810 266.600 C 134.991 264.840,135.343 262.320,135.591 261.000 C 135.840 259.680,136.195 257.700,136.380 256.600 C 136.565 255.500,137.079 253.398,137.522 251.928 C 138.137 249.888,138.245 248.887,137.977 247.696 C 137.562 245.848,138.385 238.716,139.189 237.200 C 140.252 235.196,140.833 235.172,142.279 237.068 M277.798 244.331 C 275.474 246.558,273.541 248.752,272.097 250.800 C 271.399 251.790,269.448 254.040,267.762 255.800 C 264.913 258.774,263.205 260.984,263.201 261.700 C 263.199 262.106,266.144 262.083,266.620 261.673 C 266.829 261.493,268.440 260.940,270.200 260.445 C 271.960 259.950,273.940 259.355,274.600 259.124 C 275.759 258.716,278.610 258.265,283.200 257.760 C 285.784 257.477,290.671 256.132,290.989 255.618 C 291.193 255.287,290.871 254.248,289.924 252.177 C 289.716 251.724,288.932 251.022,288.181 250.618 C 287.430 250.213,286.174 249.059,285.390 248.053 C 281.022 242.446,280.190 242.038,277.798 244.331 M248.578 254.548 C 247.905 254.796,246.825 255.360,246.178 255.800 C 245.530 256.240,244.800 256.690,244.556 256.800 C 242.888 257.552,238.236 262.835,236.808 265.600 C 235.526 268.084,235.178 268.681,233.546 271.200 C 232.762 272.410,231.625 274.294,231.020 275.387 C 228.945 279.130,225.543 283.600,224.767 283.600 C 224.038 283.600,219.868 278.939,219.048 277.207 L 218.191 275.400 215.568 275.283 C 210.941 275.078,202.000 281.332,202.000 284.774 C 202.000 284.998,201.460 286.180,200.800 287.400 C 200.140 288.620,199.600 289.827,199.600 290.081 C 199.600 290.336,198.637 291.817,197.461 293.372 C 189.134 304.379,188.931 305.276,194.712 305.532 C 198.687 305.708,204.817 302.952,209.816 298.742 C 213.283 295.822,217.052 292.554,217.400 292.167 C 219.546 289.778,227.850 283.623,231.600 281.641 C 233.539 280.617,234.033 280.400,234.428 280.400 C 234.811 280.400,239.461 277.022,240.000 276.351 C 240.110 276.215,241.100 275.618,242.200 275.024 C 243.300 274.431,244.740 273.630,245.400 273.243 C 246.060 272.857,247.821 271.873,249.312 271.057 C 250.804 270.240,252.694 269.193,253.512 268.729 C 254.331 268.266,255.760 267.479,256.689 266.980 C 259.888 265.266,261.127 264.054,260.222 263.526 C 258.343 262.432,255.816 259.628,254.880 257.601 C 253.159 253.870,251.968 253.293,248.578 254.548 M132.026 263.214 C 132.895 263.679,132.973 264.418,132.416 266.894 C 132.007 268.716,131.632 270.742,130.584 276.822 C 129.659 282.185,129.625 289.743,130.517 291.687 C 132.022 294.965,131.316 298.697,129.329 297.964 C 124.796 296.290,122.553 286.293,124.850 278.000 C 125.306 276.350,125.818 274.370,125.987 273.600 C 126.156 272.830,126.596 271.390,126.966 270.400 C 127.335 269.410,127.889 267.811,128.196 266.846 C 128.503 265.881,129.248 264.576,129.852 263.946 C 131.108 262.635,131.007 262.669,132.026 263.214 M272.777 280.179 C 275.047 282.234,273.147 283.599,268.011 283.603 C 259.278 283.611,257.168 284.173,250.800 288.188 C 246.676 290.789,239.600 298.857,239.600 300.958 C 239.600 301.516,238.596 303.513,237.369 305.395 C 236.142 307.278,234.578 310.209,233.895 311.909 C 232.667 314.963,230.949 317.200,229.832 317.200 C 229.191 317.200,228.000 316.144,228.000 315.576 C 228.000 315.009,230.851 307.708,231.619 306.305 C 231.829 305.923,232.000 305.426,232.000 305.201 C 232.000 304.976,232.378 303.938,232.840 302.896 C 233.302 301.853,233.861 300.550,234.082 300.000 C 235.567 296.311,236.751 294.839,243.007 288.909 C 248.523 283.680,253.897 280.657,258.800 280.025 C 260.670 279.784,262.740 279.517,263.400 279.432 C 266.637 279.013,271.957 279.437,272.777 280.179 M263.367 287.443 C 264.322 287.809,264.265 291.927,263.300 292.283 C 259.823 293.563,256.001 297.072,253.104 301.643 C 250.562 305.655,248.133 306.589,246.690 304.111 C 245.779 302.547,246.013 301.630,247.735 300.006 C 248.443 299.338,249.349 298.118,249.748 297.295 C 250.146 296.473,250.687 295.352,250.950 294.803 C 251.216 294.246,252.439 293.276,253.721 292.603 C 254.983 291.942,256.415 291.040,256.905 290.600 C 260.465 287.397,261.690 286.799,263.367 287.443 M167.800 294.692 C 166.479 295.229,159.776 299.644,157.100 301.740 C 156.316 302.354,156.166 303.200,156.842 303.200 C 157.085 303.200,158.047 303.715,158.981 304.345 C 160.160 305.141,161.758 305.691,164.221 306.147 C 166.170 306.509,167.944 306.984,168.162 307.202 C 168.661 307.701,174.967 307.728,175.905 307.235 C 176.287 307.035,177.500 306.559,178.600 306.178 C 182.979 304.660,184.659 303.272,183.100 302.460 C 182.605 302.202,181.660 301.647,181.000 301.225 C 180.340 300.803,179.440 300.439,179.000 300.416 C 178.101 300.368,176.397 299.181,172.806 296.100 C 170.098 293.777,170.070 293.769,167.800 294.692 M180.441 309.203 C 177.495 311.166,177.486 311.177,178.567 311.587 C 180.624 312.370,185.687 312.022,191.000 310.733 C 191.880 310.520,193.127 310.218,193.770 310.062 C 194.971 309.772,195.701 308.800,194.718 308.800 C 194.416 308.800,193.463 308.440,192.600 308.000 C 191.347 307.361,190.263 307.203,187.215 307.216 L 183.400 307.232 180.441 309.203 " stroke="none" fill="#ffffff" fill-rule="evenodd"></path></g></svg>