<svg id="svg" version="1.1" width="400" height="400" viewBox="0 0 400 400" xmlns="http://www.w3.org/2000/svg" xmlns:xlink="http://www.w3.org/1999/xlink" ><g id="svgg"><path id="path0" d="M206.055 90.888 C 200.164 92.876,195.406 103.270,197.574 109.412 C 199.327 114.378,198.097 118.351,193.350 123.052 C 191.766 124.621,188.423 128.671,185.920 132.052 C 183.418 135.434,178.407 142.219,174.785 147.131 C 171.163 152.043,166.016 159.018,163.346 162.630 L 158.492 169.198 158.651 171.699 C 158.738 173.074,159.183 194.090,159.639 218.400 C 160.095 242.710,160.542 262.674,160.633 262.765 C 160.842 262.975,213.645 262.091,230.800 261.589 C 260.467 260.722,268.498 260.023,270.470 258.133 C 273.504 255.226,272.841 249.657,269.280 248.136 C 268.466 247.788,267.530 247.372,267.200 247.212 C 264.365 245.840,266.924 237.600,270.186 237.600 C 271.086 237.600,273.267 235.538,273.854 234.132 C 275.408 230.412,273.202 225.393,269.635 224.533 C 263.286 223.002,263.503 212.965,269.926 211.011 C 272.683 210.173,275.200 206.443,275.200 203.196 C 275.200 199.696,273.534 197.627,269.130 195.656 C 263.991 193.355,264.241 190.715,270.097 185.454 C 275.342 180.741,276.828 175.891,274.849 169.948 C 272.856 163.965,269.519 161.490,261.200 159.827 C 250.154 157.619,247.384 157.405,230.878 157.487 C 211.488 157.583,211.313 157.519,215.797 151.969 C 222.570 143.586,225.832 135.378,227.384 122.812 C 228.746 111.785,228.197 106.972,225.041 102.279 C 219.045 93.358,211.732 88.971,206.055 90.888 M107.800 172.997 C 107.580 173.070,106.908 173.238,106.307 173.371 C 105.706 173.503,104.593 174.157,103.833 174.824 C 101.014 177.300,101.167 174.196,101.290 226.234 L 101.400 273.069 102.545 274.720 C 104.829 278.016,104.724 278.000,124.139 278.000 C 144.363 278.000,145.316 277.769,146.776 272.511 C 147.397 270.275,147.359 180.987,146.737 178.514 C 146.120 176.065,143.935 173.880,141.486 173.263 C 139.826 172.845,108.986 172.601,107.800 172.997 " stroke="none" fill="#ffffff" fill-rule="evenodd"></path><path id="path1" d="M180.800 27.837 C 180.030 27.921,177.160 28.192,174.421 28.440 C 171.683 28.688,169.163 29.037,168.821 29.215 C 168.480 29.393,165.596 29.928,162.413 30.403 C 159.230 30.879,155.900 31.511,155.013 31.807 C 154.126 32.104,151.690 32.740,149.600 33.221 C 147.510 33.702,145.620 34.226,145.400 34.384 C 145.180 34.543,143.200 35.173,141.000 35.785 C 138.800 36.397,136.910 37.016,136.800 37.160 C 136.690 37.304,135.520 37.750,134.200 38.152 C 132.880 38.554,130.930 39.314,129.867 39.841 C 128.804 40.369,127.758 40.800,127.543 40.800 C 127.328 40.800,125.678 41.491,123.876 42.336 C 122.074 43.181,120.015 44.103,119.300 44.385 C 118.585 44.667,118.000 45.055,118.000 45.249 C 118.000 45.442,117.842 45.600,117.650 45.600 C 117.065 45.600,113.157 47.545,110.400 49.207 C 108.970 50.070,107.258 51.036,106.594 51.354 C 105.931 51.672,104.451 52.577,103.304 53.366 C 102.157 54.155,101.069 54.800,100.885 54.800 C 100.701 54.800,100.200 55.115,99.772 55.500 C 99.344 55.885,97.416 57.271,95.487 58.579 C 93.559 59.887,91.687 61.282,91.329 61.679 C 90.970 62.076,90.512 62.400,90.311 62.400 C 89.925 62.400,83.920 67.305,79.639 71.119 C 73.291 76.772,64.916 85.620,59.873 92.000 C 59.264 92.770,58.410 93.850,57.974 94.400 C 57.538 94.950,56.684 96.030,56.075 96.800 C 55.121 98.008,50.990 104.004,49.800 105.909 C 49.580 106.261,48.635 107.719,47.700 109.149 C 46.765 110.579,46.000 111.926,46.000 112.143 C 46.000 112.360,45.750 112.821,45.445 113.169 C 45.139 113.516,44.384 114.790,43.765 116.000 C 43.147 117.210,42.519 118.290,42.371 118.400 C 42.222 118.510,41.680 119.590,41.166 120.800 C 40.652 122.010,40.011 123.226,39.742 123.502 C 39.473 123.779,39.129 124.409,38.978 124.902 C 38.827 125.396,38.005 127.274,37.152 129.076 C 36.298 130.878,35.600 132.543,35.600 132.775 C 35.600 133.008,35.075 134.323,34.433 135.699 C 33.791 137.075,33.035 139.010,32.752 140.000 C 32.470 140.990,32.117 141.890,31.968 142.000 C 31.820 142.110,31.197 144.000,30.585 146.200 C 29.973 148.400,29.342 150.380,29.182 150.600 C 29.023 150.820,28.412 153.160,27.825 155.800 C 27.238 158.440,26.600 160.892,26.408 161.249 C 26.215 161.606,25.668 164.486,25.191 167.649 C 24.715 170.812,24.169 173.760,23.978 174.200 C 22.095 178.541,22.095 221.059,23.978 225.400 C 24.169 225.840,24.715 228.788,25.191 231.951 C 25.668 235.114,26.215 237.994,26.408 238.351 C 26.600 238.708,27.238 241.160,27.825 243.800 C 28.412 246.440,29.032 248.780,29.202 249.000 C 29.373 249.220,30.000 251.200,30.596 253.400 C 31.191 255.600,31.799 257.490,31.945 257.600 C 32.092 257.710,32.625 259.105,33.129 260.700 C 33.633 262.295,34.176 263.600,34.336 263.600 C 34.495 263.600,34.875 264.455,35.179 265.500 C 35.484 266.545,36.513 269.066,37.466 271.102 C 38.420 273.139,39.200 274.971,39.200 275.174 C 39.200 275.377,39.432 275.781,39.715 276.071 C 39.999 276.362,40.652 277.590,41.166 278.800 C 41.680 280.010,42.235 281.090,42.399 281.200 C 42.563 281.310,43.305 282.541,44.048 283.936 C 46.002 287.602,46.483 288.436,48.020 290.825 C 48.779 292.004,49.580 293.261,49.800 293.618 C 51.474 296.340,52.911 298.400,53.137 298.400 C 53.284 298.400,53.625 298.895,53.894 299.500 C 54.162 300.105,55.102 301.500,55.982 302.600 C 56.862 303.700,57.850 304.960,58.176 305.400 C 61.246 309.531,67.337 316.446,72.400 321.547 C 77.623 326.810,86.447 334.604,88.040 335.361 C 88.458 335.560,88.800 335.870,88.800 336.051 C 88.800 336.232,89.295 336.639,89.900 336.956 C 90.505 337.273,91.372 337.884,91.827 338.314 C 93.245 339.654,102.009 345.584,103.600 346.279 C 103.930 346.424,104.291 346.674,104.401 346.835 C 104.616 347.147,106.687 348.348,110.600 350.427 C 111.920 351.129,113.090 351.843,113.200 352.014 C 113.310 352.185,114.615 352.824,116.100 353.433 C 117.585 354.043,118.800 354.690,118.800 354.871 C 118.800 355.052,118.979 355.200,119.198 355.200 C 119.416 355.200,121.261 355.980,123.298 356.934 C 125.334 357.887,127.855 358.916,128.900 359.221 C 129.945 359.525,130.800 359.910,130.800 360.074 C 130.800 360.239,132.375 360.861,134.300 361.456 C 136.225 362.051,137.890 362.658,138.000 362.806 C 138.110 362.953,139.730 363.481,141.600 363.978 C 143.470 364.476,145.180 365.024,145.400 365.195 C 145.620 365.367,147.960 365.991,150.600 366.582 C 153.240 367.172,155.760 367.825,156.200 368.032 C 157.069 368.440,169.157 370.397,170.820 370.399 C 171.381 370.400,172.011 370.562,172.220 370.759 C 173.891 372.338,215.309 372.338,216.980 370.759 C 217.189 370.562,217.819 370.400,218.380 370.399 C 220.043 370.397,232.131 368.440,233.000 368.032 C 233.440 367.825,235.960 367.172,238.600 366.582 C 241.240 365.991,243.580 365.367,243.800 365.195 C 244.020 365.024,245.730 364.476,247.600 363.978 C 249.470 363.481,251.090 362.953,251.200 362.806 C 251.310 362.658,252.975 362.051,254.900 361.456 C 256.825 360.861,258.400 360.239,258.400 360.074 C 258.400 359.910,259.255 359.530,260.300 359.231 C 261.345 358.932,263.864 357.903,265.898 356.944 C 267.933 355.985,269.778 355.200,269.998 355.200 C 270.219 355.200,270.400 355.052,270.400 354.871 C 270.400 354.690,271.615 354.043,273.100 353.433 C 274.585 352.824,275.890 352.185,276.000 352.014 C 276.110 351.843,277.280 351.129,278.600 350.427 C 282.513 348.348,284.584 347.147,284.799 346.835 C 284.909 346.674,285.270 346.424,285.600 346.279 C 287.349 345.514,295.820 339.783,297.376 338.312 C 298.023 337.700,298.698 337.200,298.876 337.200 C 299.054 337.200,299.518 336.885,299.907 336.500 C 300.295 336.115,301.060 335.504,301.607 335.143 C 307.417 331.300,326.341 312.369,329.940 306.800 C 330.295 306.250,330.904 305.565,331.293 305.277 C 331.682 304.990,332.000 304.568,332.000 304.341 C 332.000 304.113,332.628 303.193,333.397 302.296 C 334.165 301.398,335.019 300.155,335.294 299.532 C 335.570 298.909,335.916 298.400,336.063 298.400 C 336.289 298.400,337.726 296.340,339.400 293.618 C 339.620 293.261,340.421 292.004,341.180 290.825 C 342.717 288.436,343.198 287.602,345.152 283.936 C 345.895 282.541,346.637 281.310,346.801 281.200 C 346.965 281.090,347.520 280.010,348.034 278.800 C 348.548 277.590,349.201 276.362,349.485 276.071 C 349.768 275.781,350.000 275.377,350.000 275.174 C 350.000 274.971,350.780 273.139,351.734 271.102 C 352.687 269.066,353.716 266.545,354.021 265.500 C 354.325 264.455,354.705 263.600,354.864 263.600 C 355.024 263.600,355.567 262.295,356.071 260.700 C 356.575 259.105,357.108 257.710,357.255 257.600 C 357.401 257.490,358.009 255.600,358.604 253.400 C 359.200 251.200,359.827 249.220,359.998 249.000 C 360.168 248.780,360.788 246.440,361.375 243.800 C 361.962 241.160,362.600 238.708,362.792 238.351 C 362.985 237.994,363.532 235.114,364.009 231.951 C 364.485 228.788,365.031 225.840,365.222 225.400 C 367.105 221.059,367.105 178.541,365.222 174.200 C 365.031 173.760,364.485 170.812,364.009 167.649 C 363.532 164.486,362.985 161.606,362.792 161.249 C 362.600 160.892,361.962 158.440,361.375 155.800 C 360.788 153.160,360.177 150.820,360.018 150.600 C 359.858 150.380,359.227 148.400,358.615 146.200 C 358.003 144.000,357.380 142.110,357.232 142.000 C 357.083 141.890,356.730 140.990,356.448 140.000 C 356.165 139.010,355.409 137.075,354.767 135.699 C 354.125 134.323,353.600 133.008,353.600 132.775 C 353.600 132.543,352.902 130.878,352.048 129.076 C 351.195 127.274,350.373 125.396,350.222 124.902 C 350.071 124.409,349.727 123.779,349.458 123.502 C 349.189 123.226,348.548 122.010,348.034 120.800 C 347.520 119.590,346.966 118.510,346.804 118.400 C 346.641 118.290,346.029 117.183,345.444 115.941 C 344.859 114.698,344.115 113.461,343.790 113.192 C 343.466 112.923,343.200 112.488,343.200 112.225 C 343.200 111.963,342.435 110.579,341.500 109.149 C 340.565 107.719,339.620 106.261,339.400 105.909 C 338.210 104.004,334.079 98.008,333.125 96.800 C 332.516 96.030,331.662 94.950,331.226 94.400 C 330.790 93.850,329.936 92.770,329.327 92.000 C 324.319 85.664,315.269 76.107,309.366 70.921 C 304.851 66.954,299.251 62.400,298.889 62.400 C 298.688 62.400,298.193 62.035,297.789 61.588 C 297.385 61.142,295.512 59.747,293.627 58.489 C 291.742 57.231,289.851 55.886,289.425 55.501 C 288.998 55.115,288.501 54.800,288.320 54.800 C 288.139 54.800,286.936 54.080,285.647 53.200 C 284.358 52.320,283.114 51.600,282.882 51.600 C 282.651 51.600,281.953 51.175,281.331 50.655 C 280.709 50.135,279.809 49.587,279.330 49.437 C 278.852 49.288,277.815 48.727,277.026 48.192 C 276.238 47.657,274.649 46.817,273.496 46.325 C 272.343 45.833,271.174 45.211,270.898 44.942 C 270.621 44.673,269.991 44.329,269.498 44.178 C 269.004 44.027,267.126 43.205,265.324 42.352 C 263.522 41.498,261.872 40.800,261.657 40.800 C 261.442 40.800,260.396 40.369,259.333 39.841 C 258.270 39.314,256.320 38.554,255.000 38.152 C 253.680 37.750,252.510 37.304,252.400 37.160 C 252.290 37.016,250.400 36.397,248.200 35.785 C 246.000 35.173,244.020 34.543,243.800 34.384 C 243.580 34.226,241.690 33.702,239.600 33.221 C 237.510 32.740,235.074 32.104,234.187 31.807 C 233.300 31.511,229.970 30.876,226.787 30.397 C 223.604 29.917,220.640 29.371,220.200 29.183 C 217.877 28.190,187.208 27.142,180.800 27.837 M214.698 91.978 C 219.543 94.560,226.980 103.503,227.647 107.551 C 228.429 112.289,227.690 123.759,226.175 130.400 C 224.267 138.764,221.029 145.494,215.797 151.969 C 211.313 157.519,211.488 157.583,230.878 157.487 C 265.322 157.316,276.318 161.769,275.520 175.563 C 275.284 179.642,274.040 181.910,270.097 185.454 C 264.241 190.715,263.991 193.355,269.130 195.656 C 273.534 197.627,275.200 199.696,275.200 203.196 C 275.200 206.443,272.683 210.173,269.926 211.011 C 263.503 212.965,263.286 223.002,269.635 224.533 C 273.202 225.393,275.408 230.412,273.854 234.132 C 273.267 235.538,271.086 237.600,270.186 237.600 C 266.924 237.600,264.365 245.840,267.200 247.212 C 267.530 247.372,268.466 247.788,269.280 248.136 C 272.841 249.657,273.504 255.226,270.470 258.133 C 268.498 260.023,260.467 260.722,230.800 261.589 C 213.645 262.091,160.842 262.975,160.633 262.765 C 160.542 262.674,160.095 242.710,159.639 218.400 C 159.183 194.090,158.738 173.074,158.651 171.699 L 158.492 169.198 163.346 162.630 C 166.016 159.018,171.163 152.043,174.785 147.131 C 178.407 142.219,183.418 135.434,185.920 132.052 C 188.423 128.671,191.766 124.621,193.350 123.052 C 198.097 118.351,199.327 114.378,197.574 109.412 C 196.396 106.076,196.843 102.563,199.007 98.137 C 202.488 91.020,208.484 88.666,214.698 91.978 M141.486 173.263 C 143.935 173.880,146.120 176.065,146.737 178.514 C 147.359 180.987,147.397 270.275,146.776 272.511 C 145.316 277.769,144.363 278.000,124.139 278.000 C 104.724 278.000,104.829 278.016,102.545 274.720 L 101.400 273.069 101.290 226.234 C 101.167 174.196,101.014 177.300,103.833 174.824 C 104.593 174.157,105.706 173.503,106.307 173.371 C 106.908 173.238,107.580 173.070,107.800 172.997 C 108.986 172.601,139.826 172.845,141.486 173.263 " stroke="none" fill="#0000ff" fill-rule="evenodd"></path></g></svg>