<svg id="svg" version="1.1" width="400" height="400" viewBox="0 0 400 400" xmlns="http://www.w3.org/2000/svg" xmlns:xlink="http://www.w3.org/1999/xlink" ><g id="svgg"><path id="path0" d="M124.894 147.775 C 124.615 147.817,122.862 148.043,120.999 148.275 C 107.675 149.942,97.470 155.332,86.103 166.709 C 78.749 174.069,78.065 177.202,82.789 181.890 C 86.973 186.042,91.137 185.373,95.187 179.898 C 104.397 167.446,114.758 162.257,125.338 164.798 C 132.528 166.525,136.649 163.433,136.661 156.301 C 136.668 151.710,134.756 149.073,130.707 148.091 C 129.644 147.833,125.868 147.628,124.894 147.775 M271.126 147.781 C 265.860 148.490,263.581 151.100,263.606 156.393 C 263.643 163.884,267.399 166.402,275.868 164.613 C 285.884 162.498,296.210 167.877,304.951 179.763 C 309.084 185.384,313.100 186.079,317.390 181.917 C 322.526 176.933,321.239 172.972,311.630 164.183 C 303.736 156.962,296.346 152.543,287.892 149.988 C 283.246 148.584,274.103 147.381,271.126 147.781 M116.342 189.493 C 99.380 193.122,92.457 215.925,103.877 230.550 C 115.339 245.230,136.901 239.879,141.725 221.159 C 146.293 203.426,132.376 186.063,116.342 189.493 M277.384 189.424 C 262.386 192.140,254.128 211.377,261.566 226.273 C 270.129 243.426,292.258 243.118,300.494 225.731 C 309.115 207.531,295.500 186.142,277.384 189.424 M193.057 277.676 C 176.030 278.911,163.502 284.966,154.435 296.344 C 151.321 300.252,150.643 301.651,150.651 304.149 C 150.675 311.030,158.458 313.700,164.133 308.775 C 164.757 308.233,166.205 306.984,167.350 305.998 C 179.505 295.537,192.889 290.638,204.118 292.541 C 216.195 294.586,226.470 299.941,237.638 310.008 C 241.401 313.400,244.935 313.235,248.090 309.521 C 251.836 305.111,251.241 301.028,246.122 296.012 C 234.784 284.904,222.269 278.976,207.536 277.736 C 205.712 277.582,194.961 277.538,193.057 277.676 " stroke="none" fill="#131313" fill-rule="evenodd"></path><path id="path1" d="M86.025 166.596 L 84.420 168.247 86.071 166.642 C 87.605 165.151,87.799 164.945,87.677 164.945 C 87.651 164.945,86.908 165.688,86.025 166.596 M299.400 173.285 C 300.102 174.033,300.254 174.168,300.254 174.040 C 300.254 174.013,299.892 173.651,299.450 173.236 L 298.645 172.481 299.400 173.285 M317.940 181.414 L 317.443 181.964 317.993 181.467 C 318.506 181.003,318.621 180.864,318.491 180.864 C 318.461 180.864,318.214 181.111,317.940 181.414 M119.683 189.115 C 119.984 189.152,120.517 189.153,120.868 189.116 C 121.220 189.079,120.974 189.049,120.322 189.048 C 119.670 189.047,119.382 189.077,119.683 189.115 M280.394 189.115 C 280.695 189.152,281.228 189.153,281.580 189.116 C 281.931 189.079,281.685 189.049,281.033 189.048 C 280.381 189.047,280.094 189.077,280.394 189.115 M135.055 195.428 C 135.514 195.893,135.927 196.274,135.974 196.274 C 136.020 196.274,135.683 195.893,135.224 195.428 C 134.766 194.962,134.352 194.581,134.306 194.581 C 134.259 194.581,134.596 194.962,135.055 195.428 M295.597 195.258 C 295.961 195.631,296.297 195.936,296.343 195.936 C 296.390 195.936,296.130 195.631,295.766 195.258 C 295.402 194.886,295.067 194.581,295.020 194.581 C 294.974 194.581,295.233 194.886,295.597 195.258 M295.589 232.727 L 294.920 233.446 295.639 232.777 C 296.309 232.154,296.437 232.007,296.309 232.007 C 296.281 232.007,295.957 232.331,295.589 232.727 M266.046 232.769 C 266.362 233.095,266.658 233.362,266.705 233.362 C 266.751 233.362,266.531 233.095,266.215 232.769 C 265.899 232.443,265.602 232.176,265.556 232.176 C 265.509 232.176,265.730 232.443,266.046 232.769 M120.957 239.067 C 121.120 239.109,121.387 239.109,121.550 239.067 C 121.713 239.024,121.579 238.989,121.253 238.989 C 120.927 238.989,120.794 239.024,120.957 239.067 M279.805 239.067 C 279.968 239.109,280.235 239.109,280.398 239.067 C 280.561 239.024,280.428 238.989,280.102 238.989 C 279.776 238.989,279.642 239.024,279.805 239.067 M281.329 239.067 C 281.492 239.109,281.759 239.109,281.922 239.067 C 282.085 239.024,281.952 238.989,281.626 238.989 C 281.300 238.989,281.166 239.024,281.329 239.067 M246.564 296.401 C 247.265 297.149,247.417 297.284,247.417 297.156 C 247.417 297.129,247.055 296.767,246.613 296.352 L 245.809 295.597 246.564 296.401 " stroke="none" fill="#555500" fill-rule="evenodd"></path><path id="path2" d="M293.744 315.436 C 279.783 346.578,280.632 344.479,280.092 349.186 C 279.799 351.735,279.974 356.610,280.432 358.679 C 280.628 359.564,280.822 360.527,280.865 360.820 C 281.346 364.152,285.283 370.661,288.617 373.636 C 298.404 382.369,312.797 382.348,322.302 373.586 C 329.539 366.915,331.309 354.647,327.066 340.559 C 326.458 338.541,323.646 331.055,323.440 330.906 C 323.352 330.843,309.061 294.181,306.782 288.174 L 306.407 287.186 293.744 315.436 " stroke="none" fill="#278eff" fill-rule="evenodd"></path><path id="path3" d="M136.719 156.224 C 136.720 156.876,136.751 157.122,136.787 156.770 C 136.824 156.419,136.823 155.885,136.786 155.585 C 136.749 155.284,136.719 155.572,136.719 156.224 M79.811 176.376 C 79.813 176.842,79.846 177.012,79.884 176.755 C 79.923 176.497,79.922 176.116,79.882 175.908 C 79.842 175.700,79.810 175.910,79.811 176.376 M316.841 182.515 L 316.257 183.150 316.892 182.566 C 317.484 182.023,317.605 181.880,317.476 181.880 C 317.448 181.880,317.162 182.166,316.841 182.515 M105.504 195.343 C 105.092 195.762,104.794 196.105,104.841 196.105 C 104.887 196.105,105.262 195.762,105.673 195.343 C 106.085 194.924,106.383 194.581,106.336 194.581 C 106.290 194.581,105.915 194.924,105.504 195.343 M142.648 214.225 C 142.648 214.924,142.678 215.210,142.714 214.860 C 142.751 214.511,142.751 213.939,142.714 213.590 C 142.678 213.241,142.648 213.527,142.648 214.225 M105.666 232.727 C 106.368 233.474,106.520 233.609,106.520 233.481 C 106.520 233.454,106.158 233.092,105.715 232.677 L 104.911 231.922 105.666 232.727 M197.841 277.519 C 199.028 277.548,200.972 277.548,202.159 277.519 C 203.347 277.489,202.375 277.466,200.000 277.466 C 197.625 277.466,196.653 277.489,197.841 277.519 M198.097 292.245 C 198.307 292.286,198.612 292.284,198.774 292.242 C 198.936 292.199,198.764 292.166,198.391 292.168 C 198.019 292.170,197.886 292.205,198.097 292.245 M200.889 292.242 C 201.052 292.285,201.319 292.285,201.482 292.242 C 201.645 292.199,201.511 292.165,201.185 292.165 C 200.859 292.165,200.726 292.199,200.889 292.242 M244.877 294.719 C 244.877 294.748,245.125 294.995,245.428 295.269 L 245.978 295.766 245.481 295.216 C 245.017 294.703,244.877 294.588,244.877 294.719 M247.925 297.798 C 248.241 298.124,248.538 298.391,248.585 298.391 C 248.631 298.391,248.411 298.124,248.095 297.798 C 247.779 297.472,247.482 297.206,247.436 297.206 C 247.389 297.206,247.610 297.472,247.925 297.798 M242.635 312.567 C 242.846 312.607,243.151 312.606,243.313 312.563 C 243.475 312.521,243.302 312.488,242.930 312.490 C 242.557 312.492,242.425 312.526,242.635 312.567 M279.817 352.921 C 279.817 353.527,279.848 353.774,279.885 353.472 C 279.923 353.169,279.923 352.674,279.885 352.371 C 279.848 352.068,279.817 352.316,279.817 352.921 " stroke="none" fill="#999933" fill-rule="evenodd"></path><path id="path4" d="M193.226 19.916 C 182.878 20.486,177.641 21.030,169.771 22.355 C 72.225 38.772,6.005 131.848,22.359 229.551 C 40.512 338.002,151.225 405.209,255.680 371.184 C 265.060 368.128,280.786 361.539,280.777 360.667 C 280.776 360.552,280.624 359.733,280.441 358.848 C 279.635 354.965,279.669 350.592,280.539 346.089 L 280.969 343.861 293.597 315.665 C 300.542 300.157,306.275 287.412,306.337 287.342 C 306.399 287.273,310.257 297.044,314.910 309.057 C 319.563 321.069,323.425 330.880,323.492 330.859 C 324.129 330.662,331.349 323.244,335.344 318.682 C 401.017 243.696,393.491 129.873,318.524 64.307 C 288.487 38.037,252.072 23.033,211.346 20.146 C 208.902 19.973,195.323 19.800,193.226 19.916 M131.431 148.212 C 135.912 149.686,137.721 153.851,136.401 159.654 C 135.399 164.061,131.346 166.189,126.164 165.031 C 114.597 162.445,104.884 167.052,95.511 179.568 C 91.227 185.288,87.435 186.204,83.344 182.505 C 77.960 177.638,78.489 174.215,85.757 166.895 C 97.091 155.480,107.986 149.704,121.084 148.166 C 121.969 148.062,123.112 147.914,123.624 147.837 C 125.619 147.538,130.023 147.749,131.431 148.212 M278.630 148.103 C 292.773 149.888,303.145 155.375,314.830 167.256 C 319.326 171.827,320.322 173.466,320.322 176.294 C 320.322 178.574,319.780 179.665,317.545 181.891 C 313.134 186.285,309.201 185.576,304.744 179.582 C 296.012 167.840,285.561 162.484,275.699 164.697 C 275.000 164.854,274.124 165.047,273.751 165.126 C 267.509 166.447,263.506 163.007,263.506 156.324 C 263.506 149.034,267.745 146.730,278.630 148.103 M124.640 189.479 C 142.699 193.600,148.941 219.111,135.232 232.769 C 120.821 247.127,98.318 235.667,98.318 213.971 C 98.318 200.827,106.208 190.917,118.120 189.097 C 119.246 188.925,123.237 189.159,124.640 189.479 M283.997 189.237 C 302.823 192.075,309.849 218.445,295.597 232.772 C 281.326 247.118,258.874 235.785,258.852 214.225 C 258.839 201.589,266.732 191.089,277.561 189.337 C 278.260 189.224,278.946 189.109,279.086 189.081 C 279.823 188.937,282.589 189.025,283.997 189.237 M205.927 277.563 C 221.430 278.493,234.087 284.263,246.161 295.905 C 251.467 301.020,251.968 305.511,247.733 309.986 C 244.046 313.881,241.358 313.517,235.614 308.345 C 224.140 298.013,208.754 291.542,197.466 292.300 C 186.298 293.050,176.149 298.065,164.417 308.631 C 159.438 313.116,152.844 312.026,150.868 306.393 C 149.585 302.736,151.711 298.578,158.167 292.121 C 169.255 281.030,184.791 276.295,205.927 277.563 " stroke="none" fill="#ffdb65" fill-rule="evenodd"></path></g></svg>