<svg id="svg" version="1.1" width="400" height="400" viewBox="0 0 400 400" xmlns="http://www.w3.org/2000/svg" xmlns:xlink="http://www.w3.org/1999/xlink" ><g id="svgg"><path id="path0" d="M82.101 73.532 C 75.736 74.620,71.648 81.208,73.577 87.267 C 75.050 91.891,78.243 94.078,88.275 97.334 C 92.729 98.779,96.408 100.138,96.259 100.283 C 96.228 100.313,92.037 101.270,86.944 102.410 C 66.720 106.939,64.427 107.635,62.103 109.956 C 56.944 115.108,58.202 124.117,64.513 127.228 C 68.036 128.964,70.918 128.984,77.593 127.316 C 83.200 125.915,113.150 119.105,119.537 117.778 C 142.257 113.059,145.136 111.824,147.218 105.900 C 149.409 99.667,146.322 94.086,139.259 91.510 C 103.094 78.317,85.847 72.892,82.101 73.532 M309.367 77.897 C 306.477 78.517,298.467 81.144,291.667 83.702 C 289.986 84.334,282.944 86.752,276.019 89.076 C 249.653 97.920,247.876 99.019,247.894 106.481 C 247.912 113.662,251.167 116.458,262.315 118.868 C 264.658 119.375,269.366 120.457,272.778 121.273 C 276.190 122.090,280.148 123.017,281.574 123.334 C 287.415 124.631,314.934 130.960,317.687 131.639 C 326.900 133.910,331.503 133.013,334.809 128.305 C 338.112 123.603,336.750 115.752,332.152 112.988 C 330.112 111.762,321.658 109.545,306.528 106.269 C 302.632 105.425,299.446 104.690,299.449 104.636 C 299.451 104.582,303.430 103.046,308.291 101.223 C 318.863 97.259,319.627 96.793,321.380 93.247 C 324.823 86.278,320.546 78.786,312.550 77.783 C 310.762 77.559,310.982 77.551,309.367 77.897 M176.111 148.265 C 132.800 149.604,104.573 151.895,79.259 156.124 C 69.791 157.706,47.769 161.984,47.450 162.303 C 46.928 162.825,47.258 187.891,47.881 195.000 C 50.636 226.436,63.706 255.171,85.983 278.772 L 88.407 281.340 89.046 280.624 C 113.377 253.348,149.746 238.647,192.963 238.617 C 233.220 238.590,268.828 251.799,292.347 275.486 L 296.268 279.435 298.009 277.541 C 320.884 252.663,334.329 221.665,336.942 187.778 C 337.235 183.987,337.712 165.428,337.523 165.239 C 337.327 165.043,310.681 160.136,299.074 158.158 C 266.802 152.660,243.551 149.998,214.722 148.503 C 211.130 148.317,180.539 148.128,176.111 148.265 " stroke="none" fill="#201e1e" fill-rule="evenodd"></path><path id="path1" d="M76.019 91.481 C 76.416 91.889,76.783 92.222,76.834 92.222 C 76.885 92.222,76.602 91.889,76.204 91.481 C 75.806 91.074,75.439 90.741,75.388 90.741 C 75.337 90.741,75.621 91.074,76.019 91.481 M319.155 96.343 L 318.611 96.944 319.213 96.401 C 319.774 95.894,319.900 95.741,319.757 95.741 C 319.725 95.741,319.454 96.012,319.155 96.343 M147.833 102.222 C 147.833 102.782,147.868 103.012,147.910 102.731 C 147.953 102.451,147.953 101.993,147.910 101.713 C 147.868 101.433,147.833 101.662,147.833 102.222 M70.046 128.651 C 70.326 128.694,70.785 128.694,71.065 128.651 C 71.345 128.609,71.116 128.574,70.556 128.574 C 69.995 128.574,69.766 128.609,70.046 128.651 M326.157 132.913 C 326.539 132.953,327.164 132.953,327.546 132.913 C 327.928 132.873,327.616 132.840,326.852 132.840 C 326.088 132.840,325.775 132.873,326.157 132.913 M189.317 148.102 C 191.030 148.132,193.780 148.132,195.428 148.101 C 197.077 148.071,195.676 148.046,192.315 148.046 C 188.954 148.046,187.605 148.071,189.317 148.102 M176.439 148.282 C 176.771 148.324,177.271 148.323,177.550 148.280 C 177.828 148.238,177.556 148.204,176.944 148.206 C 176.333 148.207,176.106 148.241,176.439 148.282 M206.528 148.281 C 206.808 148.323,207.266 148.323,207.546 148.281 C 207.826 148.238,207.597 148.204,207.037 148.204 C 206.477 148.204,206.248 148.238,206.528 148.281 M169.954 148.464 C 170.183 148.508,170.558 148.508,170.787 148.464 C 171.016 148.420,170.829 148.384,170.370 148.384 C 169.912 148.384,169.725 148.420,169.954 148.464 M212.363 148.464 C 212.594 148.509,212.927 148.507,213.104 148.461 C 213.281 148.414,213.093 148.378,212.685 148.380 C 212.278 148.382,212.133 148.420,212.363 148.464 M164.956 148.649 C 165.186 148.694,165.520 148.692,165.697 148.646 C 165.874 148.599,165.685 148.563,165.278 148.565 C 164.870 148.567,164.726 148.605,164.956 148.649 M216.713 148.646 C 216.891 148.693,217.183 148.693,217.361 148.646 C 217.539 148.600,217.394 148.561,217.037 148.561 C 216.681 148.561,216.535 148.600,216.713 148.646 M159.956 148.835 C 160.186 148.879,160.520 148.877,160.697 148.831 C 160.874 148.785,160.685 148.748,160.278 148.750 C 159.870 148.752,159.726 148.790,159.956 148.835 M155.231 149.017 C 155.410 149.063,155.701 149.063,155.880 149.017 C 156.058 148.970,155.912 148.932,155.556 148.932 C 155.199 148.932,155.053 148.970,155.231 149.017 M151.157 149.202 C 151.336 149.248,151.627 149.248,151.806 149.202 C 151.984 149.155,151.838 149.117,151.481 149.117 C 151.125 149.117,150.979 149.155,151.157 149.202 M47.299 162.288 C 47.246 162.426,47.233 163.072,47.270 163.723 L 47.336 164.907 47.372 163.580 C 47.395 162.721,47.489 162.220,47.639 162.160 C 47.820 162.087,47.819 162.063,47.633 162.052 C 47.503 162.044,47.352 162.150,47.299 162.288 M337.479 173.519 C 337.479 174.792,337.508 175.313,337.545 174.676 C 337.581 174.039,337.581 172.998,337.545 172.361 C 337.508 171.725,337.479 172.245,337.479 173.519 M337.269 181.574 C 337.271 181.981,337.309 182.126,337.353 181.896 C 337.397 181.666,337.396 181.332,337.349 181.155 C 337.303 180.978,337.267 181.167,337.269 181.574 M47.273 186.111 C 47.273 186.569,47.309 186.757,47.353 186.528 C 47.397 186.299,47.397 185.924,47.353 185.694 C 47.309 185.465,47.273 185.653,47.273 186.111 M84.815 277.685 C 85.160 278.042,85.485 278.333,85.536 278.333 C 85.587 278.333,85.346 278.042,85.000 277.685 C 84.654 277.329,84.330 277.037,84.279 277.037 C 84.228 277.037,84.469 277.329,84.815 277.685 M88.981 282.037 C 89.792 282.852,90.496 283.519,90.547 283.519 C 90.598 283.519,89.977 282.852,89.167 282.037 C 88.357 281.222,87.652 280.556,87.601 280.556 C 87.550 280.556,88.171 281.222,88.981 282.037 M188.380 326.609 C 188.558 326.656,188.850 326.656,189.028 326.609 C 189.206 326.563,189.060 326.524,188.704 326.524 C 188.347 326.524,188.201 326.563,188.380 326.609 M195.882 326.612 C 196.112 326.657,196.445 326.655,196.623 326.609 C 196.800 326.562,196.611 326.526,196.204 326.528 C 195.796 326.530,195.651 326.568,195.882 326.612 " stroke="none" fill="#8e7d44" fill-rule="evenodd"></path><path id="path2" d="M185.185 238.633 C 144.962 240.868,111.174 255.483,89.638 279.962 L 88.450 281.313 90.197 283.081 C 99.102 292.093,112.716 302.405,124.074 308.743 C 145.901 320.921,177.653 328.200,200.741 326.317 C 228.946 324.016,252.373 315.749,271.793 301.242 C 279.924 295.168,296.111 280.703,296.111 279.512 C 296.111 279.111,288.614 271.696,285.926 269.439 C 265.305 252.122,238.134 241.725,206.296 238.970 C 203.067 238.690,188.374 238.456,185.185 238.633 " stroke="none" fill="#f50953" fill-rule="evenodd"></path><path id="path3" d="M144.340 110.417 L 143.796 111.019 144.398 110.475 C 144.959 109.968,145.085 109.815,144.942 109.815 C 144.910 109.815,144.639 110.086,144.340 110.417 M324.676 132.905 C 324.854 132.952,325.146 132.952,325.324 132.905 C 325.502 132.859,325.356 132.821,325.000 132.821 C 324.644 132.821,324.498 132.859,324.676 132.905 M183.664 148.100 C 184.202 148.137,185.035 148.137,185.515 148.099 C 185.996 148.061,185.556 148.030,184.537 148.031 C 183.519 148.031,183.125 148.062,183.664 148.100 M199.219 148.100 C 199.757 148.137,200.591 148.137,201.071 148.099 C 201.551 148.061,201.111 148.030,200.093 148.031 C 199.074 148.031,198.681 148.062,199.219 148.100 M174.678 148.281 C 174.960 148.324,175.377 148.322,175.604 148.279 C 175.832 148.235,175.602 148.200,175.093 148.201 C 174.583 148.203,174.397 148.238,174.678 148.281 M208.287 148.279 C 208.516 148.323,208.891 148.323,209.120 148.279 C 209.350 148.235,209.162 148.199,208.704 148.199 C 208.245 148.199,208.058 148.235,208.287 148.279 M168.660 148.464 C 168.890 148.509,169.223 148.507,169.400 148.461 C 169.577 148.414,169.389 148.378,168.981 148.380 C 168.574 148.382,168.429 148.420,168.660 148.464 M213.565 148.461 C 213.743 148.508,214.035 148.508,214.213 148.461 C 214.391 148.414,214.245 148.376,213.889 148.376 C 213.532 148.376,213.387 148.414,213.565 148.461 M163.660 148.649 C 163.890 148.694,164.223 148.692,164.400 148.646 C 164.577 148.599,164.389 148.563,163.981 148.565 C 163.574 148.567,163.429 148.605,163.660 148.649 M158.660 148.835 C 158.890 148.879,159.223 148.877,159.400 148.831 C 159.577 148.785,159.389 148.748,158.981 148.750 C 158.574 148.752,158.429 148.790,158.660 148.835 M154.120 149.017 C 154.299 149.063,154.590 149.063,154.769 149.017 C 154.947 148.970,154.801 148.932,154.444 148.932 C 154.088 148.932,153.942 148.970,154.120 149.017 M47.119 176.204 C 47.119 179.361,47.145 180.679,47.175 179.132 C 47.206 177.585,47.206 175.002,47.176 173.391 C 47.145 171.781,47.119 173.046,47.119 176.204 M337.467 176.852 C 337.467 177.514,337.500 177.785,337.541 177.454 C 337.582 177.123,337.582 176.581,337.541 176.250 C 337.500 175.919,337.467 176.190,337.467 176.852 M47.265 187.407 C 47.265 187.764,47.303 187.910,47.350 187.731 C 47.396 187.553,47.396 187.262,47.350 187.083 C 47.303 186.905,47.265 187.051,47.265 187.407 M86.852 279.907 C 87.197 280.264,87.522 280.556,87.573 280.556 C 87.624 280.556,87.383 280.264,87.037 279.907 C 86.692 279.551,86.367 279.259,86.316 279.259 C 86.265 279.259,86.506 279.551,86.852 279.907 M292.678 283.194 L 291.759 284.167 292.731 283.248 C 293.266 282.742,293.704 282.305,293.704 282.275 C 293.704 282.137,293.532 282.291,292.678 283.194 M91.111 284.167 C 91.457 284.523,91.781 284.815,91.832 284.815 C 91.883 284.815,91.642 284.523,91.296 284.167 C 90.951 283.810,90.626 283.519,90.575 283.519 C 90.525 283.519,90.766 283.810,91.111 284.167 " stroke="none" fill="#c5ac58" fill-rule="evenodd"></path><path id="path4" d="M190.741 3.084 C 190.282 3.115,188.449 3.230,186.667 3.340 C 92.619 9.129,14.655 83.768,4.460 177.778 C -9.713 308.478,103.764 415.577,233.422 393.870 C 315.195 380.181,380.551 314.825,394.241 233.051 C 413.756 116.482,328.715 9.868,210.859 3.151 C 207.940 2.985,192.945 2.935,190.741 3.084 M88.241 74.142 C 94.953 75.814,103.330 78.595,126.759 86.926 C 140.847 91.935,140.395 91.766,142.298 92.741 C 148.782 96.063,149.884 104.817,144.507 110.297 C 142.088 112.762,137.184 114.264,120.093 117.775 C 114.168 118.992,81.839 126.348,77.037 127.572 C 71.053 129.096,67.908 129.041,64.455 127.350 C 58.166 124.271,56.882 115.257,61.980 109.977 C 64.352 107.520,66.326 106.911,86.571 102.391 C 91.563 101.276,95.731 100.334,95.833 100.297 C 96.187 100.169,94.136 99.397,88.426 97.507 C 82.340 95.493,80.202 94.606,78.158 93.247 C 72.078 89.205,71.188 81.628,76.200 76.580 C 79.406 73.350,82.528 72.718,88.241 74.142 M313.850 77.884 C 322.474 79.644,325.587 89.987,319.366 96.208 C 317.737 97.836,317.942 97.741,307.927 101.500 C 303.477 103.170,299.894 104.590,299.964 104.655 C 300.035 104.721,301.343 105.040,302.870 105.364 C 311.416 107.181,322.909 109.861,327.963 111.216 C 334.291 112.912,336.854 116.472,336.636 123.260 C 336.515 127.034,334.204 130.328,330.370 132.194 L 328.981 132.870 326.019 132.853 C 322.436 132.832,321.547 132.698,315.741 131.300 C 313.245 130.699,304.412 128.660,296.111 126.768 C 287.810 124.876,277.680 122.539,273.599 121.574 C 269.518 120.609,264.435 119.444,262.303 118.986 C 250.887 116.533,247.480 113.443,247.827 105.862 C 248.154 98.725,249.844 97.718,276.481 88.793 C 283.255 86.524,290.171 84.149,291.852 83.516 C 298.124 81.154,305.520 78.719,309.167 77.815 C 310.304 77.533,312.272 77.562,313.850 77.884 M212.315 148.326 C 246.805 149.805,274.794 153.389,325.958 162.881 C 332.240 164.047,337.440 165.000,337.514 165.000 C 337.699 165.000,337.464 181.416,337.227 185.093 C 334.198 232.065,312.118 271.234,271.648 301.429 C 252.432 315.766,229.697 323.814,201.296 326.332 C 175.967 328.578,141.779 320.012,118.704 305.640 C 76.879 279.589,51.347 239.400,47.690 193.858 C 47.076 186.214,46.851 162.474,47.389 162.141 C 47.899 161.826,71.928 157.230,80.278 155.851 C 114.091 150.266,175.684 146.756,212.315 148.326 " stroke="none" fill="#fcdc6b" fill-rule="evenodd"></path></g></svg>