<svg id="svg" version="1.1" width="400" height="400" viewBox="0 0 400 400" xmlns="http://www.w3.org/2000/svg" xmlns:xlink="http://www.w3.org/1999/xlink" ><g id="svgg"><path id="path0" d="" stroke="none" fill="#000000" fill-rule="evenodd"></path><path id="path1" d="M142.600 108.658 C 141.060 108.727,138.900 108.961,137.800 109.180 C 136.700 109.398,134.360 109.862,132.600 110.210 C 130.840 110.557,129.040 110.993,128.600 111.179 C 128.160 111.364,126.900 111.821,125.800 112.195 C 108.678 118.017,95.062 133.386,91.421 151.000 C 91.285 151.660,90.890 153.550,90.544 155.200 C 88.010 167.287,90.418 187.165,95.814 198.711 C 96.356 199.872,96.800 200.966,96.800 201.141 C 96.800 201.847,101.840 211.213,104.660 215.749 C 114.760 231.992,129.729 248.850,148.206 264.791 C 150.623 266.876,152.690 268.683,152.800 268.806 C 153.732 269.848,166.562 279.767,174.000 285.195 C 182.945 291.723,199.311 302.400,200.372 302.400 C 202.158 302.400,228.566 284.175,238.800 275.880 C 239.130 275.612,240.480 274.529,241.800 273.472 C 243.120 272.415,244.560 271.261,245.000 270.907 C 246.133 269.996,250.661 266.090,254.166 263.000 C 285.040 235.781,303.550 209.386,309.569 184.000 C 311.811 174.545,311.641 159.587,309.191 150.600 C 308.951 149.720,308.587 148.370,308.382 147.600 C 308.177 146.830,307.730 145.480,307.390 144.600 C 307.050 143.720,306.655 142.641,306.513 142.202 C 305.707 139.707,301.814 132.702,300.305 131.029 C 299.922 130.606,299.516 129.976,299.403 129.629 C 298.990 128.368,290.911 120.819,287.646 118.644 C 280.259 113.723,273.806 111.241,263.200 109.244 C 248.807 106.533,230.662 110.570,218.216 119.254 C 209.662 125.221,204.379 132.743,201.171 143.520 C 200.471 145.870,200.182 145.902,199.607 143.693 C 195.856 129.285,183.790 116.945,168.800 112.189 C 167.590 111.805,166.240 111.347,165.800 111.171 C 165.018 110.858,160.588 109.901,156.600 109.183 C 154.275 108.765,146.649 108.479,142.600 108.658 " stroke="none" fill="#ffffff" fill-rule="evenodd"></path><path id="path2" d="M339.862 335.131 C 339.498 335.534,339.200 336.011,339.200 336.193 C 339.200 336.374,339.560 336.107,340.000 335.600 C 340.440 335.093,340.800 334.615,340.800 334.539 C 340.800 334.239,340.495 334.432,339.862 335.131 M337.862 337.131 C 337.498 337.534,337.200 338.011,337.200 338.193 C 337.200 338.374,337.560 338.107,338.000 337.600 C 338.440 337.093,338.800 336.615,338.800 336.539 C 338.800 336.239,338.495 336.432,337.862 337.131 M335.862 339.131 C 335.498 339.534,335.200 340.011,335.200 340.193 C 335.200 340.374,335.560 340.107,336.000 339.600 C 336.440 339.093,336.800 338.615,336.800 338.539 C 336.800 338.239,336.495 338.432,335.862 339.131 " stroke="none" fill="#ff0000" fill-rule="evenodd"></path><path id="path3" d="M188.400 6.738 C 188.400 6.924,185.388 7.199,181.708 7.350 C 178.027 7.501,174.841 7.799,174.628 8.012 C 174.414 8.226,173.196 8.400,171.920 8.400 C 170.644 8.400,169.600 8.559,169.600 8.753 C 169.600 8.947,168.071 9.233,166.201 9.388 C 164.332 9.544,162.702 9.835,162.578 10.036 C 162.454 10.236,161.643 10.400,160.776 10.400 C 159.909 10.400,159.200 10.554,159.200 10.743 C 159.200 10.931,157.895 11.206,156.300 11.354 C 154.705 11.501,153.340 11.797,153.267 12.011 C 153.193 12.225,152.619 12.400,151.990 12.400 C 151.362 12.400,150.751 12.556,150.633 12.747 C 150.515 12.938,149.498 13.217,148.374 13.366 C 147.250 13.515,145.986 13.809,145.565 14.018 C 145.144 14.228,144.456 14.572,144.035 14.782 C 143.614 14.991,142.354 15.285,141.235 15.433 C 140.116 15.582,139.200 15.860,139.200 16.052 C 139.200 16.243,138.750 16.400,138.200 16.400 C 137.650 16.400,137.200 16.569,137.200 16.775 C 137.200 16.982,136.390 17.272,135.400 17.421 C 134.410 17.569,133.600 17.850,133.600 18.045 C 133.600 18.240,133.150 18.400,132.600 18.400 C 132.050 18.400,131.600 18.580,131.600 18.800 C 131.600 19.020,131.223 19.200,130.762 19.200 C 130.301 19.200,129.446 19.454,128.862 19.764 C 127.543 20.465,125.465 21.345,123.500 22.034 C 122.675 22.324,122.000 22.685,122.000 22.836 C 122.000 22.987,121.370 23.229,120.600 23.374 C 119.830 23.518,119.200 23.808,119.200 24.018 C 119.200 24.228,118.840 24.400,118.400 24.400 C 117.960 24.400,117.600 24.580,117.600 24.800 C 117.600 25.020,117.274 25.200,116.876 25.200 C 116.479 25.200,115.804 25.464,115.376 25.787 C 114.949 26.110,114.285 26.380,113.900 26.387 C 113.515 26.394,113.198 26.535,113.196 26.700 C 113.194 26.865,112.384 27.355,111.396 27.790 C 110.408 28.224,109.600 28.705,109.600 28.858 C 109.600 29.011,109.060 29.255,108.400 29.400 C 107.740 29.545,107.200 29.829,107.200 30.032 C 107.200 30.234,106.840 30.400,106.400 30.400 C 105.960 30.400,105.600 30.559,105.600 30.753 C 105.600 30.948,105.285 31.212,104.900 31.342 C 104.220 31.570,102.804 32.396,102.400 32.800 C 102.290 32.910,101.525 33.343,100.700 33.763 C 99.875 34.183,99.200 34.678,99.200 34.863 C 99.200 35.048,98.849 35.200,98.420 35.200 C 97.991 35.200,97.496 35.435,97.320 35.722 C 97.144 36.008,96.361 36.540,95.579 36.903 C 94.797 37.266,93.824 37.931,93.417 38.381 C 93.009 38.832,92.505 39.200,92.296 39.200 C 92.086 39.200,91.233 39.740,90.400 40.400 C 89.567 41.060,88.687 41.600,88.446 41.600 C 88.204 41.600,87.782 41.960,87.507 42.400 C 87.232 42.840,86.789 43.200,86.522 43.200 C 86.255 43.200,85.623 43.613,85.118 44.119 C 84.613 44.624,83.614 45.382,82.900 45.805 C 82.185 46.227,81.600 46.714,81.600 46.886 C 81.600 47.059,81.343 47.200,81.029 47.200 C 80.715 47.200,80.130 47.606,79.729 48.102 C 79.328 48.598,78.476 49.342,77.835 49.754 C 77.193 50.167,75.769 51.381,74.669 52.452 C 73.569 53.523,72.531 54.400,72.362 54.400 C 71.644 54.400,54.400 71.632,54.400 72.349 C 54.400 72.525,53.523 73.569,52.452 74.669 C 51.381 75.769,50.167 77.193,49.754 77.835 C 49.342 78.476,48.598 79.328,48.102 79.729 C 47.606 80.130,47.200 80.715,47.200 81.029 C 47.200 81.343,47.059 81.600,46.886 81.600 C 46.714 81.600,46.227 82.185,45.805 82.900 C 45.382 83.614,44.624 84.613,44.119 85.118 C 43.613 85.623,43.200 86.255,43.200 86.522 C 43.200 86.789,42.840 87.232,42.400 87.507 C 41.960 87.782,41.600 88.204,41.600 88.446 C 41.600 88.687,41.060 89.567,40.400 90.400 C 39.740 91.233,39.200 92.086,39.200 92.296 C 39.200 92.505,38.832 93.009,38.381 93.417 C 37.931 93.824,37.266 94.797,36.903 95.579 C 36.540 96.361,36.008 97.144,35.722 97.320 C 35.435 97.496,35.200 97.991,35.200 98.420 C 35.200 98.849,35.048 99.200,34.863 99.200 C 34.678 99.200,34.183 99.875,33.763 100.700 C 33.343 101.525,32.910 102.290,32.800 102.400 C 32.396 102.804,31.570 104.220,31.342 104.900 C 31.212 105.285,30.948 105.600,30.753 105.600 C 30.559 105.600,30.400 105.960,30.400 106.400 C 30.400 106.840,30.234 107.200,30.032 107.200 C 29.829 107.200,29.545 107.740,29.400 108.400 C 29.255 109.060,29.011 109.600,28.858 109.600 C 28.705 109.600,28.224 110.408,27.790 111.396 C 27.355 112.384,26.865 113.194,26.700 113.196 C 26.535 113.198,26.394 113.515,26.387 113.900 C 26.380 114.285,26.110 114.949,25.787 115.376 C 25.464 115.804,25.200 116.479,25.200 116.876 C 25.200 117.274,25.020 117.600,24.800 117.600 C 24.580 117.600,24.400 117.960,24.400 118.400 C 24.400 118.840,24.228 119.200,24.018 119.200 C 23.808 119.200,23.518 119.830,23.374 120.600 C 23.229 121.370,22.987 122.000,22.836 122.000 C 22.685 122.000,22.324 122.675,22.034 123.500 C 21.345 125.465,20.465 127.543,19.764 128.862 C 19.454 129.446,19.200 130.301,19.200 130.762 C 19.200 131.223,19.020 131.600,18.800 131.600 C 18.580 131.600,18.400 132.050,18.400 132.600 C 18.400 133.150,18.240 133.600,18.045 133.600 C 17.850 133.600,17.569 134.410,17.421 135.400 C 17.272 136.390,16.982 137.200,16.775 137.200 C 16.569 137.200,16.400 137.650,16.400 138.200 C 16.400 138.750,16.243 139.200,16.052 139.200 C 15.860 139.200,15.582 140.116,15.433 141.235 C 15.285 142.354,14.991 143.614,14.782 144.035 C 14.572 144.456,14.228 145.144,14.018 145.565 C 13.809 145.986,13.515 147.250,13.366 148.374 C 13.217 149.498,12.938 150.515,12.747 150.633 C 12.556 150.751,12.400 151.362,12.400 151.990 C 12.400 152.619,12.225 153.193,12.011 153.267 C 11.797 153.340,11.501 154.705,11.354 156.300 C 11.206 157.895,10.931 159.200,10.743 159.200 C 10.554 159.200,10.400 159.909,10.400 160.776 C 10.400 161.643,10.236 162.454,10.036 162.578 C 9.835 162.702,9.544 164.332,9.388 166.201 C 9.233 168.071,8.947 169.600,8.753 169.600 C 8.559 169.600,8.400 170.644,8.400 171.920 C 8.400 173.196,8.226 174.414,8.012 174.628 C 7.799 174.841,7.501 178.027,7.350 181.708 C 7.199 185.388,6.924 188.400,6.738 188.400 C 6.295 188.400,6.297 211.889,6.739 212.162 C 6.926 212.278,7.206 215.393,7.361 219.086 C 7.516 222.779,7.814 225.971,8.022 226.180 C 8.230 226.389,8.400 227.514,8.400 228.680 C 8.400 229.846,8.557 230.800,8.748 230.800 C 8.940 230.800,9.223 232.418,9.378 234.395 C 9.533 236.372,9.826 238.092,10.030 238.218 C 10.233 238.344,10.400 239.157,10.400 240.024 C 10.400 240.891,10.554 241.600,10.743 241.600 C 10.932 241.600,11.200 242.688,11.339 244.018 C 11.478 245.349,11.773 246.777,11.996 247.192 C 12.218 247.608,12.400 248.399,12.400 248.950 C 12.400 249.502,12.563 250.054,12.763 250.177 C 12.962 250.300,13.249 251.300,13.400 252.400 C 13.551 253.500,13.838 254.500,14.037 254.623 C 14.237 254.746,14.400 255.287,14.400 255.824 C 14.400 256.361,14.580 256.800,14.800 256.800 C 15.020 256.800,15.200 257.336,15.200 257.992 C 15.200 259.046,15.754 260.902,16.814 263.400 C 17.001 263.840,17.268 264.785,17.408 265.500 C 17.549 266.215,17.829 266.800,18.032 266.800 C 18.234 266.800,18.400 267.250,18.400 267.800 C 18.400 268.350,18.560 268.800,18.755 268.800 C 18.950 268.800,19.231 269.610,19.379 270.600 C 19.528 271.590,19.818 272.400,20.025 272.400 C 20.231 272.400,20.400 272.642,20.400 272.939 C 20.400 273.440,21.157 275.283,22.026 276.895 C 22.232 277.277,22.400 277.862,22.400 278.195 C 22.400 278.528,22.560 278.800,22.755 278.800 C 22.951 278.800,23.229 279.430,23.374 280.200 C 23.518 280.970,23.808 281.600,24.018 281.600 C 24.228 281.600,24.400 281.870,24.400 282.200 C 24.400 282.530,24.580 282.800,24.800 282.800 C 25.020 282.800,25.200 283.088,25.200 283.439 C 25.200 284.293,28.440 290.800,28.865 290.800 C 29.049 290.800,29.200 291.087,29.200 291.438 C 29.200 292.055,30.344 294.392,30.846 294.800 C 30.981 294.910,31.219 295.405,31.373 295.900 C 31.528 296.395,31.822 296.800,32.027 296.800 C 32.232 296.800,32.400 297.160,32.400 297.600 C 32.400 298.040,32.560 298.400,32.757 298.400 C 32.953 298.400,33.216 298.809,33.341 299.308 C 33.466 299.807,33.914 300.586,34.336 301.039 C 34.757 301.491,35.226 302.253,35.378 302.731 C 35.530 303.209,35.822 303.600,36.027 303.600 C 36.232 303.600,36.400 303.870,36.400 304.200 C 36.400 304.530,36.560 304.800,36.757 304.800 C 36.953 304.800,37.226 305.250,37.364 305.800 C 37.502 306.350,37.792 306.800,38.008 306.800 C 38.223 306.800,38.400 306.992,38.400 307.227 C 38.400 307.635,40.048 310.017,41.100 311.129 C 41.375 311.419,41.600 311.790,41.600 311.953 C 41.600 312.116,41.924 312.598,42.320 313.025 C 42.716 313.451,43.385 314.385,43.806 315.100 C 44.228 315.815,44.714 316.400,44.886 316.400 C 45.059 316.400,45.200 316.657,45.200 316.971 C 45.200 317.285,45.650 317.896,46.200 318.329 C 46.750 318.761,47.200 319.271,47.200 319.462 C 47.200 319.652,47.607 320.256,48.104 320.804 C 48.601 321.352,49.631 322.610,50.393 323.600 C 51.154 324.590,52.097 325.691,52.489 326.047 C 52.880 326.403,53.200 326.804,53.200 326.938 C 53.200 327.137,55.517 329.689,57.889 332.103 C 58.537 332.762,58.594 332.822,62.673 337.099 C 64.613 339.134,66.413 340.799,66.673 340.799 C 66.933 340.800,67.260 341.160,67.400 341.600 C 67.540 342.040,67.798 342.400,67.975 342.400 C 68.152 342.400,69.466 343.570,70.896 345.000 C 72.326 346.430,73.622 347.600,73.775 347.600 C 73.928 347.600,74.716 348.228,75.527 348.997 C 76.337 349.765,77.116 350.395,77.258 350.397 C 77.399 350.398,78.061 350.895,78.728 351.500 C 79.395 352.105,80.526 353.050,81.241 353.600 C 81.956 354.150,82.766 354.825,83.042 355.100 C 83.317 355.375,83.736 355.600,83.971 355.600 C 84.207 355.600,84.400 355.768,84.400 355.973 C 84.400 356.178,84.715 356.447,85.100 356.571 C 85.485 356.694,86.323 357.246,86.962 357.798 C 87.601 358.349,88.296 358.800,88.505 358.800 C 88.714 358.800,89.239 359.250,89.671 359.800 C 90.104 360.350,90.644 360.800,90.871 360.800 C 91.099 360.800,91.819 361.250,92.473 361.800 C 93.127 362.350,93.918 362.800,94.231 362.800 C 94.544 362.800,94.800 362.967,94.800 363.171 C 94.800 363.375,95.520 363.860,96.400 364.248 C 97.280 364.636,98.000 365.099,98.000 365.277 C 98.000 365.455,98.270 365.600,98.600 365.600 C 98.930 365.600,99.200 365.777,99.200 365.992 C 99.200 366.208,99.650 366.498,100.200 366.636 C 100.750 366.774,101.200 367.047,101.200 367.243 C 101.200 367.440,101.470 367.600,101.800 367.600 C 102.130 367.600,102.400 367.760,102.400 367.957 C 102.400 368.153,102.865 368.430,103.434 368.573 C 104.003 368.716,104.837 369.176,105.288 369.596 C 105.739 370.016,106.624 370.473,107.254 370.612 C 107.884 370.750,108.400 371.008,108.400 371.185 C 108.400 371.362,108.715 371.612,109.100 371.742 C 109.485 371.871,110.070 372.134,110.400 372.326 C 113.363 374.052,119.223 376.800,119.940 376.800 C 120.193 376.800,120.400 376.980,120.400 377.200 C 120.400 377.420,120.649 377.600,120.954 377.600 C 121.259 377.600,122.024 377.869,122.654 378.198 C 123.284 378.526,124.115 378.796,124.500 378.798 C 124.885 378.799,125.200 378.936,125.200 379.102 C 125.200 379.496,127.057 380.311,128.703 380.641 C 129.416 380.783,130.000 381.058,130.000 381.250 C 130.000 381.443,130.349 381.600,130.776 381.600 C 131.203 381.600,131.654 381.764,131.778 381.965 C 131.903 382.166,132.723 382.452,133.602 382.600 C 134.481 382.749,135.200 383.034,135.200 383.235 C 135.200 383.436,135.639 383.600,136.176 383.600 C 136.713 383.600,137.258 383.770,137.386 383.977 C 137.514 384.184,138.424 384.475,139.409 384.622 C 140.394 384.770,141.200 385.050,141.200 385.245 C 141.200 385.440,141.740 385.600,142.400 385.600 C 143.060 385.600,143.600 385.759,143.600 385.954 C 143.600 386.149,144.587 386.431,145.794 386.582 C 147.000 386.733,148.091 387.023,148.217 387.228 C 148.344 387.433,148.876 387.600,149.400 387.600 C 149.924 387.600,150.455 387.766,150.581 387.969 C 150.706 388.171,151.977 388.462,153.404 388.615 C 154.832 388.768,156.000 389.052,156.000 389.247 C 156.000 389.441,156.720 389.600,157.600 389.600 C 158.480 389.600,159.200 389.761,159.200 389.958 C 159.200 390.155,160.640 390.444,162.400 390.600 C 164.160 390.756,165.600 391.045,165.600 391.242 C 165.600 391.439,166.464 391.600,167.520 391.600 C 168.576 391.600,169.611 391.768,169.820 391.973 C 170.029 392.179,172.410 392.475,175.112 392.631 C 177.813 392.787,180.119 393.069,180.235 393.257 C 180.352 393.446,182.226 393.600,184.400 393.600 C 186.604 393.600,188.462 393.777,188.600 394.000 C 188.756 394.252,193.130 394.400,200.400 394.400 C 207.670 394.400,212.044 394.252,212.200 394.000 C 212.337 393.779,214.139 393.600,216.229 393.600 C 218.309 393.600,220.323 393.428,220.705 393.217 C 221.087 393.007,223.515 392.719,226.100 392.578 C 228.685 392.437,230.800 392.159,230.800 391.961 C 230.800 391.762,231.700 391.600,232.800 391.600 C 233.900 391.600,234.800 391.441,234.800 391.247 C 234.800 391.053,236.330 390.767,238.200 390.611 C 240.070 390.456,241.600 390.164,241.600 389.964 C 241.600 389.764,242.320 389.600,243.200 389.600 C 244.080 389.600,244.800 389.441,244.800 389.247 C 244.800 389.052,245.968 388.768,247.396 388.615 C 248.823 388.462,250.094 388.171,250.219 387.969 C 250.345 387.766,250.876 387.600,251.400 387.600 C 251.924 387.600,252.454 387.437,252.577 387.237 C 252.700 387.038,253.701 386.751,254.800 386.600 C 255.900 386.449,256.800 386.162,256.800 385.962 C 256.800 385.763,257.329 385.600,257.976 385.600 C 258.623 385.600,259.254 385.437,259.377 385.237 C 259.500 385.038,260.501 384.751,261.600 384.600 C 262.700 384.449,263.600 384.162,263.600 383.962 C 263.600 383.763,263.949 383.600,264.376 383.600 C 264.803 383.600,265.254 383.436,265.378 383.235 C 265.503 383.034,266.323 382.748,267.202 382.600 C 268.081 382.451,268.800 382.166,268.800 381.965 C 268.800 381.764,269.250 381.600,269.800 381.600 C 270.350 381.600,270.800 381.443,270.800 381.250 C 270.800 381.058,271.384 380.783,272.097 380.641 C 273.743 380.311,275.600 379.496,275.600 379.102 C 275.600 378.936,275.915 378.799,276.300 378.798 C 276.685 378.796,277.516 378.526,278.146 378.198 C 278.776 377.869,279.541 377.600,279.846 377.600 C 280.151 377.600,280.400 377.434,280.400 377.232 C 280.400 377.029,280.940 376.745,281.600 376.600 C 282.260 376.455,282.800 376.171,282.800 375.968 C 282.800 375.766,283.041 375.600,283.335 375.600 C 284.016 375.600,290.555 372.348,290.733 371.920 C 290.807 371.744,291.212 371.600,291.633 371.600 C 292.055 371.600,292.400 371.434,292.400 371.232 C 292.400 371.029,292.940 370.745,293.600 370.600 C 294.260 370.455,294.800 370.196,294.800 370.025 C 294.800 369.854,295.655 369.263,296.700 368.712 C 300.652 366.629,301.404 366.192,301.533 365.900 C 301.607 365.735,301.922 365.600,302.233 365.600 C 302.545 365.600,302.800 365.423,302.800 365.208 C 302.800 364.992,303.250 364.702,303.800 364.564 C 304.350 364.426,304.800 364.169,304.800 363.992 C 304.800 363.816,305.625 363.272,306.632 362.784 C 307.640 362.297,308.559 361.651,308.675 361.349 C 308.791 361.047,309.145 360.800,309.461 360.800 C 309.777 360.800,310.472 360.364,311.005 359.831 C 311.538 359.298,312.340 358.746,312.787 358.604 C 313.234 358.462,313.600 358.217,313.600 358.059 C 313.600 357.902,314.172 357.435,314.870 357.022 C 316.208 356.232,317.251 355.443,318.433 354.327 C 318.826 353.956,319.654 353.326,320.273 352.927 C 321.381 352.212,321.719 351.941,324.281 349.714 C 324.985 349.101,326.146 348.150,326.860 347.600 C 330.079 345.121,344.748 330.432,347.899 326.532 C 348.580 325.689,350.114 323.853,352.186 321.400 C 352.743 320.740,353.199 320.092,353.200 319.959 C 353.200 319.827,353.695 319.166,354.300 318.490 C 355.852 316.758,356.230 316.265,356.743 315.306 C 356.992 314.842,357.423 314.223,357.703 313.931 C 357.982 313.639,358.554 312.865,358.973 312.210 C 359.393 311.556,359.883 310.836,360.062 310.610 C 361.554 308.732,362.336 307.587,363.003 306.300 C 363.432 305.475,363.921 304.800,364.091 304.800 C 364.261 304.800,364.400 304.530,364.400 304.200 C 364.400 303.870,364.568 303.600,364.773 303.600 C 364.978 303.600,365.272 303.195,365.427 302.700 C 365.581 302.205,365.819 301.710,365.954 301.600 C 366.089 301.490,366.396 301.040,366.637 300.600 C 368.760 296.708,369.756 294.970,369.960 294.800 C 370.398 294.434,371.600 291.944,371.600 291.401 C 371.600 291.107,371.752 290.807,371.938 290.733 C 372.385 290.557,375.600 284.139,375.600 283.423 C 375.600 283.117,375.735 282.807,375.900 282.733 C 376.261 282.573,377.550 279.869,379.872 274.400 C 380.199 273.630,380.722 272.409,381.033 271.686 C 381.345 270.964,381.600 270.019,381.600 269.586 C 381.600 269.154,381.780 268.800,382.000 268.800 C 382.220 268.800,382.400 268.350,382.400 267.800 C 382.400 267.250,382.564 266.800,382.765 266.800 C 382.966 266.800,383.251 266.080,383.400 265.200 C 383.549 264.320,383.792 263.600,383.940 263.600 C 384.228 263.600,385.168 260.269,385.493 258.100 C 385.600 257.385,385.827 256.800,385.998 256.800 C 386.169 256.800,386.404 256.305,386.520 255.700 C 386.823 254.120,387.616 251.135,387.980 250.200 C 388.592 248.632,389.600 244.048,389.600 242.834 C 389.600 242.155,389.780 241.600,390.000 241.600 C 390.220 241.600,390.400 240.910,390.400 240.067 C 390.400 239.223,390.525 238.408,390.678 238.255 C 391.027 237.906,391.129 237.309,391.455 233.700 C 391.599 232.105,391.855 230.800,392.023 230.800 C 392.191 230.800,392.408 229.765,392.505 228.500 C 392.603 227.235,392.799 225.750,392.943 225.200 C 393.086 224.650,393.321 221.538,393.465 218.285 C 393.609 215.031,393.878 212.276,394.063 212.161 C 394.248 212.046,394.400 206.754,394.400 200.400 C 394.400 194.046,394.248 188.754,394.063 188.639 C 393.878 188.524,393.609 185.769,393.465 182.515 C 393.321 179.262,393.087 176.150,392.945 175.600 C 392.803 175.050,392.606 173.610,392.508 172.400 C 392.410 171.190,392.165 170.029,391.965 169.820 C 391.764 169.611,391.600 168.704,391.600 167.804 C 391.600 166.904,391.330 165.131,391.000 163.865 C 390.670 162.598,390.400 161.030,390.400 160.380 C 390.400 159.731,390.220 159.200,390.000 159.200 C 389.780 159.200,389.600 158.645,389.600 157.966 C 389.600 156.654,388.520 151.833,387.986 150.759 C 387.810 150.406,387.541 149.279,387.387 148.254 C 387.233 147.229,386.948 146.292,386.754 146.171 C 386.559 146.051,386.400 145.423,386.400 144.776 C 386.400 144.129,386.220 143.600,386.000 143.600 C 385.780 143.600,385.594 143.195,385.587 142.700 C 385.573 141.742,384.293 137.759,383.859 137.325 C 383.716 137.183,383.600 136.743,383.600 136.347 C 383.600 135.951,383.305 134.946,382.945 134.114 C 382.584 133.281,382.156 132.240,381.992 131.800 C 381.282 129.885,380.232 127.267,379.506 125.600 C 379.075 124.610,378.448 123.170,378.113 122.400 C 375.919 117.363,372.873 111.138,370.773 107.400 C 369.908 105.860,368.979 104.150,368.708 103.600 C 368.438 103.050,368.123 102.510,368.008 102.400 C 367.894 102.290,367.457 101.525,367.037 100.700 C 366.617 99.875,366.143 99.200,365.984 99.200 C 365.824 99.200,365.588 98.885,365.458 98.500 C 365.195 97.715,364.916 97.261,362.500 93.681 C 361.565 92.295,360.800 91.070,360.800 90.957 C 360.800 90.755,358.412 87.584,357.970 87.200 C 357.843 87.090,357.399 86.415,356.984 85.700 C 356.568 84.985,356.086 84.400,355.914 84.400 C 355.741 84.400,355.600 84.145,355.600 83.833 C 355.600 83.522,355.464 83.207,355.297 83.133 C 355.130 83.060,354.370 82.190,353.607 81.200 C 352.845 80.210,352.121 79.310,352.000 79.200 C 351.879 79.090,351.159 78.190,350.401 77.200 C 349.643 76.210,348.703 75.109,348.311 74.753 C 347.920 74.397,347.600 73.980,347.600 73.826 C 347.600 73.058,327.735 53.200,326.967 53.200 C 326.855 53.200,326.356 52.795,325.858 52.300 C 325.360 51.805,324.363 50.950,323.642 50.400 C 322.921 49.850,322.117 49.220,321.856 49.000 C 318.734 46.372,317.184 45.200,316.828 45.200 C 316.593 45.200,316.400 45.048,316.400 44.863 C 316.400 44.678,315.770 44.187,315.000 43.772 C 314.230 43.357,313.600 42.907,313.600 42.772 C 313.600 42.637,312.970 42.187,312.200 41.772 C 311.430 41.357,310.800 40.907,310.800 40.772 C 310.800 40.637,310.170 40.187,309.400 39.772 C 308.630 39.357,308.000 38.879,308.000 38.709 C 308.000 38.539,307.730 38.400,307.400 38.400 C 307.070 38.400,306.800 38.223,306.800 38.008 C 306.800 37.792,306.350 37.502,305.800 37.364 C 305.250 37.226,304.800 36.953,304.800 36.757 C 304.800 36.560,304.530 36.400,304.200 36.400 C 303.870 36.400,303.600 36.232,303.600 36.027 C 303.600 35.822,303.209 35.530,302.731 35.378 C 302.253 35.226,301.491 34.757,301.039 34.336 C 300.586 33.914,299.807 33.466,299.308 33.341 C 298.809 33.216,298.400 32.953,298.400 32.757 C 298.400 32.560,298.040 32.400,297.600 32.400 C 297.160 32.400,296.800 32.232,296.800 32.027 C 296.800 31.822,296.395 31.528,295.900 31.373 C 295.405 31.219,294.910 30.981,294.800 30.846 C 294.392 30.344,292.055 29.200,291.438 29.200 C 291.087 29.200,290.800 29.046,290.800 28.858 C 290.800 28.417,284.353 25.200,283.470 25.200 C 283.101 25.200,282.800 25.020,282.800 24.800 C 282.800 24.580,282.530 24.400,282.200 24.400 C 281.870 24.400,281.600 24.228,281.600 24.018 C 281.600 23.808,280.970 23.518,280.200 23.374 C 279.430 23.229,278.800 22.951,278.800 22.755 C 278.800 22.560,278.440 22.400,278.000 22.400 C 277.560 22.400,277.200 22.220,277.200 22.000 C 277.200 21.780,276.885 21.599,276.500 21.598 C 276.115 21.596,275.284 21.326,274.654 20.998 C 274.024 20.669,273.259 20.400,272.954 20.400 C 272.649 20.400,272.400 20.231,272.400 20.025 C 272.400 19.818,271.590 19.528,270.600 19.379 C 269.610 19.231,268.800 18.950,268.800 18.755 C 268.800 18.560,268.350 18.400,267.800 18.400 C 267.250 18.400,266.800 18.234,266.800 18.032 C 266.800 17.829,266.215 17.549,265.500 17.408 C 264.228 17.159,262.935 16.685,261.469 15.931 C 261.068 15.724,259.853 15.450,258.769 15.322 C 257.686 15.194,256.800 14.934,256.800 14.744 C 256.800 14.555,256.361 14.400,255.824 14.400 C 255.287 14.400,254.746 14.237,254.623 14.037 C 254.500 13.838,253.500 13.551,252.400 13.400 C 251.300 13.249,250.300 12.962,250.177 12.763 C 250.054 12.563,249.434 12.400,248.800 12.400 C 248.166 12.400,247.542 12.230,247.414 12.023 C 247.286 11.816,245.926 11.523,244.391 11.372 C 242.856 11.220,241.600 10.940,241.600 10.748 C 241.600 10.557,240.891 10.400,240.024 10.400 C 239.157 10.400,238.344 10.233,238.218 10.030 C 238.092 9.826,236.372 9.533,234.395 9.378 C 232.418 9.223,230.800 8.940,230.800 8.748 C 230.800 8.557,229.846 8.400,228.680 8.400 C 227.514 8.400,226.389 8.230,226.180 8.022 C 225.971 7.814,222.779 7.516,219.086 7.361 C 215.393 7.206,212.278 6.926,212.162 6.739 C 211.889 6.297,188.400 6.295,188.400 6.738 M158.400 108.947 C 180.046 113.130,195.827 125.966,199.775 142.600 L 200.250 144.600 201.317 141.260 C 206.247 125.836,219.929 114.142,238.060 109.857 C 262.815 104.007,289.045 113.030,301.263 131.600 C 306.864 140.113,309.290 146.576,311.011 157.565 C 311.702 161.980,311.805 174.310,311.180 177.833 C 310.260 183.020,309.532 186.649,309.221 187.600 C 309.040 188.150,308.660 189.410,308.375 190.400 C 305.548 200.235,299.395 211.945,290.000 225.370 C 281.504 237.510,264.227 255.384,247.200 269.650 C 240.189 275.524,225.006 287.133,220.800 289.836 C 219.810 290.472,218.910 291.093,218.800 291.216 C 218.369 291.697,207.498 298.800,207.192 298.800 C 207.013 298.800,206.807 298.941,206.733 299.113 C 206.472 299.726,201.206 302.800,200.417 302.800 C 199.549 302.800,196.803 301.197,189.600 296.485 C 184.665 293.256,173.530 285.605,173.200 285.215 C 173.090 285.085,171.369 283.796,169.375 282.350 C 167.381 280.904,165.401 279.439,164.975 279.094 C 164.549 278.750,161.770 276.529,158.800 274.160 C 140.545 259.597,126.567 245.829,113.964 230.000 C 104.128 217.645,94.830 200.466,91.937 189.300 C 91.752 188.585,91.413 187.325,91.185 186.500 C 89.424 180.131,88.593 165.093,89.609 158.000 C 90.258 153.471,91.783 147.050,92.790 144.600 C 92.971 144.160,93.345 143.170,93.622 142.400 C 99.835 125.085,116.994 111.924,137.400 108.821 C 138.940 108.587,140.650 108.318,141.200 108.224 C 143.251 107.873,155.508 108.388,158.400 108.947 " stroke="none" fill="#ed5168" fill-rule="evenodd"></path><path id="path4" d="M141.200 108.224 C 140.650 108.318,138.940 108.587,137.400 108.821 C 116.994 111.924,99.835 125.085,93.622 142.400 C 93.345 143.170,92.971 144.160,92.790 144.600 C 88.762 154.393,87.976 174.895,91.185 186.500 C 91.413 187.325,91.752 188.585,91.937 189.300 C 94.402 198.813,101.771 213.277,109.894 224.543 C 121.817 241.080,138.316 257.819,158.800 274.160 C 161.770 276.529,164.549 278.750,164.975 279.094 C 165.401 279.439,167.381 280.904,169.375 282.350 C 171.369 283.796,173.090 285.085,173.200 285.215 C 173.530 285.605,184.665 293.256,189.600 296.485 C 196.803 301.197,199.549 302.800,200.417 302.800 C 201.206 302.800,206.472 299.726,206.733 299.113 C 206.807 298.941,207.013 298.800,207.192 298.800 C 207.498 298.800,218.369 291.697,218.800 291.216 C 218.910 291.093,219.810 290.472,220.800 289.836 C 225.006 287.133,240.189 275.524,247.200 269.650 C 264.227 255.384,281.504 237.510,290.000 225.370 C 299.395 211.945,305.548 200.235,308.375 190.400 C 308.660 189.410,309.040 188.150,309.221 187.600 C 309.532 186.649,310.260 183.020,311.180 177.833 C 312.082 172.750,311.359 154.425,310.211 153.278 C 309.864 152.931,309.971 154.376,310.602 158.565 C 315.415 190.493,295.987 226.204,253.444 263.631 C 252.588 264.384,251.686 265.180,251.440 265.400 C 250.430 266.302,245.743 270.309,245.000 270.907 C 244.560 271.261,243.120 272.415,241.800 273.472 C 240.480 274.529,239.130 275.612,238.800 275.880 C 228.566 284.175,202.158 302.400,200.372 302.400 C 199.311 302.400,182.945 291.723,174.000 285.195 C 166.562 279.767,153.732 269.848,152.800 268.806 C 152.690 268.683,150.623 266.876,148.206 264.791 C 129.729 248.850,114.760 231.992,104.660 215.749 C 101.840 211.213,96.800 201.847,96.800 201.141 C 96.800 200.966,96.356 199.872,95.814 198.711 C 90.418 187.165,88.010 167.287,90.544 155.200 C 90.890 153.550,91.285 151.660,91.421 151.000 C 95.062 133.386,108.678 118.017,125.800 112.195 C 126.900 111.821,128.160 111.364,128.600 111.179 C 129.040 110.993,130.840 110.559,132.600 110.214 C 134.360 109.869,136.684 109.386,137.765 109.140 C 140.274 108.569,154.047 108.557,156.635 109.123 C 157.716 109.359,160.040 109.845,161.800 110.202 C 163.560 110.559,165.360 110.995,165.800 111.171 C 166.240 111.347,167.590 111.805,168.800 112.189 C 183.790 116.945,195.856 129.285,199.607 143.693 C 200.182 145.902,200.471 145.870,201.171 143.520 C 203.639 135.230,206.743 129.791,212.054 124.454 C 222.884 113.570,239.026 107.897,257.000 108.660 C 260.947 108.827,262.701 109.078,268.200 110.260 C 274.710 111.660,281.661 114.657,287.646 118.644 C 290.911 120.819,298.990 128.368,299.403 129.629 C 299.516 129.976,299.922 130.606,300.305 131.029 C 303.044 134.065,306.973 142.460,308.807 149.200 C 309.712 152.525,309.933 153.095,309.968 152.199 C 310.012 151.105,308.771 146.903,307.194 142.800 C 296.417 114.760,263.891 101.122,232.460 111.464 C 217.319 116.446,205.692 127.570,201.317 141.260 L 200.250 144.600 199.775 142.600 C 196.281 127.878,182.247 115.018,164.600 110.370 C 157.828 108.586,145.625 107.467,141.200 108.224 " stroke="none" fill="#f7b5bf" fill-rule="evenodd"></path></g></svg>